SplineFontDB: 3.2
FontName: NeanesStathisSeriesEngraving
FullName: NeanesStathisSeries
FamilyName: NeanesStathisSeries
Weight: Book
Copyright: 
Version: 1.0.7
ItalicAngle: 0
UnderlinePosition: 0
UnderlineWidth: 0
Ascent: 800
Descent: 200
InvalidEm: 0
LayerCount: 2
Layer: 0 1 "Back" 1
Layer: 1 1 "Fore" 0
XUID: [1021 904 -49705511 19466]
StyleMap: 0x0040
FSType: 0
OS2Version: 4
OS2_WeightWidthSlopeOnly: 0
OS2_UseTypoMetrics: 1
CreationTime: 1646795337
ModificationTime: 1781842028
PfmFamily: 17
TTFWeight: 400
TTFWidth: 5
LineGap: 0
VLineGap: 0
Panose: 2 0 5 3 0 0 0 0 0 0
OS2TypoAscent: 1400
OS2TypoAOffset: 0
OS2TypoDescent: -466
OS2TypoDOffset: 0
OS2TypoLinegap: 0
OS2WinAscent: 1400
OS2WinAOffset: 0
OS2WinDescent: 466
OS2WinDOffset: 0
HheadAscent: 1400
HheadAOffset: 0
HheadDescent: -466
HheadDOffset: 0
OS2SubXSize: 650
OS2SubYSize: 699
OS2SubXOff: 0
OS2SubYOff: 140
OS2SupXSize: 650
OS2SupYSize: 699
OS2SupXOff: 0
OS2SupYOff: 479
OS2StrikeYSize: 49
OS2StrikeYPos: 258
OS2Vendor: 'PfEd'
OS2CodePages: 80000001.00000000
OS2UnicodeRanges: 80000001.12000000.01000000.00000000
Lookup: 3 0 0 "'salt' Stylistic Alternatives in Byzantine Music lookup 0" { "'salt' Stylistic Alternatives in Byzantine Music lookup 0 subtable"  } ['salt' ('DFLT' <'dflt' > 'byzm' <'dflt' > ) ]
Lookup: 6 0 0 "'rclt' Required Contextual Alternates lookup 1" { "'rclt' Required Contextual Alternates lookup 1 subtable"  } ['rclt' ('DFLT' <'dflt' > 'byzm' <'dflt' > 'latn' <'dflt' > ) ]
Lookup: 6 256 0 "rclt-gorgon" { "rclt-gorgon-1"  } ['rclt' ('DFLT' <'dflt' > 'byzm' <'dflt' > 'latn' <'dflt' > ) ]
Lookup: 4 0 0 "'ccmp' Glyph Composition/Decomposition lookup 2" { "'ccmp' Glyph Composition/Decomposition lookup 2 subtable"  } ['ccmp' ('DFLT' <'dflt' > 'byzm' <'dflt' > 'latn' <'dflt' > ) ]
Lookup: 1 0 0 "Single Substitution lookup 3" { "Single Substitution lookup 3 subtable"  } []
Lookup: 1 0 0 "subs-gorgon" { "subs-gorgon-1"  } []
Lookup: 1 0 0 "subs-digorgon" { "subs-digorgon-1"  } []

StartChar: .notdef
Encoding: 1114112 -1 0
Width: 500
GlyphClass: 1
Flags: W
LayerCount: 2
Fore
SplineSet
50 0 m 1,0,-1
 50 533 l 1,1,-1
 450 533 l 1,2,-1
 450 0 l 1,3,-1
 50 0 l 1,0,-1
100 50 m 1,4,-1
 400 50 l 1,5,-1
 400 483 l 1,6,-1
 100 483 l 1,7,-1
 100 50 l 1,4,-1
EndSplineSet
EndChar

StartChar: ison
Encoding: 57344 57344 5
Width: 1367
GlyphClass: 2
Flags: W
HStem: 250 70.5<338.68 644.884> 256 108<777.651 1168.58> 423 114<194.005 265.064> 436 101<213.72 279.962>
VStem: 0 194<400 499.5>
AnchorPoint: "gorgonTop" 743 505 basechar 0
AnchorPoint: "apli" 760 30 basechar 0
AnchorPoint: "klasmaTop" 830 487 basechar 0
AnchorPoint: "yfesis" 1273 619 basechar 0
AnchorPoint: "diesis" 357 133 basechar 0
AnchorPoint: "psifiston" 797 113 basechar 0
AnchorPoint: "gorgonBottom" 670 125 basechar 0
AnchorPoint: "antikenoma" 777 165 basechar 0
AnchorPoint: "heteron" 984 207 basechar 0
AnchorPoint: "fthoraTop" 745 507 basechar 0
AnchorPoint: "fthoraBottom" 746 209 basechar 0
AnchorPoint: "noteTop" 271 676 basechar 0
AnchorPoint: "omalonConnecting" 1428 133 basechar 0
AnchorPoint: "omalon" 988 133 basechar 0
AnchorPoint: "heteronConnecting" 1657 -19 basechar 0
AnchorPoint: "measureNumber" 129 753 basechar 0
AnchorPoint: "isonIndicator" 749 913 basechar 0
AnchorPoint: "endofonon" 759 -62 basechar 0
AnchorPoint: "koronis" 740 801 basechar 0
AnchorPoint: "yfenAbove" 887 641 basechar 0
AnchorPoint: "yfenBelow" 886 -40 basechar 0
LayerCount: 2
Fore
SplineSet
88 534 m 0,0,1
 97 537 97 537 109 537 c 2,2,-1
 139 537 l 2,3,4
 194 537 194 537 250 523.5 c 128,-1,5
 306 510 306 510 365 481 c 1,6,-1
 444 423 l 1,7,8
 433 423 433 423 412 424.5 c 128,-1,9
 391 426 391 426 358 429 c 0,10,11
 327 432 327 432 303 433.5 c 128,-1,12
 279 435 279 435 266 436 c 0,13,14
 236 436 236 436 213 428 c 0,15,16
 194 420 194 420 194 404 c 0,17,18
 194 396 194 396 200 385 c 0,19,20
 208 371 208 371 212.5 361.5 c 128,-1,21
 217 352 217 352 223 350 c 0,22,23
 240 344 240 344 255 340.5 c 128,-1,24
 270 337 270 337 287 334 c 2,25,-1
 339 323 l 2,26,27
 348 321 348 321 365.5 320.5 c 128,-1,28
 383 320 383 320 409 320 c 0,29,30
 493 328 493 328 573 336 c 0,31,32
 653 343 653 343 730 350 c 0,33,34
 881 364 881 364 1051 364 c 0,35,36
 1164 364 1164 364 1330 269 c 1,37,-1
 1367 226 l 1,38,-1
 1344 231 l 1,39,-1
 1278 242 l 1,40,-1
 1178 251 l 2,41,42
 1086 261 1086 261 1005 261 c 1,43,-1
 956 258 l 2,44,45
 931 257 931 257 894.5 256 c 128,-1,46
 858 255 858 255 809 251 c 0,47,48
 790 250 790 250 759 250 c 2,49,-1
 684 250 l 2,50,51
 650 250 650 250 615 251 c 128,-1,52
 580 252 580 252 542 253 c 0,53,54
 467 256 467 256 373 267 c 0,55,56
 308 274 308 274 246 297 c 128,-1,57
 184 320 184 320 122 355 c 0,58,59
 0 422 0 422 0 479 c 0,60,61
 0 520 0 520 88 534 c 0,0,1
EndSplineSet
EndChar

StartChar: oligon
Encoding: 57345 57345 6
Width: 1356
GlyphClass: 2
Flags: W
HStem: 240 122<168.121 795.312> 248 116<513.835 981.224> 257 111<745.081 1155.72>
AnchorPoint: "gorgonTop" 707 500 basechar 0
AnchorPoint: "apli" 730 30 basechar 0
AnchorPoint: "klasmaTop" 720 487 basechar 0
AnchorPoint: "yfesis" 1243 619 basechar 0
AnchorPoint: "diesis" 327 133 basechar 0
AnchorPoint: "psifiston" 767 113 basechar 0
AnchorPoint: "gorgonBottom" 594 125 basechar 0
AnchorPoint: "antikenoma" 747 165 basechar 0
AnchorPoint: "heteron" 1014 227 basechar 0
AnchorPoint: "fthoraTop" 715 507 basechar 0
AnchorPoint: "fthoraBottom" 716 209 basechar 0
AnchorPoint: "noteTop" 241 676 basechar 0
AnchorPoint: "omalonConnecting" 1398 133 basechar 0
AnchorPoint: "omalon" 958 133 basechar 0
AnchorPoint: "heteronConnecting" 1619 -19 basechar 0
AnchorPoint: "measureNumber" 99 753 basechar 0
AnchorPoint: "isonIndicator" 719 913 basechar 0
AnchorPoint: "endofonon" 729 -62 basechar 0
AnchorPoint: "koronis" 613 801 basechar 0
AnchorPoint: "yfenAbove" 857 641 basechar 0
AnchorPoint: "yfenBelow" 856 -40 basechar 0
LayerCount: 2
Fore
SplineSet
147 265 m 0,0,1
 82 275 82 275 0 365 c 1,2,-1
 0 392 l 1,3,4
 36 379 36 379 75 371.5 c 128,-1,5
 114 364 114 364 157 362 c 0,6,7
 201 361 201 361 255 360 c 128,-1,8
 309 359 309 359 380 359 c 0,9,10
 475 359 475 359 700 364 c 256,11,12
 925 369 925 369 1042 368 c 0,13,14
 1149 368 1149 368 1317 270 c 1,15,16
 1326 257 1326 257 1336.5 247 c 128,-1,17
 1347 237 1347 237 1356 226 c 1,18,19
 1355 226 1355 226 1348.5 226 c 128,-1,20
 1342 226 1342 226 1331 229 c 0,21,22
 1301 233 1301 233 1285.5 237 c 128,-1,23
 1270 241 1270 241 1267 241 c 2,24,-1
 1178 249 l 2,25,26
 1137 252 1137 252 1098 254.5 c 128,-1,27
 1059 257 1059 257 1022 257 c 0,28,29
 967 257 967 257 784 248 c 256,30,31
 601 239 601 239 511 239 c 0,32,33
 464 239 464 239 418.5 240 c 128,-1,34
 373 241 373 241 328 245 c 0,35,36
 283 248 283 248 237.5 253 c 128,-1,37
 192 258 192 258 147 265 c 0,0,1
EndSplineSet
EndChar

StartChar: oligonKentimaMiddle
Encoding: 57346 57346 7
Width: 1734
GlyphClass: 3
Flags: W
HStem: 236.5 122.5<172.617 808.75> 254 111<768.424 1183.75> 389 17<1389 1409.16>
AnchorPoint: "gorgonTop" 645 459 basechar 0
AnchorPoint: "apli" 740 30 basechar 0
AnchorPoint: "klasmaTop" 730 487 basechar 0
AnchorPoint: "yfesis" 1253 619 basechar 0
AnchorPoint: "diesis" 337 133 basechar 0
AnchorPoint: "psifiston" 777 113 basechar 0
AnchorPoint: "gorgonBottom" 604 125 basechar 0
AnchorPoint: "antikenoma" 757 165 basechar 0
AnchorPoint: "heteron" 1024 227 basechar 0
AnchorPoint: "fthoraTop" 725 507 basechar 0
AnchorPoint: "fthoraBottom" 726 209 basechar 0
AnchorPoint: "noteTop" 251 676 basechar 0
AnchorPoint: "omalonConnecting" 1618 133 basechar 0
AnchorPoint: "omalon" 968 133 basechar 0
AnchorPoint: "heteronConnecting" 1907 -19 basechar 0
AnchorPoint: "measureNumber" 109 753 basechar 0
AnchorPoint: "isonIndicator" 729 913 basechar 0
AnchorPoint: "endofonon" 739 -62 basechar 0
AnchorPoint: "koronis" 720 801 basechar 0
AnchorPoint: "yfenAbove" 867 641 basechar 0
AnchorPoint: "yfenBelow" 866 -40 basechar 0
LayerCount: 2
Fore
SplineSet
151 262 m 0,0,1
 82 271 82 271 0 361 c 1,2,-1
 0 388 l 1,3,4
 38 375 38 375 77.5 367.5 c 128,-1,5
 117 360 117 360 161 359 c 0,6,7
 206 358 206 358 262 357 c 128,-1,8
 318 356 318 356 389 356 c 0,9,10
 486 356 486 356 717 360 c 0,11,12
 947 365 947 365 1067 365 c 0,13,14
 1177 365 1177 365 1349 266 c 1,15,16
 1359 254 1359 254 1368.5 244 c 128,-1,17
 1378 234 1378 234 1388 223 c 1,18,19
 1386 223 1386 223 1379 223 c 128,-1,20
 1372 223 1372 223 1362 226 c 0,21,22
 1332 231 1332 231 1316.5 234.5 c 128,-1,23
 1301 238 1301 238 1298 238 c 2,24,-1
 1207 246 l 2,25,26
 1164 249 1164 249 1124 251.5 c 128,-1,27
 1084 254 1084 254 1045 254 c 0,28,29
 988 254 988 254 803 244 c 0,30,31
 614 234 614 234 523 235 c 0,32,33
 474 235 474 235 428 236.5 c 128,-1,34
 382 238 382 238 336 241 c 0,35,36
 291 244 291 244 244 249 c 128,-1,37
 197 254 197 254 151 262 c 0,0,1
1389 406 m 1,38,-1
 1446 409 l 2,39,40
 1464 410 1464 410 1477 410 c 0,41,42
 1489 411 1489 411 1499 411 c 0,43,44
 1583 413 1583 413 1628 325 c 0,45,46
 1654 274 1654 274 1672 259 c 0,47,48
 1687 246 1687 246 1711 249 c 0,49,50
 1734 250 1734 250 1734 248 c 0,51,52
 1734 245 1734 245 1733.5 243.5 c 128,-1,53
 1733 242 1733 242 1730 238 c 0,54,55
 1716 221 1716 221 1674 215 c 0,56,57
 1625 208 1625 208 1554 219 c 128,-1,58
 1483 230 1483 230 1430 346 c 0,59,60
 1408 395 1408 395 1388 389 c 1,61,-1
 1389 406 l 1,38,-1
EndSplineSet
Ligature2: "'ccmp' Glyph Composition/Decomposition lookup 2 subtable" oligon kentima
EndChar

StartChar: oligonKentimaBelow
Encoding: 57347 57347 8
Width: 1356
GlyphClass: 2
Flags: W
HStem: 147 16<881 896.572> 242 115<142.921 790.656> 255 111<726.537 1157.08>
AnchorPoint: "gorgonTop" 698 500 basechar 0
AnchorPoint: "apli" 681 -180 basechar 0
AnchorPoint: "klasmaTop" 711 487 basechar 0
AnchorPoint: "yfesis" 1234 619 basechar 0
AnchorPoint: "diesis" 318 133 basechar 0
AnchorPoint: "psifiston" 758 60 basechar 0
AnchorPoint: "gorgonBottom" 368 125 basechar 0
AnchorPoint: "antikenoma" 738 -55 basechar 0
AnchorPoint: "heteron" 945 -33 basechar 0
AnchorPoint: "fthoraTop" 706 507 basechar 0
AnchorPoint: "fthoraBottom" 338 107 basechar 0
AnchorPoint: "noteTop" 232 676 basechar 0
AnchorPoint: "omalonConnecting" 1391 -53 basechar 0
AnchorPoint: "omalon" 951 -67 basechar 0
AnchorPoint: "heteronConnecting" 1610 -51 basechar 0
AnchorPoint: "measureNumber" 90 753 basechar 0
AnchorPoint: "isonIndicator" 710 913 basechar 0
AnchorPoint: "endofonon" 720 -62 basechar 0
AnchorPoint: "koronis" 701 801 basechar 0
AnchorPoint: "yfenAbove" 848 641 basechar 0
AnchorPoint: "yfenBelow" 847 -200 basechar 0
LayerCount: 2
Fore
SplineSet
880 163 m 1,0,1
 886 164 886 164 895.5 166 c 128,-1,2
 905 168 905 168 920 169 c 0,3,4
 933 170 933 170 942 172.5 c 128,-1,5
 951 175 951 175 958 176 c 0,6,7
 1019 183 1019 183 1057 108 c 0,8,9
 1068 87 1068 87 1076.5 73 c 128,-1,10
 1085 59 1085 59 1092 53 c 0,11,12
 1104 43 1104 43 1122 47 c 0,13,14
 1125 47 1125 47 1128 48 c 128,-1,15
 1131 49 1131 49 1135 49 c 2,16,-1
 1138 49 l 1,17,18
 1138 41 1138 41 1136 39 c 0,19,20
 1127 23 1127 23 1099 14 c 0,21,22
 1082 9 1082 9 1061 7 c 128,-1,23
 1040 5 1040 5 1013 8 c 0,24,25
 962 13 962 13 915 111 c 0,26,27
 893 152 893 152 881 147 c 1,28,-1
 880 163 l 1,0,1
147 263 m 0,29,30
 82 273 82 273 0 363 c 1,31,-1
 0 389 l 1,32,33
 36 377 36 377 75 369 c 128,-1,34
 114 361 114 361 158 360 c 0,35,36
 202 358 202 358 256 357.5 c 128,-1,37
 310 357 310 357 380 357 c 0,38,39
 475 357 475 357 700 362 c 0,40,41
 925 366 925 366 1043 366 c 0,42,43
 1150 366 1150 366 1317 268 c 1,44,45
 1326 255 1326 255 1336.5 245 c 128,-1,46
 1347 235 1347 235 1356 224 c 1,47,48
 1355 224 1355 224 1348.5 224 c 128,-1,49
 1342 224 1342 224 1332 227 c 0,50,51
 1302 232 1302 232 1286.5 236 c 128,-1,52
 1271 240 1271 240 1267 240 c 2,53,-1
 1178 247 l 2,54,55
 1137 250 1137 250 1098.5 252.5 c 128,-1,56
 1060 255 1060 255 1022 255 c 0,57,58
 967 255 967 255 785 246 c 0,59,60
 602 237 602 237 511 237 c 0,61,62
 464 237 464 237 419 238.5 c 128,-1,63
 374 240 374 240 328 242 c 0,64,65
 283 245 283 245 237.5 250.5 c 128,-1,66
 192 256 192 256 147 263 c 0,29,30
EndSplineSet
EndChar

StartChar: oligonKentimaAbove
Encoding: 57348 57348 9
Width: 1356
GlyphClass: 2
Flags: W
HStem: 243 125<180.82 801.783> 253 115<513.866 981.224> 262 111<726.537 1156.06> 687 17<550 566>
AnchorPoint: "gorgonTop" 1052 500 basechar 0
AnchorPoint: "apli" 717 30 basechar 0
AnchorPoint: "klasmaBottom" 699 160 basechar 0
AnchorPoint: "klasmaTop" 297 487 basechar 0
AnchorPoint: "yfesis" 1230 619 basechar 0
AnchorPoint: "diesis" 314 133 basechar 0
AnchorPoint: "psifiston" 754 113 basechar 0
AnchorPoint: "gorgonBottom" 581 125 basechar 0
AnchorPoint: "antikenoma" 734 165 basechar 0
AnchorPoint: "heteron" 1001 227 basechar 0
AnchorPoint: "fthoraTop" 1167 440 basechar 0
AnchorPoint: "fthoraBottom" 703 209 basechar 0
AnchorPoint: "noteTop" 228 676 basechar 0
AnchorPoint: "omalonConnecting" 1385 133 basechar 0
AnchorPoint: "omalon" 945 133 basechar 0
AnchorPoint: "heteronConnecting" 1606 -19 basechar 0
AnchorPoint: "measureNumber" 86 753 basechar 0
AnchorPoint: "isonIndicator" 706 913 basechar 0
AnchorPoint: "endofonon" 716 -62 basechar 0
AnchorPoint: "koronis" 697 891 basechar 0
AnchorPoint: "yfenAbove" 844 911 basechar 0
AnchorPoint: "yfenBelow" 843 -40 basechar 0
LayerCount: 2
Fore
SplineSet
147 270 m 0,0,1
 82 280 82 280 0 370 c 1,2,-1
 0 396 l 1,3,4
 36 383 36 383 75 375.5 c 128,-1,5
 114 368 114 368 158 367 c 256,6,7
 202 366 202 366 256 365 c 128,-1,8
 310 364 310 364 380 364 c 0,9,10
 475 364 475 364 700 368 c 0,11,12
 925 373 925 373 1042 373 c 0,13,14
 1149 373 1149 373 1317 274 c 1,15,16
 1326 262 1326 262 1336.5 252 c 128,-1,17
 1347 242 1347 242 1356 231 c 1,18,19
 1355 231 1355 231 1348.5 231 c 128,-1,20
 1342 231 1342 231 1331 234 c 0,21,22
 1301 239 1301 239 1285.5 242.5 c 128,-1,23
 1270 246 1270 246 1267 246 c 2,24,-1
 1178 254 l 2,25,26
 1137 257 1137 257 1098.5 259.5 c 128,-1,27
 1060 262 1060 262 1022 262 c 0,28,29
 967 262 967 262 785 253 c 0,30,31
 602 243 602 243 511 243 c 0,32,33
 464 243 464 243 418.5 244.5 c 128,-1,34
 373 246 373 246 328 249 c 256,35,36
 283 252 283 252 237.5 257.5 c 128,-1,37
 192 263 192 263 147 270 c 0,0,1
550 704 m 1,38,-1
 595 709 l 1,39,-1
 638 712 l 2,40,41
 706 717 706 717 742 631 c 0,42,43
 764 580 764 580 778 567 c 0,44,45
 791 555 791 555 810 557 c 0,46,47
 829 560 829 560 828 557 c 0,48,49
 828 554 828 554 825 548 c 0,50,51
 814 530 814 530 781 523 c 0,52,53
 742 514 742 514 686 523 c 256,54,55
 630 532 630 532 584 645 c 0,56,57
 565 692 565 692 550 687 c 1,58,-1
 550 704 l 1,38,-1
EndSplineSet
EndChar

StartChar: oligonYpsiliRight
Encoding: 57349 57349 10
Width: 1570
GlyphClass: 2
Flags: W
HStem: 242 120<226.529 910.352> 261 110<703.525 1157.21> 562 10<928.408 932.906> 569 29<1108.41 1165.66>
AnchorPoint: "gorgonTop" 610 500 basechar 0
AnchorPoint: "apli" 705 30 basechar 0
AnchorPoint: "klasmaBottom" 687 160 basechar 0
AnchorPoint: "klasmaTop" 500 487 basechar 0
AnchorPoint: "yfesis" 1212 1040 basechar 0
AnchorPoint: "diesis" 302 133 basechar 0
AnchorPoint: "psifiston" 742 113 basechar 0
AnchorPoint: "gorgonBottom" 569 125 basechar 0
AnchorPoint: "antikenoma" 722 165 basechar 0
AnchorPoint: "heteron" 989 227 basechar 0
AnchorPoint: "fthoraTop" 459 489 basechar 0
AnchorPoint: "fthoraBottom" 691 209 basechar 0
AnchorPoint: "noteTop" 216 676 basechar 0
AnchorPoint: "omalonConnecting" 1373 133 basechar 0
AnchorPoint: "omalon" 933 133 basechar 0
AnchorPoint: "heteronConnecting" 1594 -19 basechar 0
AnchorPoint: "measureNumber" 74 753 basechar 0
AnchorPoint: "isonIndicator" 694 1030 basechar 0
AnchorPoint: "endofonon" 704 -62 basechar 0
AnchorPoint: "koronis" 685 801 basechar 0
AnchorPoint: "yfenAbove" 832 1203 basechar 0
AnchorPoint: "yfenBelow" 831 -40 basechar 0
LayerCount: 2
Fore
SplineSet
158 365 m 0,0,1
 220 363 220 363 281.5 362.5 c 128,-1,2
 343 362 343 362 406 362 c 0,3,4
 504 362 504 362 700 367 c 0,5,6
 813 369 813 369 898.5 370 c 128,-1,7
 984 371 984 371 1043 371 c 0,8,9
 1151 371 1151 371 1318 273 c 1,10,11
 1327 261 1327 261 1337 250.5 c 128,-1,12
 1347 240 1347 240 1357 229 c 1,13,14
 1350 229 1350 229 1344 229.5 c 128,-1,15
 1338 230 1338 230 1332 232 c 0,16,17
 1302 237 1302 237 1286.5 241 c 128,-1,18
 1271 245 1271 245 1268 245 c 2,19,-1
 1178 253 l 2,20,21
 1137 256 1137 256 1098.5 258.5 c 128,-1,22
 1060 261 1060 261 1022 261 c 0,23,24
 994 261 994 261 935.5 258.5 c 128,-1,25
 877 256 877 256 785 251 c 256,26,27
 693 246 693 246 625 244 c 128,-1,28
 557 242 557 242 511 242 c 0,29,30
 419 242 419 242 328.5 248 c 128,-1,31
 238 254 238 254 147 268 c 0,32,33
 81 278 81 278 0 368 c 1,34,-1
 0 395 l 1,35,36
 37 382 37 382 75.5 374 c 128,-1,37
 114 366 114 366 158 365 c 0,0,1
933 573 m 0,38,39
 934 574 934 574 933 575.5 c 128,-1,40
 932 577 932 577 931 579.5 c 128,-1,41
 930 582 930 582 930 584 c 128,-1,42
 930 586 930 586 933 587 c 0,43,44
 980 604 980 604 1020.5 617.5 c 128,-1,45
 1061 631 1061 631 1095 642 c 128,-1,46
 1129 653 1129 653 1156 663.5 c 128,-1,47
 1183 674 1183 674 1203 684 c 0,48,49
 1284 726 1284 726 1328 798 c 0,50,51
 1335 810 1335 810 1342.5 827.5 c 128,-1,52
 1350 845 1350 845 1358.5 868.5 c 128,-1,53
 1367 892 1367 892 1378.5 921 c 128,-1,54
 1390 950 1390 950 1406 986 c 0,55,56
 1407 989 1407 989 1411 990 c 128,-1,57
 1415 991 1415 991 1419 991.5 c 128,-1,58
 1423 992 1423 992 1427.5 993 c 128,-1,59
 1432 994 1432 994 1436 996 c 0,60,61
 1449 1004 1449 1004 1456.5 1008.5 c 128,-1,62
 1464 1013 1464 1013 1467 1014 c 0,63,64
 1480 1020 1480 1020 1488.5 1022.5 c 128,-1,65
 1497 1025 1497 1025 1500 1026 c 2,66,-1
 1513 1026 l 2,67,68
 1518 1026 1518 1026 1523.5 1025.5 c 128,-1,69
 1529 1025 1529 1025 1535 1023 c 0,70,71
 1539 1022 1539 1022 1543.5 1021.5 c 128,-1,72
 1548 1021 1548 1021 1552.5 1020 c 128,-1,73
 1557 1019 1557 1019 1562 1017.5 c 128,-1,74
 1567 1016 1567 1016 1570 1012 c 0,75,76
 1571 1011 1571 1011 1570 1009.5 c 128,-1,77
 1569 1008 1569 1008 1567 1006.5 c 128,-1,78
 1565 1005 1565 1005 1561.5 1004 c 128,-1,79
 1558 1003 1558 1003 1557 1001 c 0,80,81
 1519 975 1519 975 1516 969 c 0,82,83
 1508 936 1508 936 1501 911 c 128,-1,84
 1494 886 1494 886 1486 867 c 0,85,86
 1484 861 1484 861 1479 852.5 c 128,-1,87
 1474 844 1474 844 1468 834.5 c 128,-1,88
 1462 825 1462 825 1456.5 816.5 c 128,-1,89
 1451 808 1451 808 1447 803 c 1,90,91
 1449 804 1449 804 1450 804 c 256,92,93
 1451 804 1451 804 1447 800 c 0,94,95
 1444 797 1444 797 1444 796 c 1,96,97
 1444 796 1444 796 1447 803 c 1,98,99
 1443 801 1443 801 1433 793.5 c 128,-1,100
 1423 786 1423 786 1409 776 c 128,-1,101
 1395 766 1395 766 1379 754 c 128,-1,102
 1363 742 1363 742 1347 729 c 0,103,104
 1332 717 1332 717 1319.5 707 c 128,-1,105
 1307 697 1307 697 1296 688 c 0,106,107
 1274 670 1274 670 1266 661 c 0,108,109
 1264 658 1264 658 1263 658 c 1,110,111
 1275 663 1275 663 1282 667 c 0,112,113
 1287 670 1287 670 1288 670 c 1,114,115
 1287 670 1287 670 1286 668 c 0,116,117
 1284 667 1284 667 1278 664 c 0,118,119
 1263 656 1263 656 1263 658 c 1,120,121
 1250 652 1250 652 1234 644.5 c 128,-1,122
 1218 637 1218 637 1201.5 630 c 128,-1,123
 1185 623 1185 623 1168.5 618 c 128,-1,124
 1152 613 1152 613 1139 611 c 0,125,126
 1131 610 1131 610 1117.5 609 c 128,-1,127
 1104 608 1104 608 1092 608 c 128,-1,128
 1080 608 1080 608 1074 607 c 128,-1,129
 1068 606 1068 606 1075 603 c 0,130,131
 1083 600 1083 600 1091.5 599 c 128,-1,132
 1100 598 1100 598 1108 598 c 0,133,134
 1121 598 1121 598 1133.5 599 c 128,-1,135
 1146 600 1146 600 1159 600 c 0,136,137
 1184 600 1184 600 1207.5 592.5 c 128,-1,138
 1231 585 1231 585 1250 570 c 0,139,140
 1269 556 1269 556 1269 551 c 0,141,142
 1272 543 1272 543 1258 543 c 0,143,144
 1245 543 1245 543 1233.5 544.5 c 128,-1,145
 1222 546 1222 546 1210 548 c 0,146,147
 1193 551 1193 551 1170 554 c 128,-1,148
 1147 557 1147 557 1121 561 c 0,149,150
 1094 565 1094 565 1071.5 567 c 128,-1,151
 1049 569 1049 569 1027 569 c 0,152,153
 1020 569 1020 569 1013.5 569.5 c 128,-1,154
 1007 570 1007 570 1001 570 c 0,155,156
 988 570 988 570 977.5 569 c 128,-1,157
 967 568 967 568 955 567 c 0,158,159
 952 566 952 566 947.5 564 c 128,-1,160
 943 562 943 562 935 562 c 0,161,162
 930 562 930 562 927 570 c 0,163,164
 927 571 927 571 928 572 c 0,165,166
 930 572 930 572 933 573 c 0,38,39
EndSplineSet
EndChar

StartChar: oligonYpsiliLeft
Encoding: 57350 57350 11
Width: 1357
GlyphClass: 2
Flags: W
HStem: 240 123<223.692 912.385> 258 112<703.555 1155.97> 568 9<71.6426 75.9067> 574 30<253.375 316.803>
AnchorPoint: "gorgonTop" 1001 500 basechar 0
AnchorPoint: "apli" 702 30 basechar 0
AnchorPoint: "klasmaBottom" 684 160 basechar 0
AnchorPoint: "klasmaTop" 879 487 basechar 0
AnchorPoint: "yfesis" 1215 619 basechar 0
AnchorPoint: "diesis" 299 133 basechar 0
AnchorPoint: "psifiston" 739 113 basechar 0
AnchorPoint: "gorgonBottom" 566 125 basechar 0
AnchorPoint: "antikenoma" 719 165 basechar 0
AnchorPoint: "heteron" 986 227 basechar 0
AnchorPoint: "fthoraTop" 899 501 basechar 0
AnchorPoint: "fthoraBottom" 688 209 basechar 0
AnchorPoint: "noteTop" 87 750 basechar 0
AnchorPoint: "omalonConnecting" 1370 133 basechar 0
AnchorPoint: "omalon" 930 133 basechar 0
AnchorPoint: "heteronConnecting" 1591 -19 basechar 0
AnchorPoint: "measureNumber" 112 827 basechar 0
AnchorPoint: "isonIndicator" 1021 1033 basechar 0
AnchorPoint: "endofonon" 701 -62 basechar 0
AnchorPoint: "koronis" 850 855 basechar 0
AnchorPoint: "yfenAbove" 829 1285 basechar 0
AnchorPoint: "yfenBelow" 828 -40 basechar 0
LayerCount: 2
Fore
SplineSet
0 366 m 1,0,-1
 0 393 l 1,1,2
 37 380 37 380 75 372.5 c 128,-1,3
 113 365 113 365 158 363 c 0,4,5
 202 362 202 362 255.5 361 c 128,-1,6
 309 360 309 360 380 360 c 0,7,8
 428 360 428 360 507.5 361 c 128,-1,9
 587 362 587 362 700 365 c 0,10,11
 814 367 814 367 898.5 368.5 c 128,-1,12
 983 370 983 370 1043 370 c 0,13,14
 1150 370 1150 370 1317 271 c 1,15,16
 1326 258 1326 258 1336.5 248 c 128,-1,17
 1347 238 1347 238 1357 227 c 1,18,19
 1343 227 1343 227 1332 231 c 0,20,21
 1302 235 1302 235 1286.5 239 c 128,-1,22
 1271 243 1271 243 1267 243 c 2,23,-1
 1178 251 l 2,24,25
 1136 254 1136 254 1098 256 c 128,-1,26
 1060 258 1060 258 1022 258 c 0,27,28
 994 258 994 258 935.5 256 c 128,-1,29
 877 254 877 254 785 249 c 0,30,31
 692 244 692 244 624.5 242 c 128,-1,32
 557 240 557 240 511 240 c 0,33,34
 419 240 419 240 328.5 246 c 128,-1,35
 238 252 238 252 147 266 c 0,36,37
 81 276 81 276 0 366 c 1,0,-1
70 576 m 0,38,39
 70 577 70 577 72 577 c 0,40,41
 73 577 73 577 76 579 c 0,42,43
 78 580 78 580 74 586 c 0,44,45
 70 591 70 591 76 593 c 0,46,47
 123 610 123 610 163.5 623 c 128,-1,48
 204 636 204 636 238 647.5 c 128,-1,49
 272 659 272 659 299 669 c 128,-1,50
 326 679 326 679 347 690 c 0,51,52
 427 732 427 732 472 804 c 0,53,54
 479 816 479 816 486.5 833.5 c 128,-1,55
 494 851 494 851 502.5 874.5 c 128,-1,56
 511 898 511 898 522.5 927 c 128,-1,57
 534 956 534 956 550 991 c 0,58,59
 551 994 551 994 554.5 995.5 c 128,-1,60
 558 997 558 997 562 997.5 c 128,-1,61
 566 998 566 998 571 999 c 128,-1,62
 576 1000 576 1000 580 1002 c 0,63,64
 592 1009 592 1009 600 1013.5 c 128,-1,65
 608 1018 608 1018 611 1019 c 0,66,67
 624 1025 624 1025 632.5 1027.5 c 128,-1,68
 641 1030 641 1030 644 1032 c 2,69,-1
 657 1032 l 2,70,71
 662 1032 662 1032 667 1031.5 c 128,-1,72
 672 1031 672 1031 678 1029 c 0,73,74
 682 1028 682 1028 686.5 1027.5 c 128,-1,75
 691 1027 691 1027 696 1026 c 128,-1,76
 701 1025 701 1025 705.5 1023.5 c 128,-1,77
 710 1022 710 1022 714 1018 c 0,78,79
 715 1017 715 1017 714 1015 c 128,-1,80
 713 1013 713 1013 710.5 1012 c 128,-1,81
 708 1011 708 1011 705 1009.5 c 128,-1,82
 702 1008 702 1008 700 1007 c 0,83,84
 663 981 663 981 659 974 c 0,85,86
 651 940 651 940 644 916 c 128,-1,87
 637 892 637 892 629 873 c 0,88,89
 627 867 627 867 622.5 858.5 c 128,-1,90
 618 850 618 850 612 841 c 128,-1,91
 606 832 606 832 600.5 823.5 c 128,-1,92
 595 815 595 815 591 809 c 1,93,94
 591 809 591 809 593 810 c 0,95,96
 595 810 595 810 590 805 c 0,97,98
 587 802 587 802 587 802 c 257,99,100
 587 802 587 802 591 809 c 1,101,102
 587 807 587 807 577 800.5 c 128,-1,103
 567 794 567 794 553 783.5 c 128,-1,104
 539 773 539 773 523 760.5 c 128,-1,105
 507 748 507 748 491 735 c 0,106,107
 475 723 475 723 462.5 712.5 c 128,-1,108
 450 702 450 702 439 694 c 0,109,110
 428 685 428 685 420.5 678 c 128,-1,111
 413 671 413 671 409 667 c 0,112,113
 409 666 409 666 407 665 c 2,114,115
 407 665 407 665 407 664 c 1,116,117
 413 666 413 666 417.5 668.5 c 128,-1,118
 422 671 422 671 426 673 c 0,119,120
 431 676 431 676 432 675 c 1,121,122
 432 675 432 675 429 674 c 0,123,124
 428 673 428 673 424.5 671 c 128,-1,125
 421 669 421 669 418 667.5 c 128,-1,126
 415 666 415 666 412 664.5 c 128,-1,127
 409 663 409 663 408 663 c 256,128,129
 407 663 407 663 407 664 c 1,130,131
 395 658 395 658 379 650.5 c 128,-1,132
 363 643 363 643 346 636.5 c 128,-1,133
 329 630 329 630 312.5 624.5 c 128,-1,134
 296 619 296 619 283 616 c 0,135,136
 274 615 274 615 260.5 614.5 c 128,-1,137
 247 614 247 614 235 613.5 c 128,-1,138
 223 613 223 613 217 612.5 c 128,-1,139
 211 612 211 612 219 609 c 256,140,141
 227 606 227 606 235.5 605 c 128,-1,142
 244 604 244 604 253 604 c 0,143,144
 265 604 265 604 277 605 c 128,-1,145
 289 606 289 606 302 606 c 0,146,147
 305 606 305 606 308 606 c 128,-1,148
 311 606 311 606 314 605 c 0,149,150
 359 602 359 602 394 576 c 0,151,152
 413 562 413 562 412 557 c 0,153,154
 415 549 415 549 401 549 c 0,155,156
 388 549 388 549 377 550 c 128,-1,157
 366 551 366 551 353 554 c 0,158,159
 336 557 336 557 313.5 559.5 c 128,-1,160
 291 562 291 562 264 566 c 0,161,162
 238 570 238 570 215 572 c 128,-1,163
 192 574 192 574 170 574 c 0,164,165
 166 575 166 575 162 575 c 128,-1,166
 158 575 158 575 154 575 c 0,167,168
 140 575 140 575 126 574.5 c 128,-1,169
 112 574 112 574 98 572 c 0,170,171
 95 571 95 571 90.5 569.5 c 128,-1,172
 86 568 86 568 78 568 c 0,173,174
 73 568 73 568 70 576 c 0,38,39
EndSplineSet
EndChar

StartChar: oligonKentimaYpsiliRight
Encoding: 57351 57351 12
Width: 1380
GlyphClass: 2
Flags: W
HStem: 244 123<223.692 895.852> 264 110<703.555 1155.72> 522 10<738.408 743> 528 30<885.25 979.995> 738 20<277.097 316.609>
AnchorPoint: "gorgonTop" 645 839 basechar 0
AnchorPoint: "apli" 740 30 basechar 0
AnchorPoint: "klasmaBottom" 722 160 basechar 0
AnchorPoint: "klasmaTop" 137 487 basechar 0
AnchorPoint: "yfesis" 1253 619 basechar 0
AnchorPoint: "diesis" 337 133 basechar 0
AnchorPoint: "psifiston" 777 113 basechar 0
AnchorPoint: "gorgonBottom" 604 125 basechar 0
AnchorPoint: "antikenoma" 757 165 basechar 0
AnchorPoint: "heteron" 1024 227 basechar 0
AnchorPoint: "fthoraTop" 407 950 basechar 0
AnchorPoint: "fthoraBottom" 726 209 basechar 0
AnchorPoint: "noteTop" 251 676 basechar 0
AnchorPoint: "omalonConnecting" 1408 133 basechar 0
AnchorPoint: "omalon" 968 133 basechar 0
AnchorPoint: "heteronConnecting" 1629 -19 basechar 0
AnchorPoint: "measureNumber" 109 753 basechar 0
AnchorPoint: "isonIndicator" 729 1143 basechar 0
AnchorPoint: "endofonon" 739 -62 basechar 0
AnchorPoint: "koronis" 720 911 basechar 0
AnchorPoint: "yfenAbove" 867 1202 basechar 0
AnchorPoint: "yfenBelow" 866 -40 basechar 0
LayerCount: 2
Fore
SplineSet
158 368 m 0,0,1
 202 368 202 368 255.5 367 c 128,-1,2
 309 366 309 366 380 366 c 0,3,4
 428 366 428 366 507 367 c 128,-1,5
 586 368 586 368 700 370 c 256,6,7
 814 372 814 372 898.5 373 c 128,-1,8
 983 374 983 374 1042 374 c 0,9,10
 1149 374 1149 374 1317 276 c 1,11,12
 1326 264 1326 264 1336.5 254 c 128,-1,13
 1347 244 1347 244 1356 232 c 1,14,15
 1342 232 1342 232 1332 236 c 0,16,17
 1302 240 1302 240 1286 244 c 128,-1,18
 1270 248 1270 248 1267 248 c 2,19,-1
 1178 256 l 2,20,21
 1136 258 1136 258 1098 261 c 128,-1,22
 1060 264 1060 264 1022 264 c 0,23,24
 994 264 994 264 935.5 262 c 128,-1,25
 877 260 877 260 785 254 c 0,26,27
 692 250 692 250 624.5 247 c 128,-1,28
 557 244 557 244 511 244 c 0,29,30
 419 244 419 244 328.5 250 c 128,-1,31
 238 256 238 256 147 272 c 0,32,33
 81 282 81 282 0 372 c 1,34,-1
 0 398 l 1,35,36
 37 386 37 386 75.5 378 c 128,-1,37
 114 370 114 370 158 368 c 0,0,1
745 522 m 0,38,39
 740 522 740 522 737 530 c 1,40,41
 737 530 737 530 738 532 c 0,42,43
 739 532 739 532 743 532 c 0,44,45
 745 534 745 534 741 540 c 0,46,47
 737 544 737 544 743 546 c 0,48,49
 790 564 790 564 830 577 c 128,-1,50
 870 590 870 590 904 601 c 128,-1,51
 938 612 938 612 965.5 622 c 128,-1,52
 993 632 993 632 1013 644 c 0,53,54
 1093 684 1093 684 1138 758 c 0,55,56
 1145 770 1145 770 1152.5 787 c 128,-1,57
 1160 804 1160 804 1169 828 c 128,-1,58
 1178 852 1178 852 1189.5 881 c 128,-1,59
 1201 910 1201 910 1216 946 c 0,60,61
 1217 948 1217 948 1221 949 c 128,-1,62
 1225 950 1225 950 1229 951 c 128,-1,63
 1233 952 1233 952 1237.5 953 c 128,-1,64
 1242 954 1242 954 1246 956 c 0,65,66
 1258 962 1258 962 1266 967 c 128,-1,67
 1274 972 1274 972 1277 972 c 0,68,69
 1290 978 1290 978 1298.5 981 c 128,-1,70
 1307 984 1307 984 1310 986 c 2,71,-1
 1323 986 l 2,72,73
 1328 986 1328 986 1333.5 985 c 128,-1,74
 1339 984 1339 984 1344 982 c 0,75,76
 1348 982 1348 982 1352.5 981 c 128,-1,77
 1357 980 1357 980 1362 979 c 128,-1,78
 1367 978 1367 978 1371.5 977 c 128,-1,79
 1376 976 1376 976 1380 972 c 0,80,81
 1381 970 1381 970 1380 969 c 128,-1,82
 1379 968 1379 968 1376.5 966 c 128,-1,83
 1374 964 1374 964 1371 963 c 128,-1,84
 1368 962 1368 962 1366 960 c 0,85,86
 1329 934 1329 934 1326 928 c 0,87,88
 1318 894 1318 894 1310.5 870 c 128,-1,89
 1303 846 1303 846 1296 826 c 0,90,91
 1294 820 1294 820 1289 812 c 128,-1,92
 1284 804 1284 804 1278 795 c 128,-1,93
 1272 786 1272 786 1266.5 777 c 128,-1,94
 1261 768 1261 768 1257 764 c 1,95,96
 1257 764 1257 764 1259 764 c 256,97,98
 1261 764 1261 764 1257 760 c 0,99,100
 1254 756 1254 756 1253 756 c 1,101,102
 1253 756 1253 756 1257 764 c 1,103,104
 1253 762 1253 762 1243 755 c 128,-1,105
 1233 748 1233 748 1219.5 737 c 128,-1,106
 1206 726 1206 726 1189.5 714 c 128,-1,107
 1173 702 1173 702 1157 688 c 0,108,109
 1141 676 1141 676 1128.5 666 c 128,-1,110
 1116 656 1116 656 1105 648 c 0,111,112
 1094 638 1094 638 1087 631 c 128,-1,113
 1080 624 1080 624 1076 620 c 2,114,115
 1076 620 1076 620 1074 618 c 2,116,117
 1074 618 1074 618 1073 618 c 1,118,119
 1079 620 1079 620 1083.5 622 c 128,-1,120
 1088 624 1088 624 1092 626 c 0,121,122
 1097 630 1097 630 1098 630 c 1,123,124
 1098 630 1098 630 1096 628 c 0,125,126
 1095 626 1095 626 1091.5 624 c 128,-1,127
 1088 622 1088 622 1085 621 c 128,-1,128
 1082 620 1082 620 1079 619 c 128,-1,129
 1076 618 1076 618 1074 618 c 0,130,131
 1073 618 1073 618 1073 618 c 1,132,133
 1061 612 1061 612 1045 605 c 128,-1,134
 1029 598 1029 598 1012.5 591 c 128,-1,135
 996 584 996 584 979 578 c 128,-1,136
 962 572 962 572 949 570 c 0,137,138
 940 570 940 570 926.5 569 c 128,-1,139
 913 568 913 568 901.5 568 c 128,-1,140
 890 568 890 568 884 567 c 128,-1,141
 878 566 878 566 885 562 c 0,142,143
 893 560 893 560 902 559 c 128,-1,144
 911 558 911 558 919 558 c 0,145,146
 931 558 931 558 943.5 559 c 128,-1,147
 956 560 956 560 968 560 c 0,148,149
 971 560 971 560 974.5 560 c 128,-1,150
 978 560 978 560 980 558 c 0,151,152
 1025 556 1025 556 1060 530 c 0,153,154
 1079 516 1079 516 1079 510 c 0,155,156
 1082 502 1082 502 1068 502 c 0,157,158
 1055 502 1055 502 1043.5 504 c 128,-1,159
 1032 506 1032 506 1020 508 c 0,160,161
 1003 510 1003 510 980 513 c 128,-1,162
 957 516 957 516 930 520 c 0,163,164
 904 524 904 524 881 526 c 128,-1,165
 858 528 858 528 836 528 c 0,166,167
 832 528 832 528 828 528 c 128,-1,168
 824 528 824 528 820 528 c 0,169,170
 806 528 806 528 792.5 528 c 128,-1,171
 779 528 779 528 765 526 c 0,172,173
 762 526 762 526 757.5 524 c 128,-1,174
 753 522 753 522 745 522 c 0,38,39
277 754 m 0,175,176
 280 758 280 758 297 758 c 0,177,178
 313 758 313 758 328 757 c 128,-1,179
 343 756 343 756 359 754 c 2,180,-1
 406 746 l 2,181,182
 481 734 481 734 499 634 c 0,183,184
 510 572 510 572 524 556 c 256,185,186
 538 540 538 540 556 536 c 0,187,188
 577 534 577 534 576 534 c 1,189,190
 576 530 576 530 570 522 c 0,191,192
 554 506 554 506 517 508 c 0,193,194
 495 508 495 508 469.5 513 c 128,-1,195
 444 518 444 518 412 530 c 0,196,197
 355 550 355 550 333 682 c 0,198,199
 324 738 324 738 298 738 c 2,200,-1
 282 738 l 2,201,202
 273 738 273 738 271 740 c 0,203,204
 268 742 268 742 277 754 c 0,175,176
EndSplineSet
EndChar

StartChar: oligonKentimaYpsiliMiddle
Encoding: 57352 57352 13
Width: 1356
GlyphClass: 2
Flags: W
HStem: 244 120<226.705 909.352> 263 110<703.555 1155.72> 822 9<423.646 430.406> 828 24<431.249 450.937 451.188 481.576> 1245 14<1062.39 1080.19>
AnchorPoint: "gorgonTop" 1034 500 basechar 0
AnchorPoint: "apli" 699 30 basechar 0
AnchorPoint: "klasmaBottom" 681 160 basechar 0
AnchorPoint: "klasmaTop" 249 487 basechar 0
AnchorPoint: "yfesis" 1212 619 basechar 0
AnchorPoint: "diesis" 296 133 basechar 0
AnchorPoint: "psifiston" 736 113 basechar 0
AnchorPoint: "gorgonBottom" 563 125 basechar 0
AnchorPoint: "antikenoma" 716 165 basechar 0
AnchorPoint: "heteron" 983 227 basechar 0
AnchorPoint: "fthoraTop" 1296 447 basechar 0
AnchorPoint: "fthoraBottom" 685 209 basechar 0
AnchorPoint: "noteTop" 210 676 basechar 0
AnchorPoint: "omalonConnecting" 1367 133 basechar 0
AnchorPoint: "omalon" 927 133 basechar 0
AnchorPoint: "heteronConnecting" 1588 -19 basechar 0
AnchorPoint: "measureNumber" 68 753 basechar 0
AnchorPoint: "isonIndicator" 688 1386 basechar 0
AnchorPoint: "koronis" 171 835 basechar 0
AnchorPoint: "yfenAbove" 826 1403 basechar 0
AnchorPoint: "yfenBelow" 825 -40 basechar 0
LayerCount: 2
Fore
SplineSet
0 371 m 1,0,-1
 0 397 l 1,1,2
 39 384 39 384 77.5 376.5 c 128,-1,3
 116 369 116 369 157 367 c 0,4,5
 206 365 206 365 253.5 364.5 c 128,-1,6
 301 364 301 364 350 364 c 0,7,8
 438 364 438 364 525 365.5 c 128,-1,9
 612 367 612 367 700 369 c 0,10,11
 814 371 814 371 898.5 372 c 128,-1,12
 983 373 983 373 1042 373 c 0,13,14
 1149 373 1149 373 1317 275 c 0,15,16
 1322 269 1322 269 1327 263.5 c 128,-1,17
 1332 258 1332 258 1336 252 c 0,18,19
 1341 247 1341 247 1346 242 c 128,-1,20
 1351 237 1351 237 1356 231 c 1,21,-1
 1348 231 l 2,22,23
 1342 231 1342 231 1331 234 c 0,24,25
 1301 239 1301 239 1286 243 c 0,26,27
 1268 247 1268 247 1267 247 c 2,28,-1
 1178 255 l 2,29,30
 1157 256 1157 256 1137.5 257.5 c 128,-1,31
 1118 259 1118 259 1098 260 c 256,32,33
 1078 261 1078 261 1059 262 c 128,-1,34
 1040 263 1040 263 1021 263 c 0,35,36
 993 263 993 263 934.5 260.5 c 128,-1,37
 876 258 876 258 784 253 c 0,38,39
 691 248 691 248 624 246 c 128,-1,40
 557 244 557 244 511 244 c 0,41,42
 418 244 418 244 328.5 250.5 c 128,-1,43
 239 257 239 257 146 270 c 0,44,45
 81 281 81 281 0 371 c 1,0,-1
423 828 m 0,46,47
 423 831 423 831 429 831 c 0,48,49
 432 832 432 832 429 839 c 0,50,51
 426 844 426 844 431 847 c 0,52,53
 478 863 478 863 518.5 875 c 128,-1,54
 559 887 559 887 594 896 c 256,55,56
 629 905 629 905 663 917.5 c 128,-1,57
 697 930 697 930 728.5 948 c 128,-1,58
 760 966 760 966 787 990 c 128,-1,59
 814 1014 814 1014 834 1045 c 0,60,61
 841 1056 841 1056 849 1072.5 c 128,-1,62
 857 1089 857 1089 867 1113 c 0,63,64
 877 1135 877 1135 889.5 1164 c 128,-1,65
 902 1193 902 1193 918 1228 c 0,66,67
 921 1234 921 1234 930 1234 c 0,68,69
 938 1234 938 1234 946 1239 c 0,70,71
 952 1243 952 1243 957.5 1245.5 c 128,-1,72
 963 1248 963 1248 968 1250 c 0,73,74
 976 1253 976 1253 979 1256 c 0,75,76
 984 1257 984 1257 989 1259 c 128,-1,77
 994 1261 994 1261 998 1263 c 0,78,79
 1003 1265 1003 1265 1007 1265.5 c 128,-1,80
 1011 1266 1011 1266 1016 1266 c 0,81,82
 1030 1266 1030 1266 1045 1261 c 0,83,84
 1050 1260 1050 1260 1055.5 1259.5 c 128,-1,85
 1061 1259 1061 1259 1066 1259 c 0,86,87
 1076 1259 1076 1259 1081 1251 c 0,88,89
 1085 1247 1085 1247 1077 1245 c 0,90,91
 1070 1243 1070 1243 1067 1241 c 0,92,93
 1029 1217 1029 1217 1026 1208 c 0,94,95
 1016 1177 1016 1177 1009 1151 c 0,96,97
 1003 1132 1003 1132 996.5 1116 c 128,-1,98
 990 1100 990 1100 979 1084 c 0,99,100
 974 1077 974 1077 969 1070.5 c 128,-1,101
 964 1064 964 1064 960 1059 c 0,102,103
 958 1056 958 1056 956.5 1052.5 c 128,-1,104
 955 1049 955 1049 953 1047 c 1,105,106
 956 1048 956 1048 951 1042 c 2,107,-1
 946 1038 l 1,108,-1
 947 1039 l 1,109,110
 947 1039 947 1039 947.5 1039.5 c 128,-1,111
 948 1040 948 1040 948 1040 c 2,112,113
 949 1043 949 1043 953 1047 c 1,114,115
 950 1047 950 1047 942 1042.5 c 128,-1,116
 934 1038 934 1038 923.5 1031 c 128,-1,117
 913 1024 913 1024 901 1015.5 c 128,-1,118
 889 1007 889 1007 878.5 999.5 c 128,-1,119
 868 992 868 992 859.5 986 c 128,-1,120
 851 980 851 980 848 977 c 0,121,122
 842 972 842 972 829.5 964 c 128,-1,123
 817 956 817 956 804.5 946 c 128,-1,124
 792 936 792 936 781 926.5 c 128,-1,125
 770 917 770 917 766 911 c 0,126,127
 765 910 765 910 764 909 c 1,128,129
 769 911 769 911 773.5 912.5 c 128,-1,130
 778 914 778 914 782 915 c 256,131,132
 786 916 786 916 788 917 c 0,133,134
 790 917 790 917 778 911 c 0,135,136
 769 906 769 906 765 906 c 0,137,138
 763 906 763 906 764 909 c 1,139,140
 755 906 755 906 742 900 c 0,141,142
 715 889 715 889 685 878 c 0,143,144
 667 872 667 872 650.5 867.5 c 128,-1,145
 634 863 634 863 615 863 c 2,146,-1
 589 863 l 2,147,148
 583 863 583 863 579 863 c 128,-1,149
 575 863 575 863 571 862 c 0,150,151
 565 862 565 862 573 858 c 0,152,153
 588 852 588 852 606 852 c 0,154,155
 609 852 609 852 612 852 c 128,-1,156
 615 852 615 852 618 852 c 0,157,158
 623 852 623 852 629 852.5 c 128,-1,159
 635 853 635 853 640 853 c 0,160,161
 668 853 668 853 696 846 c 128,-1,162
 724 839 724 839 747 820 c 0,163,164
 763 807 763 807 764 798 c 0,165,166
 765 792 765 792 753 792 c 2,167,-1
 704 797 l 1,168,-1
 617 812 l 2,169,170
 583 820 583 820 546.5 824 c 128,-1,171
 510 828 510 828 475 828 c 0,172,173
 469 828 469 828 463 827.5 c 128,-1,174
 457 827 457 827 451 827 c 0,175,176
 449 826 449 826 443 824 c 0,177,178
 439 822 439 822 431 822 c 0,179,180
 425 822 425 822 423 828 c 0,46,47
587 709 m 1,181,-1
 629 712 l 2,182,183
 631 712 631 712 633 712.5 c 128,-1,184
 635 713 635 713 637 713 c 0,185,186
 699 713 699 713 734 631 c 0,187,188
 755 580 755 580 770 567 c 0,189,190
 780 557 780 557 794 558 c 0,191,192
 795 558 795 558 797 558 c 128,-1,193
 799 558 799 558 801 558 c 0,194,195
 811 559 811 559 815 560 c 0,196,197
 820 560 820 560 820 558 c 0,198,199
 821 554 821 554 817 548 c 0,200,201
 811 539 811 539 800.5 533.5 c 128,-1,202
 790 528 790 528 777.5 524.5 c 128,-1,203
 765 521 765 521 752.5 520 c 128,-1,204
 740 519 740 519 729 519 c 0,205,206
 717 519 717 519 704.5 520 c 128,-1,207
 692 521 692 521 678 523 c 0,208,209
 622 532 622 532 576 645 c 0,210,211
 559 687 559 687 545 688 c 0,212,213
 543 688 543 688 542 687 c 1,214,-1
 542 705 l 1,215,-1
 587 709 l 1,181,-1
EndSplineSet
EndChar

StartChar: oligonDoubleYpsili
Encoding: 57353 57353 14
Width: 1380
GlyphClass: 2
Flags: W
HStem: 238 121.5<223.692 912.385> 257 111<703.555 1155.97> 507 10<74.4082 78.8757> 513 30<743.633 793.66> 515 9<738.625 742.876> 521 30<902.281 983.802>
AnchorPoint: "gorgonTop" 679 1080 basechar 0
AnchorPoint: "apli" 722 30 basechar 0
AnchorPoint: "klasmaBottom" 704 160 basechar 0
AnchorPoint: "yfesis" 1299 640 basechar 0
AnchorPoint: "diesis" 319 133 basechar 0
AnchorPoint: "psifiston" 759 113 basechar 0
AnchorPoint: "gorgonBottom" 586 125 basechar 0
AnchorPoint: "antikenoma" 739 165 basechar 0
AnchorPoint: "heteron" 1006 227 basechar 0
AnchorPoint: "fthoraTop" 599 1070 basechar 0
AnchorPoint: "fthoraBottom" 708 209 basechar 0
AnchorPoint: "noteTop" 113 772 basechar 0
AnchorPoint: "omalonConnecting" 1390 133 basechar 0
AnchorPoint: "omalon" 950 133 basechar 0
AnchorPoint: "heteronConnecting" 1611 -19 basechar 0
AnchorPoint: "measureNumber" 79 800 basechar 0
AnchorPoint: "isonIndicator" 711 1444 basechar 0
AnchorPoint: "endofonon" 721 -62 basechar 0
AnchorPoint: "koronis" 702 1261 basechar 0
AnchorPoint: "yfenAbove" 849 1271 basechar 0
AnchorPoint: "yfenBelow" 848 -40 basechar 0
LayerCount: 2
Fore
SplineSet
158 362 m 256,0,1
 202 361 202 361 255.5 359.5 c 128,-1,2
 309 358 309 358 380 358 c 0,3,4
 428 358 428 358 507 359.5 c 128,-1,5
 586 361 586 361 700 363 c 256,6,7
 814 365 814 365 898.5 366.5 c 128,-1,8
 983 368 983 368 1043 368 c 0,9,10
 1150 368 1150 368 1317 269 c 1,11,12
 1326 256 1326 256 1336.5 246.5 c 128,-1,13
 1347 237 1347 237 1357 225 c 1,14,15
 1343 225 1343 225 1332 229 c 0,16,17
 1302 233 1302 233 1286.5 237 c 128,-1,18
 1271 241 1271 241 1267 241 c 2,19,-1
 1178 249 l 2,20,21
 1136 252 1136 252 1098 254.5 c 128,-1,22
 1060 257 1060 257 1022 257 c 0,23,24
 994 257 994 257 935.5 254.5 c 128,-1,25
 877 252 877 252 785 247 c 0,26,27
 692 242 692 242 624.5 240 c 128,-1,28
 557 238 557 238 511 238 c 0,29,30
 419 238 419 238 328.5 244 c 128,-1,31
 238 250 238 250 147 265 c 0,32,33
 81 275 81 275 0 365 c 1,34,-1
 0 392 l 1,35,36
 37 379 37 379 75.5 371 c 128,-1,37
 114 363 114 363 158 362 c 256,0,1
81 507 m 0,38,39
 76 507 76 507 73 515 c 0,40,41
 73 516 73 516 74 517 c 0,42,43
 75 517 75 517 79 518 c 0,44,45
 81 519 81 519 77 525 c 0,46,47
 73 530 73 530 79 532 c 0,48,49
 126 549 126 549 166 562.5 c 128,-1,50
 206 576 206 576 240 587.5 c 128,-1,51
 274 599 274 599 301.5 609 c 128,-1,52
 329 619 329 619 349 629 c 0,53,54
 429 671 429 671 474 743 c 0,55,56
 481 755 481 755 488.5 772.5 c 128,-1,57
 496 790 496 790 505 813.5 c 128,-1,58
 514 837 514 837 525.5 866 c 128,-1,59
 537 895 537 895 552 931 c 0,60,61
 553 934 553 934 557 935 c 128,-1,62
 561 936 561 936 565 936.5 c 128,-1,63
 569 937 569 937 573.5 938 c 128,-1,64
 578 939 578 939 582 941 c 0,65,66
 594 948 594 948 602 952.5 c 128,-1,67
 610 957 610 957 613 958 c 0,68,69
 626 964 626 964 634.5 967 c 128,-1,70
 643 970 643 970 646 971 c 2,71,-1
 659 971 l 2,72,73
 664 971 664 971 669.5 970.5 c 128,-1,74
 675 970 675 970 680 968 c 0,75,76
 684 967 684 967 688.5 966.5 c 128,-1,77
 693 966 693 966 698 965 c 128,-1,78
 703 964 703 964 707.5 962.5 c 128,-1,79
 712 961 712 961 716 957 c 0,80,81
 719 954 719 954 713 951.5 c 128,-1,82
 707 949 707 949 702 946 c 0,83,84
 665 921 665 921 662 913 c 0,85,86
 657 892 657 892 652 872.5 c 128,-1,87
 647 853 647 853 640.5 834.5 c 128,-1,88
 634 816 634 816 625 798 c 128,-1,89
 616 780 616 780 603 762 c 0,90,91
 601 758 601 758 598.5 755 c 128,-1,92
 596 752 596 752 594 748 c 1,93,94
 594 748 594 748 596 749 c 0,95,96
 597 749 597 749 593 745 c 2,97,-1
 589 741 l 1,98,99
 589 741 589 741 594 748 c 1,100,101
 590 746 590 746 579.5 739.5 c 128,-1,102
 569 733 569 733 555.5 722.5 c 128,-1,103
 542 712 542 712 525.5 699.5 c 128,-1,104
 509 687 509 687 493 674 c 0,105,106
 477 662 477 662 464.5 652 c 128,-1,107
 452 642 452 642 441 633 c 256,108,109
 430 624 430 624 423 617 c 128,-1,110
 416 610 416 610 412 606 c 0,111,112
 412 605 412 605 410 604 c 2,113,114
 410 604 410 604 409 603 c 1,115,116
 415 605 415 605 419.5 607.5 c 128,-1,117
 424 610 424 610 428 612 c 0,118,119
 433 615 433 615 434 615 c 1,120,121
 434 615 434 615 432 613 c 0,122,123
 431 612 431 612 427.5 610 c 128,-1,124
 424 608 424 608 421 606.5 c 128,-1,125
 418 605 418 605 415 603.5 c 128,-1,126
 412 602 412 602 410 602 c 0,127,128
 409 602 409 602 409 603 c 1,129,130
 397 597 397 597 381 589.5 c 128,-1,131
 365 582 365 582 348.5 575.5 c 128,-1,132
 332 569 332 569 315 563.5 c 128,-1,133
 298 558 298 558 285 556 c 0,134,135
 276 555 276 555 262.5 554.5 c 128,-1,136
 249 554 249 554 237.5 553.5 c 128,-1,137
 226 553 226 553 220 552 c 128,-1,138
 214 551 214 551 221 548 c 0,139,140
 229 545 229 545 238 544 c 128,-1,141
 247 543 247 543 255 543 c 0,142,143
 267 543 267 543 279.5 544 c 128,-1,144
 292 545 292 545 304 545 c 0,145,146
 307 545 307 545 310.5 545 c 128,-1,147
 314 545 314 545 316 544 c 0,148,149
 361 541 361 541 396 515 c 0,150,151
 415 501 415 501 415 496 c 0,152,153
 418 488 418 488 404 488 c 0,154,155
 391 488 391 488 379.5 489.5 c 128,-1,156
 368 491 368 491 356 493 c 0,157,158
 339 496 339 496 316 498.5 c 128,-1,159
 293 501 293 501 266 505 c 0,160,161
 240 509 240 509 217 511 c 128,-1,162
 194 513 194 513 172 513 c 0,163,164
 168 514 168 514 164 514 c 128,-1,165
 160 514 160 514 156 514 c 0,166,167
 142 514 142 514 128.5 513.5 c 128,-1,168
 115 513 115 513 101 512 c 0,169,170
 98 511 98 511 93.5 509 c 128,-1,171
 89 507 89 507 81 507 c 0,38,39
737 523 m 0,172,173
 737 524 737 524 738 524 c 256,174,175
 739 524 739 524 743 526 c 0,176,177
 745 527 745 527 741 533 c 0,178,179
 737 538 737 538 743 540 c 0,180,181
 790 557 790 557 830 570 c 128,-1,182
 870 583 870 583 904 594.5 c 128,-1,183
 938 606 938 606 965.5 616 c 128,-1,184
 993 626 993 626 1013 637 c 0,185,186
 1093 678 1093 678 1138 751 c 0,187,188
 1145 763 1145 763 1152.5 780.5 c 128,-1,189
 1160 798 1160 798 1169 821.5 c 128,-1,190
 1178 845 1178 845 1189.5 874 c 128,-1,191
 1201 903 1201 903 1216 938 c 0,192,193
 1217 941 1217 941 1221 942.5 c 128,-1,194
 1225 944 1225 944 1229 944.5 c 128,-1,195
 1233 945 1233 945 1237.5 946 c 128,-1,196
 1242 947 1242 947 1246 949 c 0,197,198
 1258 956 1258 956 1266 960.5 c 128,-1,199
 1274 965 1274 965 1277 966 c 0,200,201
 1290 972 1290 972 1298.5 974.5 c 128,-1,202
 1307 977 1307 977 1310 979 c 2,203,-1
 1323 979 l 2,204,205
 1328 979 1328 979 1333.5 978.5 c 128,-1,206
 1339 978 1339 978 1344 976 c 0,207,208
 1348 975 1348 975 1352.5 974.5 c 128,-1,209
 1357 974 1357 974 1362 973 c 128,-1,210
 1367 972 1367 972 1372 970.5 c 128,-1,211
 1377 969 1377 969 1380 965 c 0,212,213
 1381 964 1381 964 1380 962 c 128,-1,214
 1379 960 1379 960 1376.5 959 c 128,-1,215
 1374 958 1374 958 1371 956.5 c 128,-1,216
 1368 955 1368 955 1366 954 c 0,217,218
 1329 928 1329 928 1326 921 c 0,219,220
 1321 900 1321 900 1316 880.5 c 128,-1,221
 1311 861 1311 861 1304.5 842.5 c 128,-1,222
 1298 824 1298 824 1289 806 c 128,-1,223
 1280 788 1280 788 1267 770 c 0,224,225
 1265 766 1265 766 1262.5 763 c 128,-1,226
 1260 760 1260 760 1258 756 c 1,227,228
 1258 756 1258 756 1260 757 c 0,229,230
 1261 757 1261 757 1257 752 c 2,231,-1
 1253 748 l 1,232,233
 1253 748 1253 748 1258 756 c 1,234,235
 1254 754 1254 754 1243.5 747.5 c 128,-1,236
 1233 741 1233 741 1219.5 730.5 c 128,-1,237
 1206 720 1206 720 1189.5 707.5 c 128,-1,238
 1173 695 1173 695 1157 682 c 0,239,240
 1141 670 1141 670 1128.5 659.5 c 128,-1,241
 1116 649 1116 649 1106 641 c 0,242,243
 1095 632 1095 632 1087.5 625 c 128,-1,244
 1080 618 1080 618 1076 614 c 0,245,246
 1076 613 1076 613 1074 612 c 2,247,248
 1074 612 1074 612 1073 611 c 1,249,250
 1079 613 1079 613 1083.5 615.5 c 128,-1,251
 1088 618 1088 618 1092 620 c 0,252,253
 1097 623 1097 623 1098 622 c 1,254,255
 1098 622 1098 622 1096 621 c 0,256,257
 1095 620 1095 620 1091.5 618 c 128,-1,258
 1088 616 1088 616 1085 614.5 c 128,-1,259
 1082 613 1082 613 1079 611.5 c 128,-1,260
 1076 610 1076 610 1074 610 c 0,261,262
 1073 610 1073 610 1073 611 c 1,263,264
 1061 605 1061 605 1045 597.5 c 128,-1,265
 1029 590 1029 590 1012.5 583.5 c 128,-1,266
 996 577 996 577 979 571.5 c 128,-1,267
 962 566 962 566 949 563 c 0,268,269
 940 562 940 562 926.5 561.5 c 128,-1,270
 913 561 913 561 901.5 560.5 c 128,-1,271
 890 560 890 560 884 559 c 128,-1,272
 878 558 878 558 885 556 c 0,273,274
 893 553 893 553 902 552 c 128,-1,275
 911 551 911 551 919 551 c 0,276,277
 931 551 931 551 943.5 552 c 128,-1,278
 956 553 956 553 968 553 c 0,279,280
 971 553 971 553 974.5 553 c 128,-1,281
 978 553 978 553 981 552 c 0,282,283
 1026 549 1026 549 1060 523 c 0,284,285
 1079 509 1079 509 1079 504 c 0,286,287
 1082 496 1082 496 1068 496 c 0,288,289
 1055 496 1055 496 1043.5 497 c 128,-1,290
 1032 498 1032 498 1020 501 c 0,291,292
 1003 504 1003 504 980 506.5 c 128,-1,293
 957 509 957 509 930 513 c 0,294,295
 904 517 904 517 881 519 c 128,-1,296
 858 521 858 521 836 521 c 0,297,298
 832 522 832 522 828 522 c 128,-1,299
 824 522 824 522 820 522 c 0,300,301
 806 522 806 522 792.5 521.5 c 128,-1,302
 779 521 779 521 765 519 c 0,303,304
 762 518 762 518 757 516.5 c 128,-1,305
 752 515 752 515 745 515 c 0,306,307
 740 515 740 515 737 523 c 0,172,173
EndSplineSet
EndChar

StartChar: oligonKentimataDoubleYpsili
Encoding: 57354 57354 15
Width: 1400
GlyphClass: 2
Flags: W
HStem: 239 123<223.692 912.385> 257 112<703.555 1155.72> 476 25<382.82 417.407> 583 9<757.643 761.907> 589 31<902.816 1006.96> 695 19<143.066 179.58 378.095 404.623> 842 32<294.281 385.673>
AnchorPoint: "apli" 713 30 basechar 0
AnchorPoint: "klasmaBottom" 695 160 basechar 0
AnchorPoint: "yfesis" 1278 619 basechar 0
AnchorPoint: "diesis" 310 133 basechar 0
AnchorPoint: "psifiston" 750 113 basechar 0
AnchorPoint: "gorgonBottom" 577 125 basechar 0
AnchorPoint: "antikenoma" 730 165 basechar 0
AnchorPoint: "heteron" 997 227 basechar 0
AnchorPoint: "fthoraTop" 50 1110 basechar 0
AnchorPoint: "fthoraBottom" 699 209 basechar 0
AnchorPoint: "noteTop" 66 680 basechar 0
AnchorPoint: "omalonConnecting" 1381 133 basechar 0
AnchorPoint: "omalon" 941 133 basechar 0
AnchorPoint: "heteronConnecting" 1602 -19 basechar 0
AnchorPoint: "measureNumber" 82 875 basechar 0
AnchorPoint: "isonIndicator" 702 1420 basechar 0
AnchorPoint: "endofonon" 712 -62 basechar 0
AnchorPoint: "koronis" 693 1371 basechar 0
AnchorPoint: "yfenAbove" 840 1371 basechar 0
AnchorPoint: "yfenBelow" 839 -40 basechar 0
LayerCount: 2
Fore
SplineSet
158 362 m 256,0,1
 202 361 202 361 255.5 360 c 128,-1,2
 309 359 309 359 380 359 c 0,3,4
 428 359 428 359 507 360 c 128,-1,5
 586 361 586 361 700 364 c 0,6,7
 814 366 814 366 898.5 367.5 c 128,-1,8
 983 369 983 369 1042 369 c 0,9,10
 1149 369 1149 369 1317 270 c 1,11,12
 1326 257 1326 257 1336.5 247 c 128,-1,13
 1347 237 1347 237 1356 226 c 1,14,15
 1342 226 1342 226 1331 230 c 0,16,17
 1301 234 1301 234 1285.5 238 c 128,-1,18
 1270 242 1270 242 1267 242 c 2,19,-1
 1178 250 l 2,20,21
 1136 253 1136 253 1098 255 c 128,-1,22
 1060 257 1060 257 1022 257 c 0,23,24
 994 257 994 257 935.5 255 c 128,-1,25
 877 253 877 253 785 248 c 0,26,27
 692 243 692 243 624.5 241 c 128,-1,28
 557 239 557 239 511 239 c 0,29,30
 419 239 419 239 328.5 245 c 128,-1,31
 238 251 238 251 147 265 c 0,32,33
 81 275 81 275 0 365 c 1,34,-1
 0 392 l 1,35,36
 37 379 37 379 75.5 371 c 128,-1,37
 114 363 114 363 158 362 c 256,0,1
129 844 m 0,38,39
 129 845 129 845 130 846 c 0,40,41
 131 846 131 846 135 847 c 0,42,43
 137 848 137 848 133 854 c 0,44,45
 129 859 129 859 135 861 c 0,46,47
 182 878 182 878 222 891.5 c 128,-1,48
 262 905 262 905 296 916.5 c 128,-1,49
 330 928 330 928 357.5 938 c 128,-1,50
 385 948 385 948 405 958 c 0,51,52
 485 998 485 998 530 1072 c 0,53,54
 537 1084 537 1084 544.5 1101.5 c 128,-1,55
 552 1119 552 1119 561 1142.5 c 128,-1,56
 570 1166 570 1166 581.5 1195.5 c 128,-1,57
 593 1225 593 1225 608 1260 c 0,58,59
 609 1263 609 1263 613 1264.5 c 128,-1,60
 617 1266 617 1266 621 1266.5 c 128,-1,61
 625 1267 625 1267 629.5 1267.5 c 128,-1,62
 634 1268 634 1268 638 1271 c 0,63,64
 650 1278 650 1278 658 1282 c 128,-1,65
 666 1286 666 1286 669 1288 c 0,66,67
 682 1294 682 1294 690.5 1296.5 c 128,-1,68
 699 1299 699 1299 702 1300 c 2,69,-1
 715 1300 l 2,70,71
 720 1300 720 1300 725.5 1299.5 c 128,-1,72
 731 1299 731 1299 736 1298 c 0,73,74
 740 1297 740 1297 744.5 1296 c 128,-1,75
 749 1295 749 1295 754 1294.5 c 128,-1,76
 759 1294 759 1294 763.5 1292 c 128,-1,77
 768 1290 768 1290 772 1286 c 0,78,79
 773 1285 773 1285 772 1283.5 c 128,-1,80
 771 1282 771 1282 768.5 1280.5 c 128,-1,81
 766 1279 766 1279 763 1278 c 128,-1,82
 760 1277 760 1277 758 1276 c 0,83,84
 720 1250 720 1250 718 1243 c 0,85,86
 712 1218 712 1218 706.5 1196.5 c 128,-1,87
 701 1175 701 1175 693.5 1155.5 c 128,-1,88
 686 1136 686 1136 675.5 1117 c 128,-1,89
 665 1098 665 1098 650 1078 c 1,90,91
 650 1078 650 1078 651 1078 c 1,92,-1
 652 1079 l 0,93,94
 654 1079 654 1079 649 1074 c 2,95,-1
 645 1070 l 1,96,97
 645 1070 645 1070 645 1070.5 c 128,-1,98
 645 1071 645 1071 646 1072 c 256,99,100
 647 1073 647 1073 648 1074.5 c 128,-1,101
 649 1076 649 1076 650 1078 c 1,102,103
 646 1076 646 1076 635.5 1069 c 128,-1,104
 625 1062 625 1062 611.5 1052 c 128,-1,105
 598 1042 598 1042 581.5 1029 c 128,-1,106
 565 1016 565 1016 549 1004 c 256,107,108
 533 992 533 992 520.5 981.5 c 128,-1,109
 508 971 508 971 497 962 c 256,110,111
 486 953 486 953 479 946.5 c 128,-1,112
 472 940 472 940 468 936 c 0,113,114
 468 935 468 935 466 933 c 2,115,116
 466 933 466 933 465 932 c 1,117,118
 471 934 471 934 475.5 936.5 c 128,-1,119
 480 939 480 939 484 941 c 0,120,121
 489 944 489 944 490 944 c 1,122,123
 490 944 490 944 488 943 c 0,124,125
 487 942 487 942 483.5 940 c 128,-1,126
 480 938 480 938 476.5 936 c 128,-1,127
 473 934 473 934 470.5 933 c 128,-1,128
 468 932 468 932 466 932 c 0,129,130
 465 932 465 932 465 932 c 1,131,132
 453 926 453 926 437 919 c 128,-1,133
 421 912 421 912 404.5 905 c 128,-1,134
 388 898 388 898 371 892.5 c 128,-1,135
 354 887 354 887 341 885 c 0,136,137
 332 884 332 884 318.5 883.5 c 128,-1,138
 305 883 305 883 293.5 882.5 c 128,-1,139
 282 882 282 882 276 881 c 128,-1,140
 270 880 270 880 277 877 c 0,141,142
 285 874 285 874 294 873 c 128,-1,143
 303 872 303 872 312 872 c 0,144,145
 324 872 324 872 336.5 873 c 128,-1,146
 349 874 349 874 362 874 c 0,147,148
 364 874 364 874 367 874 c 128,-1,149
 370 874 370 874 372 874 c 0,150,151
 417 871 417 871 452 844 c 0,152,153
 471 830 471 830 471 825 c 0,154,155
 474 817 474 817 460 818 c 0,156,157
 447 818 447 818 435.5 819 c 128,-1,158
 424 820 424 820 411 822 c 0,159,160
 394 825 394 825 371.5 828 c 128,-1,161
 349 831 349 831 322 835 c 0,162,163
 296 839 296 839 273 840.5 c 128,-1,164
 250 842 250 842 228 842 c 0,165,166
 224 843 224 843 220 843 c 128,-1,167
 216 843 216 843 212 843 c 0,168,169
 198 843 198 843 184.5 842.5 c 128,-1,170
 171 842 171 842 157 841 c 0,171,172
 154 840 154 840 149 838.5 c 128,-1,173
 144 837 144 837 137 837 c 0,174,175
 132 836 132 836 129 844 c 0,38,39
756 591 m 0,176,177
 756 592 756 592 758 592 c 0,178,179
 759 592 759 592 762 594 c 0,180,181
 764 595 764 595 760 601 c 0,182,183
 756 606 756 606 762 608 c 0,184,185
 808 625 808 625 848.5 638.5 c 128,-1,186
 889 652 889 652 923 663 c 128,-1,187
 957 674 957 674 984.5 684 c 128,-1,188
 1012 694 1012 694 1033 705 c 0,189,190
 1113 745 1113 745 1158 819 c 0,191,192
 1165 831 1165 831 1172.5 848.5 c 128,-1,193
 1180 866 1180 866 1188.5 889.5 c 128,-1,194
 1197 913 1197 913 1208.5 942 c 128,-1,195
 1220 971 1220 971 1236 1007 c 0,196,197
 1237 1010 1237 1010 1240 1011 c 128,-1,198
 1243 1012 1243 1012 1247.5 1012.5 c 128,-1,199
 1252 1013 1252 1013 1256.5 1014 c 128,-1,200
 1261 1015 1261 1015 1265 1017 c 0,201,202
 1277 1024 1277 1024 1285.5 1028.5 c 128,-1,203
 1294 1033 1294 1033 1297 1034 c 0,204,205
 1310 1040 1310 1040 1318.5 1043 c 128,-1,206
 1327 1046 1327 1046 1329 1047 c 2,207,-1
 1343 1047 l 2,208,209
 1348 1047 1348 1047 1353 1046.5 c 128,-1,210
 1358 1046 1358 1046 1364 1044 c 0,211,212
 1368 1043 1368 1043 1372.5 1042.5 c 128,-1,213
 1377 1042 1377 1042 1382 1041 c 128,-1,214
 1387 1040 1387 1040 1391.5 1038.5 c 128,-1,215
 1396 1037 1396 1037 1400 1033 c 0,216,217
 1401 1032 1401 1032 1399.5 1030 c 128,-1,218
 1398 1028 1398 1028 1395.5 1027 c 128,-1,219
 1393 1026 1393 1026 1390 1025 c 128,-1,220
 1387 1024 1387 1024 1386 1022 c 0,221,222
 1348 997 1348 997 1345 989 c 0,223,224
 1337 955 1337 955 1330 931 c 128,-1,225
 1323 907 1323 907 1315 888 c 0,226,227
 1313 882 1313 882 1308.5 873.5 c 128,-1,228
 1304 865 1304 865 1298 856 c 128,-1,229
 1292 847 1292 847 1286.5 838.5 c 128,-1,230
 1281 830 1281 830 1277 824 c 1,231,232
 1278 824 1278 824 1278 825 c 1,233,-1
 1279 825 l 0,234,235
 1281 825 1281 825 1276 820 c 0,236,237
 1273 817 1273 817 1272 817 c 1,238,239
 1272 817 1272 817 1277 824 c 1,240,241
 1273 822 1273 822 1263 815.5 c 128,-1,242
 1253 809 1253 809 1239 798.5 c 128,-1,243
 1225 788 1225 788 1209 775.5 c 128,-1,244
 1193 763 1193 763 1177 750 c 0,245,246
 1161 738 1161 738 1148.5 727.5 c 128,-1,247
 1136 717 1136 717 1125 709 c 0,248,249
 1114 700 1114 700 1106.5 693 c 128,-1,250
 1099 686 1099 686 1095 682 c 0,251,252
 1095 681 1095 681 1093 680 c 2,253,254
 1093 680 1093 680 1093 679 c 1,255,256
 1099 681 1099 681 1103.5 683.5 c 128,-1,257
 1108 686 1108 686 1112 688 c 0,258,259
 1117 691 1117 691 1118 691 c 1,260,261
 1118 691 1118 691 1115 689 c 0,262,263
 1114 688 1114 688 1110.5 686 c 128,-1,264
 1107 684 1107 684 1104 682.5 c 128,-1,265
 1101 681 1101 681 1098 679.5 c 128,-1,266
 1095 678 1095 678 1094 678 c 256,267,268
 1093 678 1093 678 1093 679 c 1,269,270
 1081 673 1081 673 1065 665.5 c 128,-1,271
 1049 658 1049 658 1032 651.5 c 128,-1,272
 1015 645 1015 645 998.5 639.5 c 128,-1,273
 982 634 982 634 969 632 c 0,274,275
 961 631 961 631 946.5 630.5 c 128,-1,276
 932 630 932 630 920.5 629.5 c 128,-1,277
 909 629 909 629 903 628 c 128,-1,278
 897 627 897 627 905 624 c 256,279,280
 913 621 913 621 921.5 620 c 128,-1,281
 930 619 930 619 939 619 c 0,282,283
 951 619 951 619 963.5 620 c 128,-1,284
 976 621 976 621 989 621 c 0,285,286
 991 621 991 621 994 620.5 c 128,-1,287
 997 620 997 620 1000 620 c 0,288,289
 1045 617 1045 617 1079 591 c 0,290,291
 1098 577 1098 577 1098 572 c 0,292,293
 1101 564 1101 564 1087 564 c 0,294,295
 1074 564 1074 564 1063 565.5 c 128,-1,296
 1052 567 1052 567 1039 569 c 0,297,298
 1022 572 1022 572 999 574.5 c 128,-1,299
 976 577 976 577 950 581 c 256,300,301
 924 585 924 585 901 587 c 128,-1,302
 878 589 878 589 856 589 c 0,303,304
 852 590 852 590 848 590 c 128,-1,305
 844 590 844 590 840 590 c 0,306,307
 826 590 826 590 812 589.5 c 128,-1,308
 798 589 798 589 784 588 c 0,309,310
 781 587 781 587 776.5 585 c 128,-1,311
 772 583 772 583 764 583 c 0,312,313
 759 583 759 583 756 591 c 0,176,177
143 711 m 0,314,315
 145 714 145 714 160 714 c 2,316,-1
 165 714 l 1,317,-1
 177 714 l 2,318,319
 188 714 188 714 198 713.5 c 128,-1,320
 208 713 208 713 219 711 c 2,321,-1
 265 703 l 2,322,323
 334 690 334 690 353 595 c 0,324,325
 365 534 365 534 376 520 c 0,326,327
 387 507 387 507 406 503 c 0,328,329
 411 503 411 503 420 501 c 0,330,331
 423 501 423 501 425 500 c 0,332,333
 425 497 425 497 419 490 c 0,334,335
 409 480 409 480 394 477.5 c 128,-1,336
 379 475 379 475 366 475 c 0,337,338
 344 475 344 475 322 480.5 c 128,-1,339
 300 486 300 486 270 496 c 0,340,341
 215 516 215 516 195 642 c 0,342,343
 186 695 186 695 162 695 c 2,344,-1
 148 695 l 2,345,346
 139 695 139 695 138 696 c 0,347,348
 134 699 134 699 143 711 c 0,314,315
375 712 m 0,349,350
 375 715 375 715 392 715 c 0,351,352
 405 715 405 715 416.5 714.5 c 128,-1,353
 428 714 428 714 439 712.5 c 128,-1,354
 450 711 450 711 461 709 c 128,-1,355
 472 707 472 707 484 704 c 0,356,357
 554 690 554 690 572 595 c 0,358,359
 583 538 583 538 597 522 c 0,360,361
 607 507 607 507 626 504 c 0,362,363
 631 503 631 503 633.5 502 c 128,-1,364
 636 501 636 501 639 501 c 2,365,-1
 644 501 l 1,366,367
 644 494 644 494 637 489.5 c 128,-1,368
 630 485 630 485 621 482 c 128,-1,369
 612 479 612 479 603 477.5 c 128,-1,370
 594 476 594 476 589 476 c 0,371,372
 551 476 551 476 491 498 c 0,373,374
 436 519 436 519 415 647 c 0,375,376
 407 698 407 698 391 698 c 2,377,-1
 389 698 l 2,378,379
 381 698 381 698 378 700 c 128,-1,380
 375 702 375 702 375 712 c 0,349,350
EndSplineSet
EndChar

StartChar: oligonKentimaDoubleYpsiliRight
Encoding: 57355 57355 16
Width: 1386
GlyphClass: 2
Flags: W
HStem: 243 124<220.855 914.371> 262 111<703.555 1155.72> 479 30<495.098 536.495> 573 9<743.643 747.907> 710 20<245.097 283.805> 820 9<130.643 134.907> 826 30<312.375 375.802>
AnchorPoint: "apli" 710 30 basechar 0
AnchorPoint: "klasmaBottom" 692 160 basechar 0
AnchorPoint: "yfesis" 1275 619 basechar 0
AnchorPoint: "diesis" 307 133 basechar 0
AnchorPoint: "psifiston" 747 113 basechar 0
AnchorPoint: "gorgonBottom" 574 125 basechar 0
AnchorPoint: "antikenoma" 727 165 basechar 0
AnchorPoint: "heteron" 994 227 basechar 0
AnchorPoint: "fthoraTop" 57 1080 basechar 0
AnchorPoint: "fthoraBottom" 696 209 basechar 0
AnchorPoint: "noteTop" 63 680 basechar 0
AnchorPoint: "omalonConnecting" 1378 133 basechar 0
AnchorPoint: "omalon" 938 133 basechar 0
AnchorPoint: "heteronConnecting" 1599 -19 basechar 0
AnchorPoint: "measureNumber" 79 853 basechar 0
AnchorPoint: "isonIndicator" 699 1404 basechar 0
AnchorPoint: "endofonon" 709 -62 basechar 0
AnchorPoint: "koronis" 690 1441 basechar 0
AnchorPoint: "yfenAbove" 837 1441 basechar 0
AnchorPoint: "yfenBelow" 836 -40 basechar 0
LayerCount: 2
Fore
SplineSet
0 397 m 1,0,1
 37 384 37 384 75 376 c 128,-1,2
 113 368 113 368 157 367 c 256,3,4
 201 366 201 366 255 365 c 128,-1,5
 309 364 309 364 380 364 c 0,6,7
 428 364 428 364 507 365 c 128,-1,8
 586 366 586 366 700 368 c 256,9,10
 814 370 814 370 898.5 371.5 c 128,-1,11
 983 373 983 373 1042 373 c 0,12,13
 1149 373 1149 373 1317 275 c 1,14,15
 1326 262 1326 262 1336.5 252 c 128,-1,16
 1347 242 1347 242 1356 231 c 1,17,18
 1342 231 1342 231 1331 234 c 0,19,20
 1301 238 1301 238 1285.5 242 c 128,-1,21
 1270 246 1270 246 1267 246 c 2,22,-1
 1178 254 l 2,23,24
 1136 257 1136 257 1098 259.5 c 128,-1,25
 1060 262 1060 262 1022 262 c 0,26,27
 994 262 994 262 935.5 260 c 128,-1,28
 877 258 877 258 784 253 c 256,29,30
 691 248 691 248 624 245.5 c 128,-1,31
 557 243 557 243 511 243 c 0,32,33
 419 243 419 243 328.5 249 c 128,-1,34
 238 255 238 255 147 270 c 0,35,36
 81 280 81 280 0 370 c 1,37,-1
 0 397 l 1,0,1
750 573 m 0,38,39
 745 573 745 573 742 581 c 0,40,41
 742 582 742 582 744 582 c 0,42,43
 745 582 745 582 748 584 c 0,44,45
 750 585 750 585 746 591 c 0,46,47
 742 596 742 596 748 598 c 0,48,49
 794 615 794 615 834.5 628.5 c 128,-1,50
 875 642 875 642 909.5 653 c 128,-1,51
 944 664 944 664 971 674 c 128,-1,52
 998 684 998 684 1019 695 c 0,53,54
 1099 736 1099 736 1144 809 c 0,55,56
 1151 821 1151 821 1158.5 838.5 c 128,-1,57
 1166 856 1166 856 1174.5 879.5 c 128,-1,58
 1183 903 1183 903 1194.5 932 c 128,-1,59
 1206 961 1206 961 1222 996 c 0,60,61
 1223 999 1223 999 1226.5 1000.5 c 128,-1,62
 1230 1002 1230 1002 1234.5 1002.5 c 128,-1,63
 1239 1003 1239 1003 1243.5 1004 c 128,-1,64
 1248 1005 1248 1005 1252 1007 c 0,65,66
 1264 1014 1264 1014 1272 1018.5 c 128,-1,67
 1280 1023 1280 1023 1283 1024 c 0,68,69
 1296 1030 1296 1030 1304.5 1032.5 c 128,-1,70
 1313 1035 1313 1035 1316 1037 c 2,71,-1
 1329 1037 l 2,72,73
 1334 1037 1334 1037 1339.5 1036.5 c 128,-1,74
 1345 1036 1345 1036 1350 1034 c 0,75,76
 1354 1033 1354 1033 1358.5 1032.5 c 128,-1,77
 1363 1032 1363 1032 1368 1031 c 128,-1,78
 1373 1030 1373 1030 1377.5 1028.5 c 128,-1,79
 1382 1027 1382 1027 1386 1023 c 0,80,81
 1387 1022 1387 1022 1386 1020 c 128,-1,82
 1385 1018 1385 1018 1382.5 1017 c 128,-1,83
 1380 1016 1380 1016 1377 1014.5 c 128,-1,84
 1374 1013 1374 1013 1372 1012 c 0,85,86
 1334 986 1334 986 1331 979 c 0,87,88
 1323 945 1323 945 1316 921 c 128,-1,89
 1309 897 1309 897 1302 878 c 0,90,91
 1300 872 1300 872 1295 863.5 c 128,-1,92
 1290 855 1290 855 1284 846 c 128,-1,93
 1278 837 1278 837 1272.5 828.5 c 128,-1,94
 1267 820 1267 820 1263 814 c 1,95,96
 1264 814 1264 814 1264 815 c 1,97,-1
 1265 815 l 0,98,99
 1267 815 1267 815 1262 810 c 0,100,101
 1259 807 1259 807 1259 807 c 257,102,103
 1259 807 1259 807 1263 814 c 1,104,105
 1259 812 1259 812 1249 805.5 c 128,-1,106
 1239 799 1239 799 1225 788.5 c 128,-1,107
 1211 778 1211 778 1195 765.5 c 128,-1,108
 1179 753 1179 753 1163 740 c 0,109,110
 1147 728 1147 728 1134.5 717.5 c 128,-1,111
 1122 707 1122 707 1111 698 c 256,112,113
 1100 689 1100 689 1092.5 682.5 c 128,-1,114
 1085 676 1085 676 1081 672 c 0,115,116
 1081 671 1081 671 1079 670 c 2,117,118
 1079 670 1079 670 1079 669 c 1,119,120
 1085 671 1085 671 1089.5 673.5 c 128,-1,121
 1094 676 1094 676 1098 677 c 0,122,123
 1103 680 1103 680 1104 680 c 1,124,125
 1104 680 1104 680 1101 679 c 0,126,127
 1100 678 1100 678 1097 676 c 128,-1,128
 1094 674 1094 674 1090.5 672.5 c 128,-1,129
 1087 671 1087 671 1084 669.5 c 128,-1,130
 1081 668 1081 668 1080 668 c 256,131,132
 1079 668 1079 668 1079 669 c 1,133,134
 1067 663 1067 663 1051 655.5 c 128,-1,135
 1035 648 1035 648 1018 641.5 c 128,-1,136
 1001 635 1001 635 984.5 629.5 c 128,-1,137
 968 624 968 624 955 621 c 0,138,139
 946 620 946 620 932.5 619.5 c 128,-1,140
 919 619 919 619 907 618.5 c 128,-1,141
 895 618 895 618 889.5 617 c 128,-1,142
 884 616 884 616 891 614 c 0,143,144
 899 611 899 611 907.5 610 c 128,-1,145
 916 609 916 609 925 609 c 0,146,147
 937 609 937 609 949 610 c 128,-1,148
 961 611 961 611 974 611 c 0,149,150
 977 611 977 611 980 611 c 128,-1,151
 983 611 983 611 986 610 c 0,152,153
 1031 607 1031 607 1066 581 c 0,154,155
 1085 567 1085 567 1084 562 c 0,156,157
 1087 554 1087 554 1074 554 c 256,158,159
 1061 554 1061 554 1049.5 555 c 128,-1,160
 1038 556 1038 556 1025 559 c 0,161,162
 1008 562 1008 562 985.5 564.5 c 128,-1,163
 963 567 963 567 936 571 c 0,164,165
 910 575 910 575 887 577 c 128,-1,166
 864 579 864 579 842 579 c 0,167,168
 838 580 838 580 834 580 c 128,-1,169
 830 580 830 580 826 580 c 0,170,171
 812 580 812 580 798 579.5 c 128,-1,172
 784 579 784 579 770 577 c 0,173,174
 767 576 767 576 762.5 574.5 c 128,-1,175
 758 573 758 573 750 573 c 0,38,39
129 828 m 0,176,177
 129 829 129 829 131 829 c 0,178,179
 132 829 132 829 135 831 c 0,180,181
 137 832 137 832 133 838 c 0,182,183
 129 843 129 843 135 845 c 0,184,185
 181 862 181 862 221.5 875.5 c 128,-1,186
 262 889 262 889 296 900 c 128,-1,187
 330 911 330 911 357.5 921 c 128,-1,188
 385 931 385 931 406 942 c 0,189,190
 486 983 486 983 531 1056 c 0,191,192
 538 1068 538 1068 545.5 1085.5 c 128,-1,193
 553 1103 553 1103 561.5 1126.5 c 128,-1,194
 570 1150 570 1150 581.5 1179 c 128,-1,195
 593 1208 593 1208 609 1243 c 0,196,197
 610 1246 610 1246 613.5 1247.5 c 128,-1,198
 617 1249 617 1249 621 1249.5 c 128,-1,199
 625 1250 625 1250 630 1251 c 128,-1,200
 635 1252 635 1252 638 1254 c 0,201,202
 650 1261 650 1261 658.5 1265.5 c 128,-1,203
 667 1270 667 1270 670 1271 c 0,204,205
 683 1277 683 1277 691 1279.5 c 128,-1,206
 699 1282 699 1282 702 1284 c 2,207,-1
 716 1284 l 2,208,209
 721 1284 721 1284 726 1283.5 c 128,-1,210
 731 1283 731 1283 737 1281 c 0,211,212
 741 1280 741 1280 745.5 1279.5 c 128,-1,213
 750 1279 750 1279 755 1278 c 128,-1,214
 760 1277 760 1277 764.5 1275.5 c 128,-1,215
 769 1274 769 1274 773 1270 c 0,216,217
 774 1269 774 1269 773 1267 c 128,-1,218
 772 1265 772 1265 769 1264 c 128,-1,219
 766 1263 766 1263 763.5 1262 c 128,-1,220
 761 1261 761 1261 759 1259 c 0,221,222
 721 1233 721 1233 718 1226 c 0,223,224
 710 1192 710 1192 703 1168 c 128,-1,225
 696 1144 696 1144 688 1125 c 0,226,227
 686 1119 686 1119 681.5 1110.5 c 128,-1,228
 677 1102 677 1102 671 1093 c 128,-1,229
 665 1084 665 1084 659.5 1075.5 c 128,-1,230
 654 1067 654 1067 650 1061 c 1,231,232
 651 1061 651 1061 651 1062 c 1,233,-1
 652 1062 l 0,234,235
 654 1062 654 1062 649 1057 c 0,236,237
 646 1054 646 1054 645 1054 c 1,238,239
 645 1054 645 1054 650 1061 c 1,240,241
 646 1059 646 1059 636 1052.5 c 128,-1,242
 626 1046 626 1046 612 1035.5 c 128,-1,243
 598 1025 598 1025 582 1012.5 c 128,-1,244
 566 1000 566 1000 550 987 c 0,245,246
 534 975 534 975 521.5 964.5 c 128,-1,247
 509 954 509 954 498 946 c 0,248,249
 487 937 487 937 479.5 930 c 128,-1,250
 472 923 472 923 468 919 c 0,251,252
 468 918 468 918 466 917 c 2,253,254
 466 917 466 917 466 916 c 1,255,256
 472 918 472 918 476.5 920.5 c 128,-1,257
 481 923 481 923 485 925 c 0,258,259
 490 928 490 928 490 927 c 2,260,261
 490 927 490 927 488 926 c 0,262,263
 487 925 487 925 483.5 923 c 128,-1,264
 480 921 480 921 477 919.5 c 128,-1,265
 474 918 474 918 471 916.5 c 128,-1,266
 468 915 468 915 467 915 c 256,267,268
 466 915 466 915 466 916 c 1,269,270
 454 910 454 910 438 902.5 c 128,-1,271
 422 895 422 895 405 888.5 c 128,-1,272
 388 882 388 882 371.5 876.5 c 128,-1,273
 355 871 355 871 342 868 c 0,274,275
 333 867 333 867 319 866.5 c 128,-1,276
 305 866 305 866 293.5 865.5 c 128,-1,277
 282 865 282 865 276 864.5 c 128,-1,278
 270 864 270 864 278 861 c 256,279,280
 286 858 286 858 294.5 857 c 128,-1,281
 303 856 303 856 312 856 c 0,282,283
 324 856 324 856 336 857 c 128,-1,284
 348 858 348 858 361 858 c 0,285,286
 364 858 364 858 367 858 c 128,-1,287
 370 858 370 858 373 857 c 0,288,289
 418 854 418 854 452 828 c 0,290,291
 471 814 471 814 471 809 c 0,292,293
 474 801 474 801 460 801 c 0,294,295
 447 801 447 801 436 802 c 128,-1,296
 425 803 425 803 412 806 c 0,297,298
 395 809 395 809 372 811.5 c 128,-1,299
 349 814 349 814 323 818 c 256,300,301
 297 822 297 822 274 824 c 128,-1,302
 251 826 251 826 229 826 c 0,303,304
 225 827 225 827 221 827 c 128,-1,305
 217 827 217 827 213 827 c 0,306,307
 199 827 199 827 185 826.5 c 128,-1,308
 171 826 171 826 157 824 c 0,309,310
 154 823 154 823 149.5 821.5 c 128,-1,311
 145 820 145 820 137 820 c 0,312,313
 132 820 132 820 129 828 c 0,176,177
245 725 m 0,314,315
 248 730 248 730 264 730 c 256,316,317
 280 730 280 730 295.5 728.5 c 128,-1,318
 311 727 311 727 326 725 c 2,319,-1
 373 718 l 2,320,321
 449 706 449 706 467 605 c 0,322,323
 478 543 478 543 492 527 c 256,324,325
 506 511 506 511 523 509 c 0,326,327
 544 507 544 507 544 505 c 0,328,329
 544 501 544 501 537 494 c 0,330,331
 521 478 521 478 484 479 c 0,332,333
 462 479 462 479 437 484 c 128,-1,334
 412 489 412 489 380 501 c 0,335,336
 323 522 323 522 300 654 c 0,337,338
 291 710 291 710 265 710 c 2,339,-1
 250 710 l 2,340,341
 241 710 241 710 239 712 c 0,342,343
 236 713 236 713 245 725 c 0,314,315
EndSplineSet
EndChar

StartChar: oligonKentimaDoubleYpsiliLeft
Encoding: 57356 57356 17
Width: 1368
GlyphClass: 2
Flags: W
HStem: 245 124<232.855 926.371> 264 111<715.555 1167.72> 575 9<1.27002 5.90674> 710 21<762.097 800.912> 827 31<811.281 892.557>
AnchorPoint: "apli" 741 30 basechar 0
AnchorPoint: "klasmaBottom" 723 160 basechar 0
AnchorPoint: "yfesis" 1254 619 basechar 0
AnchorPoint: "diesis" 338 133 basechar 0
AnchorPoint: "psifiston" 778 113 basechar 0
AnchorPoint: "gorgonBottom" 605 125 basechar 0
AnchorPoint: "antikenoma" 758 165 basechar 0
AnchorPoint: "heteron" 1025 227 basechar 0
AnchorPoint: "fthoraTop" 418 1190 basechar 0
AnchorPoint: "fthoraBottom" 727 209 basechar 0
AnchorPoint: "noteTop" 54 820 basechar 0
AnchorPoint: "omalonConnecting" 1409 133 basechar 0
AnchorPoint: "omalon" 969 133 basechar 0
AnchorPoint: "heteronConnecting" 1630 -19 basechar 0
AnchorPoint: "measureNumber" 110 1213 basechar 0
AnchorPoint: "isonIndicator" 730 1405 basechar 0
AnchorPoint: "endofonon" 740 -62 basechar 0
AnchorPoint: "koronis" 721 1441 basechar 0
AnchorPoint: "yfenAbove" 868 1441 basechar 0
AnchorPoint: "yfenBelow" 867 -40 basechar 0
LayerCount: 2
Fore
SplineSet
169 369 m 256,0,1
 213 368 213 368 267 367 c 128,-1,2
 321 366 321 366 392 366 c 0,3,4
 440 366 440 366 519 367 c 128,-1,5
 598 368 598 368 712 370 c 256,6,7
 826 372 826 372 910.5 373.5 c 128,-1,8
 995 375 995 375 1054 375 c 0,9,10
 1161 375 1161 375 1329 277 c 1,11,12
 1338 264 1338 264 1348.5 254 c 128,-1,13
 1359 244 1359 244 1368 233 c 1,14,15
 1354 233 1354 233 1343 236 c 0,16,17
 1313 240 1313 240 1297.5 244 c 128,-1,18
 1282 248 1282 248 1279 248 c 2,19,-1
 1190 256 l 2,20,21
 1148 259 1148 259 1110 261.5 c 128,-1,22
 1072 264 1072 264 1034 264 c 0,23,24
 1006 264 1006 264 947.5 262 c 128,-1,25
 889 260 889 260 796 255 c 256,26,27
 703 250 703 250 636 247.5 c 128,-1,28
 569 245 569 245 523 245 c 0,29,30
 431 245 431 245 340.5 251 c 128,-1,31
 250 257 250 257 159 272 c 0,32,33
 93 282 93 282 12 372 c 1,34,-1
 12 399 l 1,35,36
 49 386 49 386 87 378 c 128,-1,37
 125 370 125 370 169 369 c 256,0,1
646 828 m 0,38,39
 646 829 646 829 647 830 c 0,40,41
 648 830 648 830 652 831 c 0,42,43
 654 832 654 832 649 838 c 0,44,45
 645 843 645 843 652 846 c 0,46,47
 698 863 698 863 738.5 876.5 c 128,-1,48
 779 890 779 890 813 901 c 128,-1,49
 847 912 847 912 874.5 922 c 128,-1,50
 902 932 902 932 922 942 c 0,51,52
 1002 983 1002 983 1047 1056 c 0,53,54
 1054 1068 1054 1068 1061.5 1085.5 c 128,-1,55
 1069 1103 1069 1103 1078 1126.5 c 128,-1,56
 1087 1150 1087 1150 1098.5 1179.5 c 128,-1,57
 1110 1209 1110 1209 1126 1244 c 0,58,59
 1127 1247 1127 1247 1130.5 1248.5 c 128,-1,60
 1134 1250 1134 1250 1138 1250.5 c 128,-1,61
 1142 1251 1142 1251 1146.5 1251.5 c 128,-1,62
 1151 1252 1151 1252 1155 1255 c 0,63,64
 1167 1262 1167 1262 1175.5 1266 c 128,-1,65
 1184 1270 1184 1270 1187 1272 c 0,66,67
 1200 1278 1200 1278 1208 1280.5 c 128,-1,68
 1216 1283 1216 1283 1219 1285 c 2,69,-1
 1232 1285 l 2,70,71
 1237 1285 1237 1285 1242.5 1284.5 c 128,-1,72
 1248 1284 1248 1284 1253 1282 c 0,73,74
 1257 1281 1257 1281 1262 1280 c 128,-1,75
 1267 1279 1267 1279 1271.5 1278.5 c 128,-1,76
 1276 1278 1276 1278 1281 1276 c 128,-1,77
 1286 1274 1286 1274 1290 1270 c 0,78,79
 1291 1269 1291 1269 1290 1267.5 c 128,-1,80
 1289 1266 1289 1266 1286 1265 c 128,-1,81
 1283 1264 1283 1264 1280 1262.5 c 128,-1,82
 1277 1261 1277 1261 1275 1260 c 0,83,84
 1237 1234 1237 1234 1235 1227 c 0,85,86
 1227 1193 1227 1193 1219.5 1169 c 128,-1,87
 1212 1145 1212 1145 1205 1125 c 0,88,89
 1203 1119 1203 1119 1198 1110.5 c 128,-1,90
 1193 1102 1193 1102 1187.5 1093 c 128,-1,91
 1182 1084 1182 1084 1176 1076 c 128,-1,92
 1170 1068 1170 1068 1167 1062 c 1,93,94
 1167 1062 1167 1062 1168 1062 c 1,95,96
 1168 1062 1168 1062 1168 1063 c 1,97,98
 1170 1063 1170 1063 1166 1058 c 0,99,100
 1163 1055 1163 1055 1162 1055 c 1,101,102
 1162 1055 1162 1055 1167 1062 c 1,103,104
 1163 1060 1163 1060 1153 1053 c 128,-1,105
 1143 1046 1143 1046 1129 1036 c 128,-1,106
 1115 1026 1115 1026 1099 1013.5 c 128,-1,107
 1083 1001 1083 1001 1066 988 c 0,108,109
 1050 976 1050 976 1037.5 965.5 c 128,-1,110
 1025 955 1025 955 1015 946 c 0,111,112
 1004 937 1004 937 996.5 930.5 c 128,-1,113
 989 924 989 924 985 920 c 0,114,115
 985 919 985 919 983 917 c 2,116,117
 983 917 983 917 982 916 c 1,118,119
 988 918 988 918 993 920.5 c 128,-1,120
 998 923 998 923 1001 925 c 0,121,122
 1006 928 1006 928 1007 928 c 1,123,124
 1007 928 1007 928 1005 927 c 0,125,126
 1004 926 1004 926 1000.5 924 c 128,-1,127
 997 922 997 922 994 920 c 128,-1,128
 991 918 991 918 988 917 c 128,-1,129
 985 916 985 916 983 916 c 0,130,131
 982 916 982 916 982 916 c 1,132,133
 970 910 970 910 954 903 c 128,-1,134
 938 896 938 896 921.5 889 c 128,-1,135
 905 882 905 882 888.5 876.5 c 128,-1,136
 872 871 872 871 858 869 c 0,137,138
 849 868 849 868 835.5 867.5 c 128,-1,139
 822 867 822 867 810.5 866.5 c 128,-1,140
 799 866 799 866 793 865 c 128,-1,141
 787 864 787 864 794 861 c 0,142,143
 802 858 802 858 811 857 c 128,-1,144
 820 856 820 856 829 856 c 0,145,146
 841 856 841 856 853 857 c 128,-1,147
 865 858 865 858 877 858 c 0,148,149
 880 858 880 858 883.5 858 c 128,-1,150
 887 858 887 858 890 858 c 0,151,152
 935 855 935 855 969 828 c 0,153,154
 988 814 988 814 988 809 c 0,155,156
 991 801 991 801 977 802 c 0,157,158
 964 802 964 802 952.5 803 c 128,-1,159
 941 804 941 804 929 806 c 0,160,161
 912 809 912 809 889 812 c 128,-1,162
 866 815 866 815 839 819 c 0,163,164
 813 823 813 823 790.5 825 c 128,-1,165
 768 827 768 827 746 827 c 0,166,167
 742 828 742 828 737.5 827.5 c 128,-1,168
 733 827 733 827 730 827 c 0,169,170
 716 827 716 827 702 827 c 128,-1,171
 688 827 688 827 674 825 c 0,172,173
 671 824 671 824 666.5 822.5 c 128,-1,174
 662 821 662 821 654 821 c 0,175,176
 649 820 649 820 646 828 c 0,38,39
8 575 m 0,177,178
 2 575 2 575 0 583 c 0,179,180
 0 584 0 584 2 584 c 0,181,182
 3 584 3 584 6 586 c 0,183,184
 8 587 8 587 4 593 c 0,185,186
 0 598 0 598 6 600 c 0,187,188
 52 617 52 617 92.5 630.5 c 128,-1,189
 133 644 133 644 167.5 655 c 128,-1,190
 202 666 202 666 229 676 c 128,-1,191
 256 686 256 686 277 697 c 0,192,193
 357 738 357 738 402 811 c 0,194,195
 409 823 409 823 416.5 840.5 c 128,-1,196
 424 858 424 858 432.5 881.5 c 128,-1,197
 441 905 441 905 452.5 934 c 128,-1,198
 464 963 464 963 480 998 c 0,199,200
 481 1001 481 1001 484.5 1002.5 c 128,-1,201
 488 1004 488 1004 492.5 1004.5 c 128,-1,202
 497 1005 497 1005 501.5 1006 c 128,-1,203
 506 1007 506 1007 510 1009 c 0,204,205
 522 1016 522 1016 530 1020.5 c 128,-1,206
 538 1025 538 1025 541 1026 c 0,207,208
 554 1032 554 1032 562.5 1034.5 c 128,-1,209
 571 1037 571 1037 574 1039 c 2,210,-1
 587 1039 l 2,211,212
 592 1039 592 1039 597.5 1038.5 c 128,-1,213
 603 1038 603 1038 608 1036 c 0,214,215
 612 1035 612 1035 616.5 1034.5 c 128,-1,216
 621 1034 621 1034 626 1033 c 128,-1,217
 631 1032 631 1032 635.5 1030.5 c 128,-1,218
 640 1029 640 1029 644 1025 c 0,219,220
 645 1024 645 1024 644 1022.5 c 128,-1,221
 643 1021 643 1021 640.5 1019.5 c 128,-1,222
 638 1018 638 1018 635 1016.5 c 128,-1,223
 632 1015 632 1015 630 1014 c 0,224,225
 592 988 592 988 589 981 c 0,226,227
 581 947 581 947 574 923 c 128,-1,228
 567 899 567 899 560 880 c 0,229,230
 558 874 558 874 553 865.5 c 128,-1,231
 548 857 548 857 542 848 c 128,-1,232
 536 839 536 839 530.5 830.5 c 128,-1,233
 525 822 525 822 521 816 c 1,234,235
 522 816 522 816 522 817 c 1,236,-1
 523 817 l 0,237,238
 525 817 525 817 521 812 c 0,239,240
 518 809 518 809 517 809 c 1,241,242
 517 809 517 809 521 816 c 1,243,244
 517 814 517 814 507 807.5 c 128,-1,245
 497 801 497 801 483 790.5 c 128,-1,246
 469 780 469 780 453 767.5 c 128,-1,247
 437 755 437 755 421 742 c 0,248,249
 405 730 405 730 392.5 719.5 c 128,-1,250
 380 709 380 709 369 701 c 0,251,252
 358 692 358 692 350.5 685 c 128,-1,253
 343 678 343 678 339 674 c 0,254,255
 339 673 339 673 337 672 c 2,256,257
 337 672 337 672 337 671 c 0,258,259
 325 665 325 665 309 657.5 c 128,-1,260
 293 650 293 650 276 643.5 c 128,-1,261
 259 637 259 637 242.5 631.5 c 128,-1,262
 226 626 226 626 213 623 c 0,263,264
 204 622 204 622 190.5 621.5 c 128,-1,265
 177 621 177 621 165 620.5 c 128,-1,266
 153 620 153 620 147.5 619.5 c 128,-1,267
 142 619 142 619 149 616 c 0,268,269
 157 613 157 613 165.5 612 c 128,-1,270
 174 611 174 611 183 611 c 0,271,272
 195 611 195 611 207 612 c 128,-1,273
 219 613 219 613 232 613 c 0,274,275
 235 613 235 613 238 613 c 128,-1,276
 241 613 241 613 244 612 c 0,277,278
 289 609 289 609 324 583 c 0,279,280
 343 569 343 569 342 564 c 0,281,282
 345 556 345 556 332 556 c 256,283,284
 319 556 319 556 307.5 557 c 128,-1,285
 296 558 296 558 283 561 c 0,286,287
 266 564 266 564 243.5 566.5 c 128,-1,288
 221 569 221 569 194 573 c 0,289,290
 168 577 168 577 145 579 c 128,-1,291
 122 581 122 581 100 581 c 0,292,293
 96 582 96 582 92 582 c 128,-1,294
 88 582 88 582 84 582 c 0,295,296
 70 582 70 582 56 581.5 c 128,-1,297
 42 581 42 581 28 579 c 0,298,299
 25 578 25 578 20.5 576.5 c 128,-1,300
 16 575 16 575 8 575 c 0,177,178
762 726 m 0,301,302
 765 731 765 731 781 731 c 256,303,304
 797 731 797 731 812.5 729.5 c 128,-1,305
 828 728 828 728 843 726 c 2,306,-1
 890 718 l 2,307,308
 966 706 966 706 984 606 c 0,309,310
 995 544 995 544 1009 528 c 256,311,312
 1023 512 1023 512 1040 509 c 0,313,314
 1061 507 1061 507 1061 506 c 0,315,316
 1061 502 1061 502 1054 495 c 0,317,318
 1038 479 1038 479 1001 479 c 0,319,320
 979 479 979 479 954 484.5 c 128,-1,321
 929 490 929 490 896 501 c 0,322,323
 839 522 839 522 817 654 c 0,324,325
 808 710 808 710 782 710 c 2,326,-1
 767 710 l 2,327,328
 758 710 758 710 756 712 c 0,329,330
 753 714 753 714 762 726 c 0,301,302
EndSplineSet
EndChar

StartChar: oligonTripleYpsili
Encoding: 57357 57357 18
Width: 1495
GlyphClass: 2
Flags: W
HStem: 242 121.5<224.358 912.385> 261 111<704.555 1156.72> 574 9<1.64258 5.90674 427.625 431.876 852.643 856.907> 580 32<591.281 680.094 1033.38 1106.08>
AnchorPoint: "apli" 719 30 basechar 0
AnchorPoint: "klasmaBottom" 701 160 basechar 0
AnchorPoint: "yfesis" 1386 670 basechar 0
AnchorPoint: "diesis" 316 133 basechar 0
AnchorPoint: "psifiston" 756 113 basechar 0
AnchorPoint: "gorgonBottom" 583 125 basechar 0
AnchorPoint: "antikenoma" 736 165 basechar 0
AnchorPoint: "heteron" 1003 227 basechar 0
AnchorPoint: "fthoraTop" 779 1239 basechar 0
AnchorPoint: "fthoraBottom" 705 209 basechar 0
AnchorPoint: "noteTop" 32 820 basechar 0
AnchorPoint: "omalonConnecting" 1387 133 basechar 0
AnchorPoint: "omalon" 947 133 basechar 0
AnchorPoint: "heteronConnecting" 1608 -19 basechar 0
AnchorPoint: "measureNumber" 88 1213 basechar 0
AnchorPoint: "isonIndicator" 708 1158 basechar 0
AnchorPoint: "endofonon" 718 -62 basechar 0
AnchorPoint: "koronis" 699 1281 basechar 0
AnchorPoint: "yfenAbove" 846 1281 basechar 0
AnchorPoint: "yfenBelow" 845 -40 basechar 0
LayerCount: 2
Fore
SplineSet
0 395 m 1,0,1
 37 382 37 382 75.5 374.5 c 128,-1,2
 114 367 114 367 158 366 c 256,3,4
 202 365 202 365 256 363.5 c 128,-1,5
 310 362 310 362 380 362 c 0,6,7
 428 362 428 362 507.5 363.5 c 128,-1,8
 587 365 587 365 701 367 c 256,9,10
 815 369 815 369 899.5 370.5 c 128,-1,11
 984 372 984 372 1043 372 c 0,12,13
 1150 372 1150 372 1318 273 c 1,14,15
 1327 260 1327 260 1337.5 250.5 c 128,-1,16
 1348 241 1348 241 1357 229 c 1,17,18
 1343 229 1343 229 1332 233 c 0,19,20
 1302 237 1302 237 1286.5 241 c 128,-1,21
 1271 245 1271 245 1268 245 c 2,22,-1
 1179 253 l 2,23,24
 1137 256 1137 256 1099 258.5 c 128,-1,25
 1061 261 1061 261 1022 261 c 0,26,27
 994 261 994 261 935.5 258.5 c 128,-1,28
 877 256 877 256 785 251 c 0,29,30
 692 246 692 246 625 244 c 128,-1,31
 558 242 558 242 512 242 c 0,32,33
 420 242 420 242 329.5 248 c 128,-1,34
 239 254 239 254 147 268 c 0,35,36
 81 278 81 278 0 369 c 1,37,-1
 0 395 l 1,0,1
0 582 m 0,38,39
 0 583 0 583 2 583 c 0,40,41
 3 583 3 583 6 585 c 0,42,43
 8 586 8 586 4 592 c 0,44,45
 0 597 0 597 6 599 c 0,46,47
 52 616 52 616 92.5 629.5 c 128,-1,48
 133 643 133 643 167.5 654 c 128,-1,49
 202 665 202 665 229 675 c 128,-1,50
 256 685 256 685 277 696 c 0,51,52
 357 738 357 738 402 810 c 0,53,54
 409 822 409 822 416.5 839.5 c 128,-1,55
 424 857 424 857 432.5 880.5 c 128,-1,56
 441 904 441 904 452.5 933 c 128,-1,57
 464 962 464 962 480 997 c 0,58,59
 481 1000 481 1000 484.5 1001.5 c 128,-1,60
 488 1003 488 1003 492.5 1003.5 c 128,-1,61
 497 1004 497 1004 501.5 1005 c 128,-1,62
 506 1006 506 1006 510 1008 c 0,63,64
 522 1015 522 1015 530 1019.5 c 128,-1,65
 538 1024 538 1024 541 1025 c 0,66,67
 554 1031 554 1031 562.5 1033.5 c 128,-1,68
 571 1036 571 1036 574 1038 c 2,69,-1
 587 1038 l 2,70,71
 592 1038 592 1038 597.5 1037.5 c 128,-1,72
 603 1037 603 1037 608 1035 c 0,73,74
 612 1034 612 1034 616.5 1033.5 c 128,-1,75
 621 1033 621 1033 626 1032 c 128,-1,76
 631 1031 631 1031 635.5 1029.5 c 128,-1,77
 640 1028 640 1028 644 1024 c 0,78,79
 645 1023 645 1023 644 1021 c 128,-1,80
 643 1019 643 1019 640.5 1018 c 128,-1,81
 638 1017 638 1017 635 1016 c 128,-1,82
 632 1015 632 1015 630 1013 c 0,83,84
 592 987 592 987 589 980 c 0,85,86
 583 955 583 955 578 934 c 128,-1,87
 573 913 573 913 565.5 893.5 c 128,-1,88
 558 874 558 874 547.5 855 c 128,-1,89
 537 836 537 836 521 815 c 1,90,91
 522 815 522 815 522 816 c 1,92,-1
 523 816 l 1,93,94
 525 816 525 816 520 811 c 2,95,-1
 517 807 l 1,96,97
 517 807 517 807 517 808 c 128,-1,98
 517 809 517 809 518 809 c 0,99,100
 519 810 519 810 519.5 811.5 c 128,-1,101
 520 813 520 813 521 815 c 1,102,103
 517 813 517 813 507 806.5 c 128,-1,104
 497 800 497 800 483 789.5 c 128,-1,105
 469 779 469 779 453 766.5 c 128,-1,106
 437 754 437 754 421 741 c 0,107,108
 405 729 405 729 392.5 718.5 c 128,-1,109
 380 708 380 708 369 700 c 0,110,111
 358 691 358 691 350.5 684 c 128,-1,112
 343 677 343 677 339 673 c 0,113,114
 339 672 339 672 337 671 c 2,115,116
 337 671 337 671 337 670 c 1,117,118
 343 672 343 672 347.5 674.5 c 128,-1,119
 352 677 352 677 356 679 c 0,120,121
 361 682 361 682 362 681 c 1,122,123
 362 681 362 681 359 680 c 0,124,125
 358 679 358 679 355 677 c 128,-1,126
 352 675 352 675 348.5 673.5 c 128,-1,127
 345 672 345 672 342 670.5 c 128,-1,128
 339 669 339 669 338 669 c 256,129,130
 337 669 337 669 337 670 c 1,131,132
 325 664 325 664 309 656.5 c 128,-1,133
 293 649 293 649 276 642.5 c 128,-1,134
 259 636 259 636 242.5 630.5 c 128,-1,135
 226 625 226 625 213 622 c 0,136,137
 204 621 204 621 190.5 620.5 c 128,-1,138
 177 620 177 620 165 619.5 c 128,-1,139
 153 619 153 619 147.5 618.5 c 128,-1,140
 142 618 142 618 149 615 c 0,141,142
 157 612 157 612 165.5 611 c 128,-1,143
 174 610 174 610 183 610 c 0,144,145
 195 610 195 610 207 611 c 128,-1,146
 219 612 219 612 232 612 c 0,147,148
 235 612 235 612 238 612 c 128,-1,149
 241 612 241 612 244 611 c 0,150,151
 289 608 289 608 324 582 c 0,152,153
 343 568 343 568 342 563 c 0,154,155
 345 555 345 555 332 555 c 256,156,157
 319 555 319 555 307.5 556 c 128,-1,158
 296 557 296 557 283 560 c 0,159,160
 266 563 266 563 243.5 565.5 c 128,-1,161
 221 568 221 568 194 572 c 0,162,163
 168 576 168 576 145 578 c 128,-1,164
 122 580 122 580 100 580 c 0,165,166
 96 581 96 581 92 581 c 128,-1,167
 88 581 88 581 84 581 c 0,168,169
 70 581 70 581 56 580.5 c 128,-1,170
 42 580 42 580 28 578 c 0,171,172
 25 577 25 577 20.5 575.5 c 128,-1,173
 16 574 16 574 8 574 c 0,174,175
 3 574 3 574 0 582 c 0,38,39
426 582 m 0,176,177
 426 583 426 583 427 583 c 256,178,179
 428 583 428 583 432 585 c 0,180,181
 434 586 434 586 429 592 c 0,182,183
 425 597 425 597 432 599 c 0,184,185
 478 616 478 616 518.5 629.5 c 128,-1,186
 559 643 559 643 593 654 c 128,-1,187
 627 665 627 665 654.5 675 c 128,-1,188
 682 685 682 685 702 696 c 0,189,190
 782 737 782 737 827 810 c 0,191,192
 834 822 834 822 841.5 839.5 c 128,-1,193
 849 857 849 857 858 880.5 c 128,-1,194
 867 904 867 904 878.5 933 c 128,-1,195
 890 962 890 962 905 997 c 0,196,197
 906 1000 906 1000 910 1001.5 c 128,-1,198
 914 1003 914 1003 918 1003.5 c 128,-1,199
 922 1004 922 1004 926.5 1005 c 128,-1,200
 931 1006 931 1006 935 1008 c 0,201,202
 947 1015 947 1015 955 1019.5 c 128,-1,203
 963 1024 963 1024 966 1025 c 0,204,205
 979 1031 979 1031 987.5 1033.5 c 128,-1,206
 996 1036 996 1036 999 1038 c 2,207,-1
 1012 1038 l 2,208,209
 1017 1038 1017 1038 1022.5 1037.5 c 128,-1,210
 1028 1037 1028 1037 1033 1035 c 0,211,212
 1037 1034 1037 1034 1041.5 1033.5 c 128,-1,213
 1046 1033 1046 1033 1051 1032 c 128,-1,214
 1056 1031 1056 1031 1060.5 1029.5 c 128,-1,215
 1065 1028 1065 1028 1069 1024 c 0,216,217
 1070 1023 1070 1023 1069 1021 c 128,-1,218
 1068 1019 1068 1019 1065.5 1018 c 128,-1,219
 1063 1017 1063 1017 1060 1016 c 128,-1,220
 1057 1015 1057 1015 1055 1013 c 0,221,222
 1017 987 1017 987 1015 980 c 0,223,224
 1007 946 1007 946 999.5 922 c 128,-1,225
 992 898 992 898 985 879 c 0,226,227
 983 873 983 873 978 864.5 c 128,-1,228
 973 856 973 856 967 847 c 128,-1,229
 961 838 961 838 955.5 829.5 c 128,-1,230
 950 821 950 821 946 815 c 1,231,232
 947 815 947 815 947 816 c 1,233,-1
 948 816 l 1,234,235
 950 816 950 816 946 811 c 0,236,237
 943 808 943 808 942 808 c 1,238,239
 942 808 942 808 946 815 c 1,240,241
 942 813 942 813 932 806.5 c 128,-1,242
 922 800 922 800 908.5 789.5 c 128,-1,243
 895 779 895 779 878.5 766.5 c 128,-1,244
 862 754 862 754 846 741 c 0,245,246
 830 729 830 729 817.5 718.5 c 128,-1,247
 805 708 805 708 794 700 c 0,248,249
 783 691 783 691 776 684 c 128,-1,250
 769 677 769 677 765 673 c 0,251,252
 765 672 765 672 763 671 c 2,253,254
 763 671 763 671 762 670 c 1,255,256
 768 672 768 672 772.5 674.5 c 128,-1,257
 777 677 777 677 781 679 c 0,258,259
 786 682 786 682 787 681 c 1,260,261
 787 681 787 681 785 680 c 0,262,263
 784 679 784 679 780.5 677 c 128,-1,264
 777 675 777 675 773.5 673.5 c 128,-1,265
 770 672 770 672 767.5 670.5 c 128,-1,266
 765 669 765 669 763 669 c 0,267,268
 762 669 762 669 762 670 c 1,269,270
 750 664 750 664 734 656.5 c 128,-1,271
 718 649 718 649 701.5 642.5 c 128,-1,272
 685 636 685 636 668 630.5 c 128,-1,273
 651 625 651 625 638 622 c 0,274,275
 629 621 629 621 615.5 620.5 c 128,-1,276
 602 620 602 620 590.5 619.5 c 128,-1,277
 579 619 579 619 573 618.5 c 128,-1,278
 567 618 567 618 574 615 c 0,279,280
 582 612 582 612 591 611 c 128,-1,281
 600 610 600 610 608 610 c 0,282,283
 620 610 620 610 632.5 611 c 128,-1,284
 645 612 645 612 657 612 c 0,285,286
 660 612 660 612 663 612 c 128,-1,287
 666 612 666 612 669 611 c 0,288,289
 714 608 714 608 749 582 c 0,290,291
 768 568 768 568 768 563 c 0,292,293
 771 555 771 555 757 555 c 0,294,295
 744 555 744 555 732.5 556 c 128,-1,296
 721 557 721 557 708 560 c 0,297,298
 691 563 691 563 668.5 565.5 c 128,-1,299
 646 568 646 568 619 572 c 0,300,301
 593 576 593 576 570 578 c 128,-1,302
 547 580 547 580 525 580 c 0,303,304
 521 581 521 581 517 581 c 128,-1,305
 513 581 513 581 509 581 c 0,306,307
 495 581 495 581 481.5 580.5 c 128,-1,308
 468 580 468 580 454 578 c 0,309,310
 451 577 451 577 446 575.5 c 128,-1,311
 441 574 441 574 434 574 c 0,312,313
 429 574 429 574 426 582 c 0,176,177
859 574 m 0,314,315
 854 574 854 574 851 582 c 0,316,317
 851 583 851 583 853 583 c 0,318,319
 854 583 854 583 857 585 c 0,320,321
 859 586 859 586 854 592 c 0,322,323
 850 597 850 597 857 599 c 0,324,325
 903 616 903 616 943.5 629.5 c 128,-1,326
 984 643 984 643 1018 654 c 128,-1,327
 1052 665 1052 665 1079.5 675 c 128,-1,328
 1107 685 1107 685 1127 696 c 0,329,330
 1207 736 1207 736 1252 810 c 0,331,332
 1259 822 1259 822 1266.5 839.5 c 128,-1,333
 1274 857 1274 857 1283 880.5 c 128,-1,334
 1292 904 1292 904 1303.5 933 c 128,-1,335
 1315 962 1315 962 1331 997 c 0,336,337
 1332 1001 1332 1001 1335 1002 c 128,-1,338
 1338 1003 1338 1003 1342.5 1003.5 c 128,-1,339
 1347 1004 1347 1004 1351.5 1004.5 c 128,-1,340
 1356 1005 1356 1005 1360 1008 c 0,341,342
 1372 1015 1372 1015 1380.5 1019.5 c 128,-1,343
 1389 1024 1389 1024 1392 1025 c 0,344,345
 1405 1031 1405 1031 1413 1033.5 c 128,-1,346
 1421 1036 1421 1036 1424 1038 c 2,347,-1
 1437 1038 l 2,348,349
 1442 1038 1442 1038 1447.5 1037.5 c 128,-1,350
 1453 1037 1453 1037 1458 1035 c 0,351,352
 1462 1034 1462 1034 1467 1033.5 c 128,-1,353
 1472 1033 1472 1033 1476.5 1032 c 128,-1,354
 1481 1031 1481 1031 1486 1029.5 c 128,-1,355
 1491 1028 1491 1028 1495 1024 c 0,356,357
 1496 1023 1496 1023 1494.5 1021 c 128,-1,358
 1493 1019 1493 1019 1490.5 1017.5 c 128,-1,359
 1488 1016 1488 1016 1485 1015 c 128,-1,360
 1482 1014 1482 1014 1480 1013 c 0,361,362
 1442 987 1442 987 1440 980 c 0,363,364
 1432 946 1432 946 1424.5 922 c 128,-1,365
 1417 898 1417 898 1410 879 c 0,366,367
 1408 873 1408 873 1403.5 864.5 c 128,-1,368
 1399 856 1399 856 1393 847 c 128,-1,369
 1387 838 1387 838 1381 829.5 c 128,-1,370
 1375 821 1375 821 1372 815 c 1,371,372
 1372 815 1372 815 1374 816 c 0,373,374
 1376 816 1376 816 1371 811 c 2,375,-1
 1367 807 l 1,376,377
 1367 807 1367 807 1372 815 c 1,378,379
 1368 813 1368 813 1357.5 806.5 c 128,-1,380
 1347 800 1347 800 1333 789.5 c 128,-1,381
 1319 779 1319 779 1303.5 766.5 c 128,-1,382
 1288 754 1288 754 1271 741 c 0,383,384
 1255 729 1255 729 1242.5 718.5 c 128,-1,385
 1230 708 1230 708 1220 700 c 0,386,387
 1209 691 1209 691 1201.5 684 c 128,-1,388
 1194 677 1194 677 1190 673 c 0,389,390
 1190 672 1190 672 1188 671 c 2,391,392
 1188 671 1188 671 1187 670 c 1,393,394
 1193 672 1193 672 1198 674.5 c 128,-1,395
 1203 677 1203 677 1207 679 c 0,396,397
 1212 682 1212 682 1212 681 c 2,398,399
 1212 681 1212 681 1210 680 c 0,400,401
 1209 679 1209 679 1205.5 677 c 128,-1,402
 1202 675 1202 675 1199 673.5 c 128,-1,403
 1196 672 1196 672 1193 670.5 c 128,-1,404
 1190 669 1190 669 1188 669 c 0,405,406
 1187 669 1187 669 1187 670 c 1,407,408
 1175 664 1175 664 1159.5 656.5 c 128,-1,409
 1144 649 1144 649 1127 642.5 c 128,-1,410
 1110 636 1110 636 1093.5 630.5 c 128,-1,411
 1077 625 1077 625 1063 622 c 0,412,413
 1055 621 1055 621 1041 620.5 c 128,-1,414
 1027 620 1027 620 1015 619.5 c 128,-1,415
 1003 619 1003 619 997.5 618.5 c 128,-1,416
 992 618 992 618 999 615 c 0,417,418
 1007 612 1007 612 1015.5 611 c 128,-1,419
 1024 610 1024 610 1033 610 c 0,420,421
 1045 610 1045 610 1057 611 c 128,-1,422
 1069 612 1069 612 1082 612 c 0,423,424
 1085 612 1085 612 1088.5 612 c 128,-1,425
 1092 612 1092 612 1095 611 c 0,426,427
 1140 608 1140 608 1174 582 c 0,428,429
 1193 568 1193 568 1193 563 c 0,430,431
 1196 555 1196 555 1182 555 c 0,432,433
 1169 555 1169 555 1157.5 556 c 128,-1,434
 1146 557 1146 557 1134 560 c 0,435,436
 1117 563 1117 563 1094 565.5 c 128,-1,437
 1071 568 1071 568 1044 572 c 0,438,439
 1018 576 1018 576 995.5 578 c 128,-1,440
 973 580 973 580 951 580 c 0,441,442
 947 581 947 581 942.5 581 c 128,-1,443
 938 581 938 581 935 581 c 0,444,445
 921 581 921 581 907 580.5 c 128,-1,446
 893 580 893 580 879 578 c 0,447,448
 876 577 876 577 871.5 575.5 c 128,-1,449
 867 574 867 574 859 574 c 0,314,315
EndSplineSet
EndChar

StartChar: oligonKentimataTripleYpsili
Encoding: 57358 57358 19
Width: 1794
GlyphClass: 2
Flags: W
HStem: 241 120<379.021 1062.35> 259 111<859.005 1307.72> 468 25<821.422 858.081 1032.94 1066.13> 476 9<1.5625 4.90674 1150.12 1154.91> 482 30<164.766 246.633 1332.38 1386.54> 666 17<607.032 640.882 829.414 856.186> 786 9<607.625 611.876> 792 30<770.766 852.625>
AnchorPoint: "apli" 825 13 basechar 0
AnchorPoint: "klasmaBottom" 807 160 basechar 0
AnchorPoint: "yfesis" 1352 870 basechar 0
AnchorPoint: "diesis" 422 133 basechar 0
AnchorPoint: "psifiston" 862 113 basechar 0
AnchorPoint: "gorgonBottom" 689 125 basechar 0
AnchorPoint: "antikenoma" 842 165 basechar 0
AnchorPoint: "heteron" 1109 227 basechar 0
AnchorPoint: "fthoraTop" 1302 1329 basechar 0
AnchorPoint: "fthoraBottom" 811 209 basechar 0
AnchorPoint: "noteTop" 138 820 basechar 0
AnchorPoint: "omalonConnecting" 1493 133 basechar 0
AnchorPoint: "omalon" 1053 133 basechar 0
AnchorPoint: "heteronConnecting" 1714 -19 basechar 0
AnchorPoint: "measureNumber" 194 1213 basechar 0
AnchorPoint: "isonIndicator" 814 1370 basechar 0
AnchorPoint: "endofonon" 824 -62 basechar 0
AnchorPoint: "koronis" 805 1461 basechar 0
AnchorPoint: "yfenAbove" 952 1461 basechar 0
AnchorPoint: "yfenBelow" 951 -40 basechar 0
LayerCount: 2
Fore
SplineSet
310 364 m 0,0,1
 347 363 347 363 389.5 362 c 128,-1,2
 432 361 432 361 487 361 c 2,3,-1
 532 361 l 2,4,5
 580 361 580 361 659 362 c 128,-1,6
 738 363 738 363 852 366 c 0,7,8
 1077 370 1077 370 1194 370 c 0,9,10
 1301 370 1301 370 1469 272 c 1,11,12
 1478 259 1478 259 1488.5 249 c 128,-1,13
 1499 239 1499 239 1508 228 c 1,14,15
 1501 228 1501 228 1495.5 228.5 c 128,-1,16
 1490 229 1490 229 1483 231 c 0,17,18
 1453 236 1453 236 1437.5 240 c 128,-1,19
 1422 244 1422 244 1419 244 c 2,20,-1
 1330 251 l 2,21,22
 1288 254 1288 254 1250 256.5 c 128,-1,23
 1212 259 1212 259 1174 259 c 0,24,25
 1146 259 1146 259 1087.5 257 c 128,-1,26
 1029 255 1029 255 937 250 c 0,27,28
 844 245 844 245 776.5 243 c 128,-1,29
 709 241 709 241 663 241 c 0,30,31
 570 241 570 241 480.5 247 c 128,-1,32
 391 253 391 253 299 267 c 0,33,34
 233 277 233 277 152 367 c 1,35,-1
 152 393 l 1,36,37
 189 381 189 381 227.5 373 c 128,-1,38
 266 365 266 365 310 364 c 0,0,1
0 484 m 0,39,40
 0 485 0 485 1 485 c 256,41,42
 2 485 2 485 5 487 c 0,43,44
 7 488 7 488 3 494 c 0,45,46
 -1 499 -1 499 5 501 c 0,47,48
 52 518 52 518 92.5 531 c 128,-1,49
 133 544 133 544 167 555.5 c 128,-1,50
 201 567 201 567 228 577 c 128,-1,51
 255 587 255 587 276 598 c 0,52,53
 355 640 355 640 401 712 c 0,54,55
 408 724 408 724 415.5 741.5 c 128,-1,56
 423 759 423 759 432 782.5 c 128,-1,57
 441 806 441 806 452.5 835 c 128,-1,58
 464 864 464 864 480 899 c 0,59,60
 481 902 481 902 484 903.5 c 128,-1,61
 487 905 487 905 491.5 905.5 c 128,-1,62
 496 906 496 906 500.5 907 c 128,-1,63
 505 908 505 908 509 910 c 0,64,65
 521 917 521 917 529 921 c 128,-1,66
 537 925 537 925 541 927 c 0,67,68
 553 933 553 933 561.5 935.5 c 128,-1,69
 570 938 570 938 573 940 c 2,70,-1
 586 940 l 2,71,72
 591 940 591 940 596.5 939.5 c 128,-1,73
 602 939 602 939 607 937 c 0,74,75
 611 936 611 936 616 935 c 128,-1,76
 621 934 621 934 625.5 933.5 c 128,-1,77
 630 933 630 933 635 931.5 c 128,-1,78
 640 930 640 930 644 926 c 0,79,80
 645 925 645 925 643.5 923 c 128,-1,81
 642 921 642 921 639.5 920 c 128,-1,82
 637 919 637 919 634 917.5 c 128,-1,83
 631 916 631 916 629 915 c 0,84,85
 591 889 591 889 589 882 c 0,86,87
 581 848 581 848 573.5 824 c 128,-1,88
 566 800 566 800 559 781 c 0,89,90
 557 775 557 775 552 766.5 c 128,-1,91
 547 758 547 758 541.5 749 c 128,-1,92
 536 740 536 740 530 731.5 c 128,-1,93
 524 723 524 723 521 717 c 1,94,95
 522 717 522 717 522 718 c 1,96,97
 524 718 524 718 520 713 c 0,98,99
 517 710 517 710 516 710 c 1,100,101
 516 710 516 710 521 717 c 1,102,103
 517 715 517 715 507 708.5 c 128,-1,104
 497 702 497 702 483 691.5 c 128,-1,105
 469 681 469 681 453 668.5 c 128,-1,106
 437 656 437 656 420 643 c 0,107,108
 404 631 404 631 391.5 620.5 c 128,-1,109
 379 610 379 610 369 601 c 0,110,111
 358 592 358 592 350.5 585.5 c 128,-1,112
 343 579 343 579 339 575 c 0,113,114
 339 574 339 574 337 573 c 2,115,116
 337 573 337 573 336 572 c 1,117,118
 341 574 341 574 346 576.5 c 128,-1,119
 351 579 351 579 355 580 c 0,120,121
 360 583 360 583 361 583 c 128,-1,122
 362 583 362 583 352 578 c 0,123,124
 341 572 341 572 337 571 c 0,125,126
 336 571 336 571 336 572 c 1,127,128
 324 566 324 566 308.5 558.5 c 128,-1,129
 293 551 293 551 276 544.5 c 128,-1,130
 259 538 259 538 242.5 532.5 c 128,-1,131
 226 527 226 527 212 524 c 0,132,133
 204 523 204 523 190 522.5 c 128,-1,134
 176 522 176 522 164 521.5 c 128,-1,135
 152 521 152 521 146.5 520 c 128,-1,136
 141 519 141 519 148 517 c 0,137,138
 156 514 156 514 164.5 513 c 128,-1,139
 173 512 173 512 182 512 c 0,140,141
 194 512 194 512 206 513 c 128,-1,142
 218 514 218 514 231 514 c 0,143,144
 256 514 256 514 279.5 506.5 c 128,-1,145
 303 499 303 499 323 484 c 0,146,147
 341 470 341 470 342 465 c 0,148,149
 345 457 345 457 331 457 c 0,150,151
 318 457 318 457 306.5 458 c 128,-1,152
 295 459 295 459 283 462 c 0,153,154
 265 465 265 465 242.5 467.5 c 128,-1,155
 220 470 220 470 193 474 c 128,-1,156
 166 478 166 478 144 480 c 128,-1,157
 122 482 122 482 100 482 c 0,158,159
 96 483 96 483 91.5 483 c 128,-1,160
 87 483 87 483 84 483 c 0,161,162
 70 483 70 483 56 482.5 c 128,-1,163
 42 482 42 482 27 480 c 0,164,165
 24 479 24 479 19.5 477.5 c 128,-1,166
 15 476 15 476 7 476 c 0,167,168
 3 476 3 476 0 484 c 0,39,40
614 786 m 0,169,170
 609 786 609 786 606 794 c 0,171,172
 606 795 606 795 607 795 c 256,173,174
 608 795 608 795 612 797 c 0,175,176
 614 798 614 798 609 804 c 0,177,178
 605 809 605 809 612 811 c 0,179,180
 658 828 658 828 698.5 841 c 128,-1,181
 739 854 739 854 773 865.5 c 128,-1,182
 807 877 807 877 834.5 887 c 128,-1,183
 862 897 862 897 882 908 c 0,184,185
 961 950 961 950 1007 1022 c 0,186,187
 1014 1034 1014 1034 1021.5 1051.5 c 128,-1,188
 1029 1069 1029 1069 1038 1092.5 c 128,-1,189
 1047 1116 1047 1116 1058.5 1145 c 128,-1,190
 1070 1174 1070 1174 1085 1209 c 0,191,192
 1086 1212 1086 1212 1089.5 1213.5 c 128,-1,193
 1093 1215 1093 1215 1097.5 1215.5 c 128,-1,194
 1102 1216 1102 1216 1106.5 1217 c 128,-1,195
 1111 1218 1111 1218 1115 1220 c 0,196,197
 1127 1227 1127 1227 1135 1231 c 128,-1,198
 1143 1235 1143 1235 1147 1237 c 0,199,200
 1159 1243 1159 1243 1167.5 1245.5 c 128,-1,201
 1176 1248 1176 1248 1179 1250 c 2,202,-1
 1192 1250 l 2,203,204
 1197 1250 1197 1250 1202.5 1249.5 c 128,-1,205
 1208 1249 1208 1249 1213 1247 c 0,206,207
 1217 1246 1217 1246 1222 1245.5 c 128,-1,208
 1227 1245 1227 1245 1231.5 1244 c 128,-1,209
 1236 1243 1236 1243 1241 1241.5 c 128,-1,210
 1246 1240 1246 1240 1250 1236 c 0,211,212
 1251 1235 1251 1235 1249.5 1233 c 128,-1,213
 1248 1231 1248 1231 1245.5 1230 c 128,-1,214
 1243 1229 1243 1229 1240 1227.5 c 128,-1,215
 1237 1226 1237 1226 1235 1225 c 0,216,217
 1197 1199 1197 1199 1195 1192 c 0,218,219
 1187 1158 1187 1158 1179.5 1134 c 128,-1,220
 1172 1110 1172 1110 1165 1091 c 0,221,222
 1163 1085 1163 1085 1158 1076.5 c 128,-1,223
 1153 1068 1153 1068 1147.5 1059 c 128,-1,224
 1142 1050 1142 1050 1136 1041.5 c 128,-1,225
 1130 1033 1130 1033 1126 1027 c 1,226,227
 1127 1027 1127 1027 1127 1028 c 1,228,-1
 1128 1028 l 1,229,230
 1130 1028 1130 1028 1126 1023 c 0,231,232
 1123 1020 1123 1020 1122 1020 c 1,233,234
 1122 1020 1122 1020 1126 1027 c 1,235,236
 1122 1025 1122 1025 1112.5 1018.5 c 128,-1,237
 1103 1012 1103 1012 1089 1001.5 c 128,-1,238
 1075 991 1075 991 1059 978.5 c 128,-1,239
 1043 966 1043 966 1026 953 c 0,240,241
 1010 941 1010 941 997.5 930.5 c 128,-1,242
 985 920 985 920 975 912 c 0,243,244
 964 903 964 903 956.5 896 c 128,-1,245
 949 889 949 889 945 885 c 0,246,247
 945 884 945 884 943 883 c 2,248,249
 943 883 943 883 942 882 c 1,250,251
 947 884 947 884 952 886.5 c 128,-1,252
 957 889 957 889 961 891 c 0,253,254
 966 894 966 894 967 893 c 0,255,256
 968 893 968 893 958 888 c 0,257,258
 947 882 947 882 943 881 c 0,259,260
 942 881 942 881 942 882 c 1,261,262
 930 876 930 876 914 868.5 c 128,-1,263
 898 861 898 861 881.5 854.5 c 128,-1,264
 865 848 865 848 848.5 842.5 c 128,-1,265
 832 837 832 837 818 834 c 0,266,267
 810 833 810 833 796 832.5 c 128,-1,268
 782 832 782 832 770 831.5 c 128,-1,269
 758 831 758 831 752.5 830 c 128,-1,270
 747 829 747 829 754 827 c 0,271,272
 762 824 762 824 770.5 823 c 128,-1,273
 779 822 779 822 788 822 c 0,274,275
 800 822 800 822 812 823 c 128,-1,276
 824 824 824 824 837 824 c 0,277,278
 862 824 862 824 885.5 816.5 c 128,-1,279
 909 809 909 809 929 794 c 0,280,281
 947 780 947 780 948 775 c 0,282,283
 951 767 951 767 937 767 c 0,284,285
 924 767 924 767 912.5 768 c 128,-1,286
 901 769 901 769 889 772 c 0,287,288
 871 775 871 775 848.5 777.5 c 128,-1,289
 826 780 826 780 799 784 c 128,-1,290
 772 788 772 788 750 790 c 128,-1,291
 728 792 728 792 706 792 c 0,292,293
 702 793 702 793 697.5 793 c 128,-1,294
 693 793 693 793 689 793 c 0,295,296
 675 793 675 793 661.5 792.5 c 128,-1,297
 648 792 648 792 634 790 c 0,298,299
 631 789 631 789 626.5 787.5 c 128,-1,300
 622 786 622 786 614 786 c 0,169,170
1149 483 m 0,301,302
 1149 484 1149 484 1151 484 c 0,303,304
 1152 484 1152 484 1155 486 c 0,305,306
 1157 487 1157 487 1153 493 c 0,307,308
 1149 498 1149 498 1155 500 c 0,309,310
 1201 517 1201 517 1241.5 530 c 128,-1,311
 1282 543 1282 543 1316 554.5 c 128,-1,312
 1350 566 1350 566 1377.5 576 c 128,-1,313
 1405 586 1405 586 1426 597 c 0,314,315
 1505 639 1505 639 1551 711 c 0,316,317
 1558 723 1558 723 1565.5 740.5 c 128,-1,318
 1573 758 1573 758 1581.5 781.5 c 128,-1,319
 1590 805 1590 805 1601.5 834 c 128,-1,320
 1613 863 1613 863 1629 898 c 0,321,322
 1630 901 1630 901 1633.5 902.5 c 128,-1,323
 1637 904 1637 904 1641 904.5 c 128,-1,324
 1645 905 1645 905 1649.5 906 c 128,-1,325
 1654 907 1654 907 1659 909 c 0,326,327
 1671 916 1671 916 1678.5 920 c 128,-1,328
 1686 924 1686 924 1690 926 c 0,329,330
 1702 932 1702 932 1711 934.5 c 128,-1,331
 1720 937 1720 937 1723 939 c 2,332,-1
 1736 939 l 2,333,334
 1741 939 1741 939 1746 938.5 c 128,-1,335
 1751 938 1751 938 1757 936 c 0,336,337
 1761 935 1761 935 1765.5 934 c 128,-1,338
 1770 933 1770 933 1775 932.5 c 128,-1,339
 1780 932 1780 932 1784.5 930.5 c 128,-1,340
 1789 929 1789 929 1793 925 c 0,341,342
 1794 924 1794 924 1793 922 c 128,-1,343
 1792 920 1792 920 1789 919 c 128,-1,344
 1786 918 1786 918 1783 916.5 c 128,-1,345
 1780 915 1780 915 1779 914 c 0,346,347
 1741 888 1741 888 1738 881 c 0,348,349
 1730 847 1730 847 1723 823 c 128,-1,350
 1716 799 1716 799 1709 780 c 0,351,352
 1707 774 1707 774 1702 765.5 c 128,-1,353
 1697 757 1697 757 1691 748 c 128,-1,354
 1685 739 1685 739 1679.5 730.5 c 128,-1,355
 1674 722 1674 722 1670 716 c 1,356,357
 1671 716 1671 716 1671 717 c 1,358,-1
 1672 717 l 0,359,360
 1674 717 1674 717 1669 712 c 0,361,362
 1666 709 1666 709 1666 709 c 257,363,364
 1666 709 1666 709 1670 716 c 1,365,366
 1666 714 1666 714 1656 707.5 c 128,-1,367
 1646 701 1646 701 1632 690.5 c 128,-1,368
 1618 680 1618 680 1602 667.5 c 128,-1,369
 1586 655 1586 655 1570 642 c 0,370,371
 1554 630 1554 630 1541.5 619.5 c 128,-1,372
 1529 609 1529 609 1518 600 c 128,-1,373
 1507 591 1507 591 1499.5 584.5 c 128,-1,374
 1492 578 1492 578 1488 574 c 0,375,376
 1488 573 1488 573 1486 572 c 2,377,378
 1486 572 1486 572 1486 571 c 1,379,380
 1491 573 1491 573 1496 575.5 c 128,-1,381
 1501 578 1501 578 1504 579 c 0,382,383
 1509 582 1509 582 1510 582 c 128,-1,384
 1511 582 1511 582 1501 577 c 0,385,386
 1490 571 1490 571 1487 570 c 0,387,388
 1486 570 1486 570 1486 571 c 1,389,390
 1474 565 1474 565 1458 557.5 c 128,-1,391
 1442 550 1442 550 1425 543.5 c 128,-1,392
 1408 537 1408 537 1391.5 531.5 c 128,-1,393
 1375 526 1375 526 1362 523 c 0,394,395
 1354 522 1354 522 1340 521.5 c 128,-1,396
 1326 521 1326 521 1314 520.5 c 128,-1,397
 1302 520 1302 520 1296 519 c 128,-1,398
 1290 518 1290 518 1298 516 c 0,399,400
 1306 513 1306 513 1314 512 c 128,-1,401
 1322 511 1322 511 1332 511 c 0,402,403
 1344 511 1344 511 1356 512 c 128,-1,404
 1368 513 1368 513 1380 513 c 0,405,406
 1405 513 1405 513 1428.5 505.5 c 128,-1,407
 1452 498 1452 498 1473 483 c 0,408,409
 1491 469 1491 469 1491 464 c 0,410,411
 1494 456 1494 456 1480 456 c 0,412,413
 1467 456 1467 456 1456 457 c 128,-1,414
 1445 458 1445 458 1432 461 c 0,415,416
 1414 464 1414 464 1391.5 466.5 c 128,-1,417
 1369 469 1369 469 1343 473 c 0,418,419
 1316 477 1316 477 1293.5 479 c 128,-1,420
 1271 481 1271 481 1249 481 c 0,421,422
 1245 482 1245 482 1241 482 c 128,-1,423
 1237 482 1237 482 1233 482 c 0,424,425
 1219 482 1219 482 1205 481.5 c 128,-1,426
 1191 481 1191 481 1177 479 c 0,427,428
 1174 478 1174 478 1169.5 476.5 c 128,-1,429
 1165 475 1165 475 1157 475 c 0,430,431
 1152 475 1152 475 1149 483 c 0,301,302
607 679 m 0,432,433
 608 680 608 680 612 681 c 128,-1,434
 616 682 616 682 620 682.5 c 128,-1,435
 624 683 624 683 627.5 683 c 128,-1,436
 631 683 631 683 633 683 c 0,437,438
 648 683 648 683 676 679 c 0,439,440
 692 677 692 677 701.5 676 c 128,-1,441
 711 675 711 675 718 674 c 0,442,443
 781 664 781 664 798 577 c 0,444,445
 808 524 808 524 818 510 c 0,446,447
 826 496 826 496 846 494 c 0,448,449
 851 493 851 493 859 493 c 0,450,451
 862 493 862 493 864 491 c 0,452,453
 863 484 863 484 857 479.5 c 128,-1,454
 851 475 851 475 842.5 472.5 c 128,-1,455
 834 470 834 470 825.5 469 c 128,-1,456
 817 468 817 468 812 468 c 0,457,458
 793 468 793 468 771.5 473 c 128,-1,459
 750 478 750 478 723 488 c 0,460,461
 672 507 672 507 654 618 c 0,462,463
 648 666 648 666 625 666 c 2,464,-1
 612 666 l 2,465,466
 604 666 604 666 603 667 c 0,467,468
 601 670 601 670 607 679 c 0,432,433
829 680 m 0,469,470
 829 685 829 685 843 685 c 2,471,-1
 846 685 l 2,472,473
 853 685 853 685 864 684 c 128,-1,474
 875 683 875 683 889 680 c 0,475,476
 904 678 904 678 912.5 676.5 c 128,-1,477
 921 675 921 675 928 674 c 0,478,479
 991 665 991 665 1009 577 c 0,480,481
 1019 525 1019 525 1029 510 c 0,482,483
 1035 500 1035 500 1056 496 c 0,484,485
 1074 492 1074 492 1073 491 c 0,486,487
 1073 488 1073 488 1072 488.5 c 128,-1,488
 1071 489 1071 489 1068 483 c 0,489,490
 1061 469 1061 469 1023 469 c 0,491,492
 1004 469 1004 469 982 474.5 c 128,-1,493
 960 480 960 480 934 490 c 0,494,495
 883 509 883 509 865 622 c 0,496,497
 858 669 858 669 845 669 c 2,498,-1
 843 669 l 2,499,500
 842 669 842 669 838 669 c 0,501,502
 828 669 828 669 829 680 c 0,469,470
EndSplineSet
EndChar

StartChar: oligonKentimaTripleYpsili
Encoding: 57359 57359 20
Width: 1686
GlyphClass: 2
Flags: W
HStem: 240 120<358.625 1042.35> 258 111<835.555 1288.72> 468 9<1.625 5.90649> 473 29<172.094 235.702> 499 9<1075.59 1079.91> 505 29.5<1232.77 1309.07> 699 19<704.066 738.212> 783 9<634.646 640.846>
AnchorPoint: "apli" 859 30 basechar 0
AnchorPoint: "klasmaBottom" 841 160 basechar 0
AnchorPoint: "yfesis" 1586 560 basechar 0
AnchorPoint: "diesis" 456 133 basechar 0
AnchorPoint: "psifiston" 896 113 basechar 0
AnchorPoint: "gorgonBottom" 723 125 basechar 0
AnchorPoint: "antikenoma" 876 165 basechar 0
AnchorPoint: "heteron" 1143 227 basechar 0
AnchorPoint: "fthoraTop" 1396 1293 basechar 0
AnchorPoint: "fthoraBottom" 845 209 basechar 0
AnchorPoint: "noteTop" 172 820 basechar 0
AnchorPoint: "omalonConnecting" 1527 133 basechar 0
AnchorPoint: "omalon" 1087 133 basechar 0
AnchorPoint: "heteronConnecting" 1748 -19 basechar 0
AnchorPoint: "measureNumber" 228 1213 basechar 0
AnchorPoint: "isonIndicator" 848 1347 basechar 0
AnchorPoint: "endofonon" 858 -62 basechar 0
AnchorPoint: "koronis" 839 1461 basechar 0
AnchorPoint: "yfenAbove" 986 1461 basechar 0
AnchorPoint: "yfenBelow" 985 -40 basechar 0
LayerCount: 2
Fore
SplineSet
132 393 m 1,0,1
 171 380 171 380 209.5 372.5 c 128,-1,2
 248 365 248 365 290 363 c 0,3,4
 346 361 346 361 401 360.5 c 128,-1,5
 456 360 456 360 512 360 c 0,6,7
 560 360 560 360 639.5 361 c 128,-1,8
 719 362 719 362 832 365 c 0,9,10
 946 367 946 367 1031 368 c 128,-1,11
 1116 369 1116 369 1175 369 c 0,12,13
 1282 369 1282 369 1450 271 c 0,14,15
 1455 265 1455 265 1459.5 259 c 128,-1,16
 1464 253 1464 253 1469 248 c 128,-1,17
 1474 243 1474 243 1479 237.5 c 128,-1,18
 1484 232 1484 232 1489 227 c 1,19,-1
 1481 227 l 2,20,21
 1474 227 1474 227 1464 230 c 0,22,23
 1449 232 1449 232 1437.5 234.5 c 128,-1,24
 1426 237 1426 237 1418 239 c 0,25,26
 1400 243 1400 243 1399 243 c 2,27,-1
 1310 250 l 2,28,29
 1270 254 1270 254 1232 256 c 128,-1,30
 1194 258 1194 258 1154 258 c 0,31,32
 1126 258 1126 258 1067.5 256 c 128,-1,33
 1009 254 1009 254 917 249 c 0,34,35
 824 244 824 244 756.5 242 c 128,-1,36
 689 240 689 240 643 240 c 0,37,38
 552 240 552 240 461 246 c 128,-1,39
 370 252 370 252 279 266 c 0,40,41
 213 276 213 276 132 366 c 1,42,-1
 132 393 l 1,0,1
8 468 m 0,43,44
 4 468 4 468 0 475 c 0,45,46
 0 476 0 476 1 477 c 0,47,48
 3 477 3 477 6 478 c 0,49,50
 7 479 7 479 3 485 c 0,51,52
 -1 490 -1 490 6 493 c 0,53,54
 50 510 50 510 88.5 523 c 128,-1,55
 127 536 127 536 159 547 c 0,56,57
 194 558 194 558 226 571.5 c 128,-1,58
 258 585 258 585 286 603 c 128,-1,59
 314 621 314 621 338 645.5 c 128,-1,60
 362 670 362 670 382 703 c 0,61,62
 389 715 389 715 396 732.5 c 128,-1,63
 403 750 403 750 410 774 c 0,64,65
 426 821 426 821 456 891 c 0,66,67
 458 897 458 897 468 897 c 0,68,69
 477 897 477 897 484 902 c 0,70,71
 489 905 489 905 495 908.5 c 128,-1,72
 501 912 501 912 508 916 c 128,-1,73
 515 920 515 920 521.5 923 c 128,-1,74
 528 926 528 926 534 928 c 0,75,76
 538 929 538 929 540.5 930 c 128,-1,77
 543 931 543 931 545 931 c 0,78,79
 549 931 549 931 553 931 c 128,-1,80
 557 931 557 931 561 932 c 0,81,82
 570 932 570 932 577 929 c 128,-1,83
 584 926 584 926 595 926 c 0,84,85
 605 925 605 925 612 917 c 0,86,87
 614 914 614 914 608 912 c 0,88,89
 605 911 605 911 602.5 909.5 c 128,-1,90
 600 908 600 908 598 907 c 0,91,92
 563 882 563 882 560 874 c 0,93,94
 555 850 555 850 549.5 828.5 c 128,-1,95
 544 807 544 807 537 787.5 c 128,-1,96
 530 768 530 768 520 749 c 128,-1,97
 510 730 510 730 495 709 c 1,98,99
 495 709 495 709 497 710 c 0,100,101
 498 710 498 710 494 705 c 2,102,-1
 491 701 l 1,103,-1
 492 704 l 2,104,105
 493 705 493 705 493.5 706 c 128,-1,106
 494 707 494 707 495 709 c 1,107,108
 494 708 494 708 493 707 c 128,-1,109
 492 706 492 706 490 705 c 0,110,111
 453 679 453 679 418.5 651 c 128,-1,112
 384 623 384 623 350 593 c 0,113,114
 340 584 340 584 333 577.5 c 128,-1,115
 326 571 326 571 322 567 c 0,116,117
 321 566 321 566 320.5 565 c 128,-1,118
 320 564 320 564 320 563 c 1,119,120
 325 565 325 565 329.5 567.5 c 128,-1,121
 334 570 334 570 338 572 c 0,122,123
 341 574 341 574 342 575 c 0,124,125
 343 575 343 575 343 575 c 129,-1,126
 343 575 343 575 341 574 c 0,127,128
 340 573 340 573 338 572 c 128,-1,129
 336 571 336 571 334 569 c 0,130,131
 320 561 320 561 320 563 c 1,132,133
 281 542 281 542 241.5 527.5 c 128,-1,134
 202 513 202 513 157 513 c 0,135,136
 152 513 152 513 147.5 513 c 128,-1,137
 143 513 143 513 139 512 c 0,138,139
 131 511 131 511 141 508 c 0,140,141
 156 502 156 502 172 502 c 0,142,143
 175 502 175 502 178 502.5 c 128,-1,144
 181 503 181 503 185 503 c 0,145,146
 193 504 193 504 200.5 504.5 c 128,-1,147
 208 505 208 505 216 505 c 0,148,149
 242 505 242 505 264 498.5 c 128,-1,150
 286 492 286 492 307 475 c 0,151,152
 325 461 325 461 325 456 c 0,153,154
 328 448 328 448 315 449 c 0,155,156
 291 449 291 449 268 453 c 0,157,158
 260 454 260 454 251 456 c 128,-1,159
 242 458 242 458 231 459 c 128,-1,160
 220 460 220 460 208.5 462 c 128,-1,161
 197 464 197 464 184 466 c 0,162,163
 162 469 162 469 140 471 c 128,-1,164
 118 473 118 473 95 473 c 0,165,166
 82 474 82 474 71 475 c 0,167,168
 48 475 48 475 27 472 c 0,169,170
 22 470 22 470 17.5 469 c 128,-1,171
 13 468 13 468 8 468 c 0,43,44
1081 499 m 0,172,173
 1077 499 1077 499 1074 507 c 0,174,175
 1074 508 1074 508 1076 508 c 0,176,177
 1077 508 1077 508 1080 510 c 0,178,179
 1081 511 1081 511 1077 516 c 256,180,181
 1073 521 1073 521 1080 524 c 0,182,183
 1124 541 1124 541 1162.5 554.5 c 128,-1,184
 1201 568 1201 568 1233 578 c 0,185,186
 1268 589 1268 589 1300 602.5 c 128,-1,187
 1332 616 1332 616 1360 634.5 c 128,-1,188
 1388 653 1388 653 1412 677.5 c 128,-1,189
 1436 702 1436 702 1455 735 c 0,190,191
 1462 747 1462 747 1469 764.5 c 128,-1,192
 1476 782 1476 782 1484 805 c 0,193,194
 1500 852 1500 852 1530 922 c 0,195,196
 1532 928 1532 928 1541 929 c 0,197,198
 1550 929 1550 929 1558 933 c 0,199,200
 1562 936 1562 936 1568.5 940 c 128,-1,201
 1575 944 1575 944 1582 947.5 c 128,-1,202
 1589 951 1589 951 1595.5 954 c 128,-1,203
 1602 957 1602 957 1608 959 c 0,204,205
 1616 961 1616 961 1618 963 c 0,206,207
 1622 963 1622 963 1626 963 c 128,-1,208
 1630 963 1630 963 1635 963 c 0,209,210
 1645 963 1645 963 1652 960 c 128,-1,211
 1659 957 1659 957 1668 957 c 0,212,213
 1678 956 1678 956 1685 949 c 0,214,215
 1689 946 1689 946 1682 943 c 0,216,217
 1679 942 1679 942 1676.5 940.5 c 128,-1,218
 1674 939 1674 939 1672 938 c 0,219,220
 1637 913 1637 913 1634 905 c 0,221,222
 1630 888 1630 888 1626.5 874 c 128,-1,223
 1623 860 1623 860 1619 847 c 0,224,225
 1615 833 1615 833 1611 821 c 128,-1,226
 1607 809 1607 809 1602.5 798 c 128,-1,227
 1598 787 1598 787 1592 776.5 c 128,-1,228
 1586 766 1586 766 1578 754 c 0,229,230
 1576 750 1576 750 1573.5 746.5 c 128,-1,231
 1571 743 1571 743 1569 740 c 1,232,233
 1571 741 1571 741 1572 741 c 128,-1,234
 1573 741 1573 741 1569 736 c 2,235,-1
 1565 732 l 1,236,237
 1565 732 1565 732 1566 735 c 0,238,239
 1567 736 1567 736 1567.5 737.5 c 128,-1,240
 1568 739 1568 739 1569 740 c 1,241,242
 1568 739 1568 739 1566.5 738.5 c 128,-1,243
 1565 738 1565 738 1564 737 c 0,244,245
 1527 711 1527 711 1492.5 682.5 c 128,-1,246
 1458 654 1458 654 1424 624 c 0,247,248
 1423 623 1423 623 1418 619 c 128,-1,249
 1413 615 1413 615 1407.5 610 c 128,-1,250
 1402 605 1402 605 1398 600.5 c 128,-1,251
 1394 596 1394 596 1394 595 c 1,252,253
 1399 597 1399 597 1403.5 599 c 128,-1,254
 1408 601 1408 601 1412 603 c 0,255,256
 1415 605 1415 605 1416 606 c 0,257,258
 1417 606 1417 606 1417 606 c 129,-1,259
 1417 606 1417 606 1415 605 c 0,260,261
 1414 604 1414 604 1412 603 c 128,-1,262
 1410 602 1410 602 1408 600 c 0,263,264
 1394 592 1394 592 1394 595 c 1,265,266
 1382 589 1382 589 1367 581.5 c 128,-1,267
 1352 574 1352 574 1336 567 c 128,-1,268
 1320 560 1320 560 1304 555 c 128,-1,269
 1288 550 1288 550 1276 547 c 0,270,271
 1265 545 1265 545 1253.5 544.5 c 128,-1,272
 1242 544 1242 544 1230 544 c 0,273,274
 1225 544 1225 544 1220.5 544 c 128,-1,275
 1216 544 1216 544 1213 543 c 0,276,277
 1206 542 1206 542 1215 539 c 0,278,279
 1224 535 1224 535 1232.5 534.5 c 128,-1,280
 1241 534 1241 534 1250 534 c 0,281,282
 1252 534 1252 534 1254 534 c 128,-1,283
 1256 534 1256 534 1259 535 c 0,284,285
 1266 536 1266 536 1273 536.5 c 128,-1,286
 1280 537 1280 537 1286 537 c 0,287,288
 1312 537 1312 537 1336 530 c 128,-1,289
 1360 523 1360 523 1381 507 c 0,290,291
 1399 493 1399 493 1399 488 c 0,292,293
 1402 480 1402 480 1389 480 c 0,294,295
 1366 480 1366 480 1343 485 c 0,296,297
 1335 486 1335 486 1325.5 487.5 c 128,-1,298
 1316 489 1316 489 1305 491 c 0,299,300
 1294 492 1294 492 1282.5 493.5 c 128,-1,301
 1271 495 1271 495 1258 497 c 0,302,303
 1236 500 1236 500 1214 502.5 c 128,-1,304
 1192 505 1192 505 1169 505 c 0,305,306
 1156 506 1156 506 1145 506 c 0,307,308
 1123 506 1123 506 1100 503 c 0,309,310
 1095 501 1095 501 1090.5 500 c 128,-1,311
 1086 499 1086 499 1081 499 c 0,172,173
641 783 m 0,312,313
 636 783 636 783 634 789 c 0,314,315
 634 792 634 792 640 792 c 0,316,317
 643 793 643 793 639 800 c 0,318,319
 636 805 636 805 641 808 c 0,320,321
 685 824 685 824 724 836 c 128,-1,322
 763 848 763 848 796 857 c 0,323,324
 830 866 830 866 863 878.5 c 128,-1,325
 896 891 896 891 925.5 909.5 c 128,-1,326
 955 928 955 928 980.5 951.5 c 128,-1,327
 1006 975 1006 975 1025 1007 c 0,328,329
 1032 1018 1032 1018 1039.5 1034.5 c 128,-1,330
 1047 1051 1047 1051 1056 1074 c 0,331,332
 1065 1096 1065 1096 1077 1125 c 128,-1,333
 1089 1154 1089 1154 1105 1189 c 0,334,335
 1108 1195 1108 1195 1116 1196 c 0,336,337
 1124 1196 1124 1196 1131 1201 c 0,338,339
 1142 1208 1142 1208 1151 1211 c 0,340,341
 1159 1214 1159 1214 1163 1218 c 0,342,343
 1168 1220 1168 1220 1172.5 1221.5 c 128,-1,344
 1177 1223 1177 1223 1181 1224 c 0,345,346
 1188 1227 1188 1227 1194 1227 c 0,347,348
 1210 1227 1210 1227 1225 1222 c 0,349,350
 1230 1220 1230 1220 1239 1220 c 2,351,-1
 1244 1220 l 2,352,353
 1249 1220 1249 1220 1253 1218.5 c 128,-1,354
 1257 1217 1257 1217 1260 1213 c 128,-1,355
 1263 1209 1263 1209 1256 1206 c 0,356,357
 1252 1205 1252 1205 1244 1200.5 c 128,-1,358
 1236 1196 1236 1196 1228.5 1190 c 128,-1,359
 1221 1184 1221 1184 1214.5 1178.5 c 128,-1,360
 1208 1173 1208 1173 1207 1169 c 0,361,362
 1202 1153 1202 1153 1198 1139 c 128,-1,363
 1194 1125 1194 1125 1190 1112 c 0,364,365
 1187 1098 1187 1098 1182.5 1086 c 128,-1,366
 1178 1074 1178 1074 1172 1063.5 c 128,-1,367
 1166 1053 1166 1053 1159.5 1042.5 c 128,-1,368
 1153 1032 1153 1032 1145 1020 c 0,369,370
 1141 1014 1141 1014 1138 1008 c 1,371,372
 1141 1008 1141 1008 1136 1003 c 0,373,374
 1134 1001 1134 1001 1133 1000 c 2,375,376
 1133 1000 1133 1000 1132.5 999.5 c 128,-1,377
 1132 999 1132 999 1132 999 c 129,-1,378
 1132 999 1132 999 1133 1002 c 0,379,380
 1134 1003 1134 1003 1135 1004.5 c 128,-1,381
 1136 1006 1136 1006 1138 1008 c 1,382,383
 1137 1008 1137 1008 1135 1007 c 128,-1,384
 1133 1006 1133 1006 1129 1004 c 0,385,386
 1105 989 1105 989 1082 973 c 128,-1,387
 1059 957 1059 957 1037 939 c 0,388,389
 1023 928 1023 928 1010.5 917.5 c 128,-1,390
 998 907 998 907 988 899 c 0,391,392
 977 891 977 891 970 884 c 128,-1,393
 963 877 963 877 959 872 c 2,394,395
 959 872 959 872 958.5 871 c 128,-1,396
 958 870 958 870 958 870 c 1,397,398
 963 872 963 872 967.5 873.5 c 128,-1,399
 972 875 972 875 975 876 c 0,400,401
 979 877 979 877 980 878 c 0,402,403
 982 878 982 878 972 872 c 0,404,405
 963 867 963 867 958 867 c 0,406,407
 956 867 956 867 958 870 c 1,408,409
 939 862 939 862 920.5 854.5 c 128,-1,410
 902 847 902 847 883 840 c 0,411,412
 854 829 854 829 838 825 c 0,413,414
 831 824 831 824 817 824 c 2,415,-1
 792 824 l 2,416,417
 787 824 787 824 782.5 824 c 128,-1,418
 778 824 778 824 775 823 c 0,419,420
 771 823 771 823 777 819 c 0,421,422
 784 815 784 815 792 813.5 c 128,-1,423
 800 812 800 812 808 812 c 0,424,425
 811 812 811 812 814 812 c 128,-1,426
 817 812 817 812 820 813 c 0,427,428
 832 814 832 814 843 814 c 0,429,430
 871 814 871 814 895.5 806.5 c 128,-1,431
 920 799 920 799 942 782 c 0,432,433
 958 769 958 769 958 760 c 0,434,435
 959 754 959 754 948 753 c 2,436,-1
 901 758 l 1,437,-1
 818 774 l 2,438,439
 803 778 803 778 785 781 c 128,-1,440
 767 784 767 784 749 785.5 c 128,-1,441
 731 787 731 787 713 788 c 128,-1,442
 695 789 695 789 680 789 c 0,443,444
 675 789 675 789 670 788.5 c 128,-1,445
 665 788 665 788 661 788 c 0,446,447
 657 785 657 785 651 784 c 128,-1,448
 645 783 645 783 641 783 c 0,312,313
704 714 m 0,449,450
 706 717 706 717 721 718 c 2,451,-1
 747 718 l 2,452,453
 761 718 761 718 775 714 c 2,454,-1
 820 706 l 2,455,456
 885 694 885 694 903 598 c 0,457,458
 914 537 914 537 926 524 c 0,459,460
 934 514 934 514 944 510 c 128,-1,461
 954 506 954 506 967 505 c 0,462,463
 970 505 970 505 972 503 c 0,464,465
 970 495 970 495 962.5 490.5 c 128,-1,466
 955 486 955 486 946.5 483 c 128,-1,467
 938 480 938 480 929 479 c 128,-1,468
 920 478 920 478 913 478 c 0,469,470
 891 478 891 478 867.5 485 c 128,-1,471
 844 492 844 492 825 500 c 0,472,473
 773 521 773 521 753 645 c 0,474,475
 745 698 745 698 722 699 c 2,476,-1
 708 699 l 2,477,478
 699 699 699 699 698 700 c 0,479,480
 696 702 696 702 704 714 c 0,449,450
EndSplineSet
EndChar

StartChar: oligonIson
Encoding: 57360 57360 21
Width: 1400
GlyphClass: 2
Flags: W
HStem: 242 125<226.233 844.875> 252 115<557.835 1025.22> 261 111<770.043 1200.04> 479 70<333.312 644.884> 484 108<777.651 1168.58> 651 114<194.005 265.064> 664 101<195.855 281.737>
VStem: 0 194<629 727.5>
AnchorPoint: "apli" 771 30 basechar 0
AnchorPoint: "klasmaBottom" 753 160 basechar 0
AnchorPoint: "yfesis" 1284 619 basechar 0
AnchorPoint: "diesis" 368 133 basechar 0
AnchorPoint: "psifiston" 808 113 basechar 0
AnchorPoint: "gorgonBottom" 635 125 basechar 0
AnchorPoint: "antikenoma" 788 165 basechar 0
AnchorPoint: "heteron" 1055 227 basechar 0
AnchorPoint: "fthoraTop" 756 717 basechar 0
AnchorPoint: "fthoraBottom" 757 209 basechar 0
AnchorPoint: "noteTop" 306 878 basechar 0
AnchorPoint: "omalonConnecting" 1439 133 basechar 0
AnchorPoint: "omalon" 999 133 basechar 0
AnchorPoint: "heteronConnecting" 1660 -19 basechar 0
AnchorPoint: "measureNumber" 140 943 basechar 0
AnchorPoint: "isonIndicator" 760 913 basechar 0
AnchorPoint: "endofonon" 770 -62 basechar 0
AnchorPoint: "koronis" 751 911 basechar 0
AnchorPoint: "yfenAbove" 898 911 basechar 0
AnchorPoint: "yfenBelow" 897 -40 basechar 0
LayerCount: 2
Fore
SplineSet
191 269 m 0,0,1
 126 279 126 279 44 369 c 1,2,-1
 44 396 l 1,3,4
 80 383 80 383 119 375 c 128,-1,5
 158 367 158 367 201 366 c 0,6,7
 245 365 245 365 299 364 c 128,-1,8
 353 363 353 363 424 363 c 0,9,10
 519 363 519 363 744 367 c 0,11,12
 969 372 969 372 1086 372 c 0,13,14
 1193 372 1193 372 1361 274 c 1,15,16
 1370 261 1370 261 1380.5 251 c 128,-1,17
 1391 241 1391 241 1400 230 c 1,18,19
 1399 230 1399 230 1392.5 230 c 128,-1,20
 1386 230 1386 230 1375 233 c 0,21,22
 1345 237 1345 237 1329.5 241 c 128,-1,23
 1314 245 1314 245 1311 245 c 2,24,-1
 1222 253 l 2,25,26
 1181 256 1181 256 1142 258.5 c 128,-1,27
 1103 261 1103 261 1066 261 c 0,28,29
 1011 261 1011 261 828 252 c 256,30,31
 645 243 645 243 555 242 c 0,32,33
 508 242 508 242 462.5 243.5 c 128,-1,34
 417 245 417 245 372 249 c 0,35,36
 327 252 327 252 281.5 257 c 128,-1,37
 236 262 236 262 191 269 c 0,0,1
88 762 m 0,38,39
 97 765 97 765 109.5 765 c 128,-1,40
 122 765 122 765 139 765 c 0,41,42
 194 765 194 765 250 752 c 128,-1,43
 306 739 306 739 365 709 c 1,44,-1
 444 651 l 1,45,46
 433 651 433 651 412 653 c 128,-1,47
 391 655 391 655 358 657 c 0,48,49
 327 660 327 660 303.5 661.5 c 128,-1,50
 280 663 280 663 266 664 c 0,51,52
 236 664 236 664 213 656 c 0,53,54
 194 649 194 649 194 633 c 0,55,56
 194 625 194 625 200 614 c 0,57,58
 208 600 208 600 212.5 590 c 128,-1,59
 217 580 217 580 223 578 c 0,60,61
 240 572 240 572 255 568.5 c 128,-1,62
 270 565 270 565 287 562 c 2,63,-1
 339 552 l 2,64,65
 348 550 348 550 365.5 549 c 128,-1,66
 383 548 383 548 409 548 c 0,67,68
 493 556 493 556 573 563.5 c 128,-1,69
 653 571 653 571 730 578 c 0,70,71
 881 592 881 592 1051 592 c 0,72,73
 1164 592 1164 592 1330 497 c 1,74,-1
 1367 454 l 1,75,-1
 1344 459 l 1,76,-1
 1278 470 l 1,77,-1
 1178 479 l 2,78,79
 1086 489 1086 489 1005 489 c 1,80,-1
 956 486 l 2,81,82
 931 485 931 485 894.5 484 c 128,-1,83
 858 483 858 483 809 479 c 0,84,85
 790 478 790 478 759 478 c 128,-1,86
 728 478 728 478 684 478 c 0,87,88
 650 478 650 478 615 479 c 128,-1,89
 580 480 580 480 542 481 c 0,90,91
 467 484 467 484 373 495 c 0,92,93
 308 502 308 502 246 525.5 c 128,-1,94
 184 549 184 549 122 583 c 0,95,96
 0 650 0 650 0 707 c 0,97,98
 0 748 0 748 88 762 c 0,38,39
EndSplineSet
EndChar

StartChar: oligonApostrofos
Encoding: 57361 57361 22
Width: 1356
GlyphClass: 2
Flags: W
HStem: 240 125<182.233 800.875> 250 115<513.835 981.224> 259 111<726.043 1156.04> 647 16<299.002 327.359>
VStem: 705 156<484.198 543.825>
AnchorPoint: "apli" 727 30 basechar 0
AnchorPoint: "klasmaBottom" 709 160 basechar 0
AnchorPoint: "yfesis" 1240 619 basechar 0
AnchorPoint: "diesis" 324 133 basechar 0
AnchorPoint: "psifiston" 764 113 basechar 0
AnchorPoint: "gorgonBottom" 591 125 basechar 0
AnchorPoint: "antikenoma" 744 165 basechar 0
AnchorPoint: "heteron" 1011 227 basechar 0
AnchorPoint: "fthoraTop" 670 882 basechar 0
AnchorPoint: "fthoraBottom" 713 209 basechar 0
AnchorPoint: "noteTop" 120 674 basechar 0
AnchorPoint: "omalonConnecting" 1395 133 basechar 0
AnchorPoint: "omalon" 955 133 basechar 0
AnchorPoint: "heteronConnecting" 1616 -19 basechar 0
AnchorPoint: "measureNumber" 96 943 basechar 0
AnchorPoint: "isonIndicator" 716 913 basechar 0
AnchorPoint: "endofonon" 726 -62 basechar 0
AnchorPoint: "koronis" 707 911 basechar 0
AnchorPoint: "yfenAbove" 854 911 basechar 0
AnchorPoint: "yfenBelow" 853 -40 basechar 0
LayerCount: 2
Fore
SplineSet
275 647 m 1,0,1
 288 650 288 650 299 655 c 128,-1,2
 310 660 310 660 322 663 c 0,3,4
 344 664 344 664 378.5 665 c 128,-1,5
 413 666 413 666 460 666 c 0,6,7
 516 666 516 666 590 652 c 0,8,9
 611 648 611 648 632 641.5 c 128,-1,10
 653 635 653 635 674 630 c 0,11,12
 755 610 755 610 808 572 c 256,13,14
 861 534 861 534 861 491 c 0,15,16
 861 469 861 469 847 450 c 0,17,18
 842 444 842 444 819 444 c 0,19,20
 802 444 802 444 778 447 c 128,-1,21
 754 450 754 450 720 457 c 0,22,23
 709 459 709 459 694.5 462 c 128,-1,24
 680 465 680 465 661 469 c 1,25,26
 681 479 681 479 695 497 c 0,27,28
 710 516 710 516 705 529 c 0,29,30
 695 552 695 552 657 572.5 c 128,-1,31
 619 593 619 593 553 605 c 0,32,33
 483 618 483 618 414 627 c 128,-1,34
 345 636 345 636 275 647 c 1,0,1
147 267 m 0,35,36
 82 277 82 277 0 367 c 1,37,-1
 0 394 l 1,38,39
 36 381 36 381 75 373 c 128,-1,40
 114 365 114 365 157 364 c 0,41,42
 201 363 201 363 255 362 c 128,-1,43
 309 361 309 361 380 361 c 0,44,45
 475 361 475 361 700 365 c 0,46,47
 925 370 925 370 1042 370 c 0,48,49
 1149 370 1149 370 1317 272 c 1,50,51
 1326 259 1326 259 1336.5 249 c 128,-1,52
 1347 239 1347 239 1356 228 c 1,53,54
 1355 228 1355 228 1348.5 228 c 128,-1,55
 1342 228 1342 228 1331 231 c 0,56,57
 1301 235 1301 235 1285.5 239 c 128,-1,58
 1270 243 1270 243 1267 243 c 2,59,-1
 1178 251 l 2,60,61
 1137 254 1137 254 1098 256.5 c 128,-1,62
 1059 259 1059 259 1022 259 c 0,63,64
 967 259 967 259 784 250 c 256,65,66
 601 241 601 241 511 240 c 0,67,68
 464 240 464 240 418.5 241.5 c 128,-1,69
 373 243 373 243 328 247 c 0,70,71
 283 250 283 250 237.5 255 c 128,-1,72
 192 260 192 260 147 267 c 0,35,36
EndSplineSet
EndChar

StartChar: oligonYporroi
Encoding: 57362 57362 23
Width: 1343
GlyphClass: 2
Flags: W
HStem: 241 125<181.08 793.69> 251 115<509.773 972.747> 260 111<719.627 1145.83> 452 58<799 887> 666 41<932.222 1004.66> 676 40<926.001 986.686>
VStem: 779 147<619.035 675.756> 832 160<514.657 580.67>
AnchorPoint: "apli" 714 30 basechar 0
AnchorPoint: "klasmaBottom" 696 160 basechar 0
AnchorPoint: "yfesis" 1227 619 basechar 0
AnchorPoint: "diesis" 311 133 basechar 0
AnchorPoint: "psifiston" 751 113 basechar 0
AnchorPoint: "gorgonBottom" 578 125 basechar 0
AnchorPoint: "antikenoma" 731 165 basechar 0
AnchorPoint: "heteron" 998 227 basechar 0
AnchorPoint: "fthoraTop" 900 924 basechar 0
AnchorPoint: "fthoraBottom" 700 209 basechar 0
AnchorPoint: "noteTop" 107 674 basechar 0
AnchorPoint: "omalonConnecting" 1382 133 basechar 0
AnchorPoint: "omalon" 942 133 basechar 0
AnchorPoint: "heteronConnecting" 1603 -19 basechar 0
AnchorPoint: "measureNumber" 83 943 basechar 0
AnchorPoint: "isonIndicator" 703 913 basechar 0
AnchorPoint: "endofonon" 713 -62 basechar 0
AnchorPoint: "koronis" 694 911 basechar 0
AnchorPoint: "yfenAbove" 841 971 basechar 0
AnchorPoint: "yfenBelow" 840 -40 basechar 0
AnchorPoint: "barline" 908 878 basechar 0
LayerCount: 2
Fore
SplineSet
974 479 m 0,0,1
 962 464 962 464 940 458 c 0,2,3
 917 452 917 452 887 452 c 0,4,5
 865 452 865 452 846 454 c 128,-1,6
 827 456 827 456 804 460 c 0,7,8
 783 463 783 463 769.5 467.5 c 128,-1,9
 756 472 756 472 748 475 c 2,10,-1
 703 494 l 2,11,12
 671 510 671 510 668 514 c 0,13,14
 666 518 666 518 671 521 c 0,15,16
 672 522 672 522 684 522 c 0,17,18
 692 522 692 522 700.5 522 c 128,-1,19
 709 522 709 522 721 519 c 0,20,21
 787 509 787 509 799 510 c 0,22,23
 818 510 818 510 826 518 c 0,24,25
 832 523 832 523 832 535 c 0,26,27
 832 552 832 552 806 597 c 256,28,29
 780 642 780 642 779 666 c 0,30,31
 779 687 779 687 795 702 c 0,32,33
 801 707 801 707 829 713 c 0,34,35
 842 716 842 716 856.5 716 c 128,-1,36
 871 716 871 716 887 716 c 0,37,38
 904 716 904 716 922 716 c 128,-1,39
 940 716 940 716 959 713 c 0,40,41
 995 708 995 708 996 707 c 0,42,43
 1005 690 1005 690 1006 680 c 0,44,45
 1006 667 1006 667 987 666 c 0,46,47
 977 666 977 666 959 671 c 0,48,49
 939 676 939 676 932 676 c 0,50,51
 926 676 926 676 926 671 c 0,52,53
 926 653 926 653 959 600 c 0,54,55
 991 549 991 549 992 521 c 0,56,57
 992 500 992 500 974 479 c 0,0,1
146 268 m 0,58,59
 81 278 81 278 0 368 c 1,60,-1
 0 395 l 1,61,62
 36 382 36 382 74.5 374 c 128,-1,63
 113 366 113 366 156 365 c 256,64,65
 199 364 199 364 253 363 c 128,-1,66
 307 362 307 362 376 362 c 0,67,68
 470 362 470 362 694 366 c 0,69,70
 917 371 917 371 1033 371 c 0,71,72
 1139 371 1139 371 1305 273 c 1,73,74
 1314 260 1314 260 1324 250 c 128,-1,75
 1334 240 1334 240 1343 229 c 1,76,77
 1342 229 1342 229 1335.5 229 c 128,-1,78
 1329 229 1329 229 1319 232 c 0,79,80
 1290 236 1290 236 1274 240 c 128,-1,81
 1258 244 1258 244 1255 244 c 2,82,-1
 1166 252 l 2,83,84
 1126 255 1126 255 1087.5 257.5 c 128,-1,85
 1049 260 1049 260 1012 260 c 0,86,87
 958 260 958 260 777 251 c 0,88,89
 595 242 595 242 507 241 c 0,90,91
 460 241 460 241 415 242.5 c 128,-1,92
 370 244 370 244 325 248 c 0,93,94
 280 251 280 251 235.5 256 c 128,-1,95
 191 261 191 261 146 268 c 0,58,59
EndSplineSet
EndChar

StartChar: oligonElafron
Encoding: 57363 57363 24
Width: 1356
GlyphClass: 2
Flags: W
HStem: 241 124<223.115 913.744> 260 111<703.524 1155.72> 788 72<302.078 527.093>
VStem: 44 195<671.247 737.234>
AnchorPoint: "apli" 727 30 basechar 0
AnchorPoint: "klasmaBottom" 709 160 basechar 0
AnchorPoint: "yfesis" 1240 619 basechar 0
AnchorPoint: "diesis" 324 133 basechar 0
AnchorPoint: "psifiston" 764 113 basechar 0
AnchorPoint: "gorgonBottom" 591 125 basechar 0
AnchorPoint: "antikenoma" 744 165 basechar 0
AnchorPoint: "heteron" 1011 227 basechar 0
AnchorPoint: "fthoraTop" 526 1035 basechar 0
AnchorPoint: "fthoraBottom" 713 209 basechar 0
AnchorPoint: "noteTop" 138 912 basechar 0
AnchorPoint: "omalonConnecting" 1395 133 basechar 0
AnchorPoint: "omalon" 955 133 basechar 0
AnchorPoint: "heteronConnecting" 1616 -19 basechar 0
AnchorPoint: "measureNumber" 96 943 basechar 0
AnchorPoint: "isonIndicator" 716 980 basechar 0
AnchorPoint: "endofonon" 726 -62 basechar 0
AnchorPoint: "koronis" 707 1041 basechar 0
AnchorPoint: "yfenAbove" 854 1091 basechar 0
AnchorPoint: "yfenBelow" 853 -40 basechar 0
LayerCount: 2
Fore
SplineSet
44 738 m 256,0,1
 44 766 44 766 57.5 786 c 128,-1,2
 71 806 71 806 93 819 c 128,-1,3
 115 832 115 832 143 841 c 128,-1,4
 171 850 171 850 199.5 854 c 128,-1,5
 228 858 228 858 254.5 859 c 128,-1,6
 281 860 281 860 300 860 c 0,7,8
 360 860 360 860 417.5 854 c 128,-1,9
 475 848 475 848 531.5 838 c 128,-1,10
 588 828 588 828 644.5 815 c 128,-1,11
 701 802 701 802 758 786 c 0,12,13
 875 752 875 752 1024 654 c 0,14,15
 1170 556 1170 556 1169 516 c 0,16,17
 1168 498 1168 498 1133 498 c 0,18,19
 1086 498 1086 498 1036 504 c 128,-1,20
 986 510 986 510 940 520 c 1,21,22
 951 624 951 624 776 708 c 0,23,24
 608 788 608 788 436 788 c 0,25,26
 419 788 419 788 398.5 787 c 128,-1,27
 378 786 378 786 356.5 782 c 128,-1,28
 335 778 335 778 314.5 771 c 128,-1,29
 294 764 294 764 277.5 752 c 128,-1,30
 261 740 261 740 250.5 724 c 128,-1,31
 240 708 240 708 239 684 c 0,32,33
 238 654 238 654 285 618 c 0,34,35
 345 572 345 572 349 570 c 1,36,37
 210 572 210 572 139 600 c 0,38,39
 92 620 92 620 61 670 c 1,40,41
 44 710 44 710 44 738 c 256,0,1
0 395 m 1,42,43
 37 382 37 382 75 374 c 128,-1,44
 113 366 113 366 157 365 c 256,45,46
 201 364 201 364 255 363 c 128,-1,47
 309 362 309 362 380 362 c 0,48,49
 428 362 428 362 507.5 363 c 128,-1,50
 587 364 587 364 700 366 c 256,51,52
 813 368 813 368 898 369.5 c 128,-1,53
 983 371 983 371 1042 371 c 0,54,55
 1149 371 1149 371 1317 273 c 1,56,57
 1326 260 1326 260 1336.5 250 c 128,-1,58
 1347 240 1347 240 1356 229 c 1,59,60
 1343 229 1343 229 1331 232 c 0,61,62
 1301 236 1301 236 1285.5 240 c 128,-1,63
 1270 244 1270 244 1267 244 c 2,64,-1
 1178 252 l 2,65,66
 1137 255 1137 255 1098.5 257.5 c 128,-1,67
 1060 260 1060 260 1022 260 c 0,68,69
 994 260 994 260 935 258 c 128,-1,70
 876 256 876 256 784 251 c 256,71,72
 692 246 692 246 624 243.5 c 128,-1,73
 556 241 556 241 511 241 c 0,74,75
 419 241 419 241 328 247 c 128,-1,76
 237 253 237 253 147 268 c 0,77,78
 81 278 81 278 0 368 c 1,79,-1
 0 395 l 1,42,43
EndSplineSet
EndChar

StartChar: oligonElafronApostrofos
Encoding: 57364 57364 25
Width: 1356
GlyphClass: 2
Flags: W
HStem: 239 124<223.115 913.744> 258 111<703.524 1155.72> 643 16<363.002 391.828> 792 72<322.5 555.835>
VStem: 62 195<675.216 741.139> 769 156<480.198 540.949>
AnchorPoint: "apli" 727 30 basechar 0
AnchorPoint: "klasmaBottom" 709 160 basechar 0
AnchorPoint: "yfesis" 1240 619 basechar 0
AnchorPoint: "diesis" 324 133 basechar 0
AnchorPoint: "psifiston" 764 113 basechar 0
AnchorPoint: "gorgonBottom" 591 125 basechar 0
AnchorPoint: "antikenoma" 744 165 basechar 0
AnchorPoint: "heteron" 1011 227 basechar 0
AnchorPoint: "fthoraTop" 526 1035 basechar 0
AnchorPoint: "fthoraBottom" 713 209 basechar 0
AnchorPoint: "noteTop" 138 912 basechar 0
AnchorPoint: "omalonConnecting" 1395 133 basechar 0
AnchorPoint: "omalon" 955 133 basechar 0
AnchorPoint: "heteronConnecting" 1616 -19 basechar 0
AnchorPoint: "measureNumber" 96 943 basechar 0
AnchorPoint: "isonIndicator" 716 984 basechar 0
AnchorPoint: "endofonon" 726 -62 basechar 0
AnchorPoint: "koronis" 707 1041 basechar 0
AnchorPoint: "yfenAbove" 854 1091 basechar 0
AnchorPoint: "yfenBelow" 853 -40 basechar 0
LayerCount: 2
Fore
SplineSet
0 366 m 1,0,-1
 0 393 l 1,1,2
 37 380 37 380 75 372 c 128,-1,3
 113 364 113 364 157 363 c 256,4,5
 201 362 201 362 255 361 c 128,-1,6
 309 360 309 360 380 360 c 0,7,8
 428 360 428 360 507.5 361 c 128,-1,9
 587 362 587 362 700 364 c 256,10,11
 813 366 813 366 898 367.5 c 128,-1,12
 983 369 983 369 1042 369 c 0,13,14
 1149 369 1149 369 1317 271 c 1,15,16
 1326 258 1326 258 1336.5 248 c 128,-1,17
 1347 238 1347 238 1356 227 c 1,18,19
 1343 227 1343 227 1331 230 c 0,20,21
 1301 234 1301 234 1285.5 238 c 128,-1,22
 1270 242 1270 242 1267 242 c 2,23,-1
 1178 250 l 2,24,25
 1137 253 1137 253 1098.5 255.5 c 128,-1,26
 1060 258 1060 258 1022 258 c 0,27,28
 994 258 994 258 935 256 c 128,-1,29
 876 254 876 254 784 249 c 256,30,31
 692 244 692 244 624 241.5 c 128,-1,32
 556 239 556 239 511 239 c 0,33,34
 419 239 419 239 328 245 c 128,-1,35
 237 251 237 251 147 266 c 0,36,37
 81 276 81 276 0 366 c 1,0,-1
62 742 m 0,38,39
 62 770 62 770 75.5 790 c 128,-1,40
 89 810 89 810 111 823.5 c 128,-1,41
 133 837 133 837 161 845 c 128,-1,42
 189 853 189 853 217.5 857.5 c 128,-1,43
 246 862 246 862 272.5 863 c 128,-1,44
 299 864 299 864 319 864 c 0,45,46
 371 864 371 864 425.5 859.5 c 128,-1,47
 480 855 480 855 539 845 c 0,48,49
 599 836 599 836 657 821 c 128,-1,50
 715 806 715 806 776 789 c 0,51,52
 835 772 835 772 901 739.5 c 128,-1,53
 967 707 967 707 1042 658 c 0,54,55
 1188 562 1188 562 1187 520 c 0,56,57
 1187 501 1187 501 1151 502 c 0,58,59
 1104 502 1104 502 1054 508.5 c 128,-1,60
 1004 515 1004 515 958 525 c 1,61,62
 970 629 970 629 794 713 c 0,63,64
 627 793 627 793 454 792 c 0,65,66
 437 792 437 792 416.5 790.5 c 128,-1,67
 396 789 396 789 374.5 785 c 128,-1,68
 353 781 353 781 332.5 774 c 128,-1,69
 312 767 312 767 295.5 755.5 c 128,-1,70
 279 744 279 744 268.5 728 c 128,-1,71
 258 712 258 712 257 689 c 0,72,73
 256 658 256 658 303 622 c 0,74,75
 361 577 361 577 366 575 c 1,76,77
 227 576 227 576 157 605 c 0,78,79
 110 625 110 625 79 674 c 1,80,81
 62 713 62 713 62 742 c 0,38,39
339 643 m 1,82,83
 352 646 352 646 363 651 c 128,-1,84
 374 656 374 656 386 659 c 0,85,86
 422 661 422 661 457.5 661.5 c 128,-1,87
 493 662 493 662 529 662 c 0,88,89
 556 662 556 662 587 658.5 c 128,-1,90
 618 655 618 655 653 648 c 0,91,92
 675 644 675 644 696 637.5 c 128,-1,93
 717 631 717 631 737 626 c 0,94,95
 752 623 752 623 772 616.5 c 128,-1,96
 792 610 792 610 813 601 c 128,-1,97
 834 592 834 592 854.5 580.5 c 128,-1,98
 875 569 875 569 890.5 554.5 c 128,-1,99
 906 540 906 540 915.5 523.5 c 128,-1,100
 925 507 925 507 925 487 c 0,101,102
 924 465 924 465 911 446 c 0,103,104
 906 440 906 440 883 440 c 0,105,106
 866 440 866 440 842 443 c 128,-1,107
 818 446 818 446 784 453 c 0,108,109
 773 455 773 455 758.5 458 c 128,-1,110
 744 461 744 461 725 465 c 1,111,112
 735 470 735 470 743.5 477 c 128,-1,113
 752 484 752 484 759 493 c 0,114,115
 774 511 774 511 769 525 c 0,116,117
 759 548 759 548 721 568.5 c 128,-1,118
 683 589 683 589 617 601 c 0,119,120
 546 614 546 614 478 623 c 128,-1,121
 410 632 410 632 339 643 c 1,82,83
EndSplineSet
EndChar

StartChar: oligonChamili
Encoding: 57365 57365 26
Width: 1357
GlyphClass: 2
Flags: W
HStem: 242 125<175.223 801.783> 261 111<746.081 1156.72> 545 54<732 973.875> 551 72.5<476.984 566.815>
AnchorPoint: "apli" 716 30 basechar 0
AnchorPoint: "klasmaBottom" 698 160 basechar 0
AnchorPoint: "yfesis" 1229 619 basechar 0
AnchorPoint: "diesis" 313 133 basechar 0
AnchorPoint: "psifiston" 753 113 basechar 0
AnchorPoint: "gorgonBottom" 580 125 basechar 0
AnchorPoint: "antikenoma" 733 165 basechar 0
AnchorPoint: "heteron" 1000 227 basechar 0
AnchorPoint: "fthoraTop" 671 927 basechar 0
AnchorPoint: "fthoraBottom" 702 209 basechar 0
AnchorPoint: "noteTop" 153 1020 basechar 0
AnchorPoint: "omalonConnecting" 1384 133 basechar 0
AnchorPoint: "omalon" 944 133 basechar 0
AnchorPoint: "heteronConnecting" 1605 -19 basechar 0
AnchorPoint: "measureNumber" 85 513 basechar 0
AnchorPoint: "isonIndicator" 705 1031 basechar 0
AnchorPoint: "endofonon" 715 -62 basechar 0
AnchorPoint: "koronis" 696 1041 basechar 0
AnchorPoint: "yfenAbove" 843 1031 basechar 0
AnchorPoint: "yfenBelow" 842 -40 basechar 0
LayerCount: 2
Fore
SplineSet
147 268 m 0,0,1
 82 278 82 278 0 368 c 1,2,-1
 0 395 l 1,3,4
 36 382 36 382 75.5 374.5 c 128,-1,5
 115 367 115 367 158 366 c 0,6,7
 202 365 202 365 256 363.5 c 128,-1,8
 310 362 310 362 380 362 c 0,9,10
 475 362 475 362 701 367 c 0,11,12
 926 372 926 372 1043 372 c 0,13,14
 1150 372 1150 372 1318 273 c 1,15,16
 1327 260 1327 260 1337.5 250.5 c 128,-1,17
 1348 241 1348 241 1357 229 c 1,18,19
 1356 229 1356 229 1349.5 229 c 128,-1,20
 1343 229 1343 229 1332 233 c 0,21,22
 1302 237 1302 237 1286.5 241 c 128,-1,23
 1271 245 1271 245 1267 245 c 2,24,-1
 1179 253 l 2,25,26
 1138 256 1138 256 1099 258.5 c 128,-1,27
 1060 261 1060 261 1022 261 c 0,28,29
 967 261 967 261 785 251 c 0,30,31
 602 242 602 242 512 242 c 0,32,33
 465 242 465 242 419.5 243.5 c 128,-1,34
 374 245 374 245 329 248 c 256,35,36
 284 251 284 251 238 256 c 128,-1,37
 192 261 192 261 147 268 c 0,0,1
757 680 m 1,38,39
 751 668 751 668 745 649.5 c 128,-1,40
 739 631 739 631 732 606 c 1,41,-1
 870 599 l 2,42,43
 1101 590 1101 590 1146 545 c 1,44,45
 1004 545 1004 545 898 545 c 128,-1,46
 792 545 792 545 712 546 c 1,47,48
 695 508 695 508 667 479 c 0,49,50
 656 465 656 465 623 455 c 0,51,52
 606 450 606 450 591 449 c 128,-1,53
 576 448 576 448 562 448 c 0,54,55
 540 448 540 448 531 451 c 0,56,57
 518 457 518 457 526 465 c 0,58,59
 551 501 551 501 567 551 c 1,60,-1
 554 551 l 1,61,62
 354 560 354 560 256 609 c 0,63,64
 172 648 172 648 70 773 c 0,65,66
 62 787 62 787 58 813 c 0,67,68
 45 887 45 887 40 896 c 1,69,70
 71 900 71 900 109 906 c 0,71,72
 147 911 147 911 162 910 c 0,73,74
 205 909 205 909 234 891 c 0,75,76
 241 887 241 887 242 866 c 2,77,-1
 239 821 l 2,78,79
 239 807 239 807 243 801 c 0,80,81
 335 670 335 670 546 627 c 0,82,83
 554 624 554 624 564.5 623.5 c 128,-1,84
 575 623 575 623 587 621 c 1,85,86
 592 637 592 637 596.5 649 c 128,-1,87
 601 661 601 661 607 673 c 0,88,89
 615 690 615 690 645 690 c 2,90,-1
 706 684 l 2,91,92
 718 682 718 682 731.5 681 c 128,-1,93
 745 680 745 680 757 680 c 1,38,39
EndSplineSet
EndChar

StartChar: isonApostrofos
Encoding: 57376 57376 27
Width: 1354
GlyphClass: 2
Flags: W
HStem: 113 19<679.641 708.864> 245 71<271.561 523.26> 251 108<569.713 936.833> 418 115<155.013 212.292> 431 102<99.1665 223.964>
VStem: 0.00976562 155<400 475> 1165.01 189<-84.6099 -19.7241>
AnchorPoint: "apli" 1212.01 -424 basechar 0
AnchorPoint: "diesis" 368.01 133 basechar 0
AnchorPoint: "fthoraTop" 612.01 507 basechar 0
AnchorPoint: "fthoraBottom" 388.01 153 basechar 0
AnchorPoint: "noteTop" 290.01 661 basechar 0
AnchorPoint: "measureNumber" 140.01 773 basechar 0
AnchorPoint: "isonIndicator" 598.01 913 basechar 0
AnchorPoint: "koronis" 598.01 881 basechar 0
AnchorPoint: "yfenAbove" 658.01 891 basechar 0
AnchorPoint: "yfenBelow" 722.01 -236 basechar 0
LayerCount: 2
Fore
SplineSet
701.009765625 132 m 1,0,1
 752.009765625 137 752.009765625 137 866.009765625 137 c 0,2,3
 902.009765625 137 902.009765625 137 942.009765625 133 c 128,-1,4
 982.009765625 129 982.009765625 129 1026.00976562 119 c 0,5,6
 1052.00976562 113 1052.00976562 113 1077.00976562 107 c 128,-1,7
 1102.00976562 101 1102.00976562 101 1128.00976562 93 c 0,8,9
 1227.00976562 68 1227.00976562 68 1290.00976562 21 c 0,10,11
 1354.00976562 -26 1354.00976562 -26 1354.00976562 -79 c 0,12,13
 1354.00976562 -110 1354.00976562 -110 1339.00976562 -129 c 0,14,15
 1333.00976562 -137 1333.00976562 -137 1304.00976562 -137 c 0,16,17
 1264.00976562 -137 1264.00976562 -137 1185.00976562 -122 c 0,18,19
 1173.00976562 -120 1173.00976562 -120 1154.00976562 -117 c 128,-1,20
 1135.00976562 -114 1135.00976562 -114 1112.00976562 -107 c 1,21,22
 1137.00976562 -96 1137.00976562 -96 1154.00976562 -71 c 0,23,24
 1170.00976562 -47 1170.00976562 -47 1165.00976562 -34 c 0,25,26
 1154.00976562 -6 1154.00976562 -6 1108.00976562 19.5 c 128,-1,27
 1062.00976562 45 1062.00976562 45 982.009765625 62 c 0,28,29
 898.009765625 79 898.009765625 79 812.509765625 90 c 128,-1,30
 727.009765625 101 727.009765625 101 643.009765625 113 c 1,31,-1
 701.009765625 132 l 1,0,1
70.009765625 529 m 0,32,33
 77.009765625 532 77.009765625 532 87.009765625 532.5 c 128,-1,34
 97.009765625 533 97.009765625 533 111.009765625 533 c 0,35,36
 154.009765625 533 154.009765625 533 199.509765625 519.5 c 128,-1,37
 245.009765625 506 245.009765625 506 293.009765625 477 c 1,38,-1
 356.009765625 418 l 1,39,40
 347.009765625 418 347.009765625 418 330.009765625 420 c 128,-1,41
 313.009765625 422 313.009765625 422 286.009765625 425 c 0,42,43
 261.009765625 428 261.009765625 428 242.509765625 429.5 c 128,-1,44
 224.009765625 431 224.009765625 431 213.009765625 431 c 0,45,46
 190.009765625 431 190.009765625 431 170.009765625 423 c 0,47,48
 155.009765625 416 155.009765625 416 155.009765625 400 c 0,49,50
 155.009765625 392 155.009765625 392 160.009765625 381 c 0,51,52
 167.009765625 367 167.009765625 367 171.009765625 357 c 128,-1,53
 175.009765625 347 175.009765625 347 179.009765625 345 c 0,54,55
 194.009765625 339 194.009765625 339 205.009765625 336 c 128,-1,56
 216.009765625 333 216.009765625 333 230.009765625 330 c 2,57,-1
 272.009765625 319 l 2,58,59
 279.009765625 317 279.009765625 317 293.009765625 316 c 128,-1,60
 307.009765625 315 307.009765625 315 328.009765625 315 c 0,61,62
 396.009765625 323 396.009765625 323 460.009765625 330.5 c 128,-1,63
 524.009765625 338 524.009765625 338 585.009765625 345 c 0,64,65
 706.009765625 358 706.009765625 358 843.009765625 359 c 0,66,67
 933.009765625 359 933.009765625 359 1066.00976562 264 c 1,68,-1
 1096.00976562 222 l 1,69,-1
 1077.00976562 227 l 1,70,-1
 1025.00976562 237 l 1,71,-1
 945.009765625 247 l 2,72,73
 871.009765625 257 871.009765625 257 805.009765625 256 c 1,74,-1
 766.009765625 253 l 2,75,76
 746.009765625 252 746.009765625 252 716.509765625 251 c 128,-1,77
 687.009765625 250 687.009765625 250 649.009765625 247 c 0,78,79
 634.009765625 246 634.009765625 246 609.009765625 245.5 c 128,-1,80
 584.009765625 245 584.009765625 245 549.009765625 245 c 0,81,82
 522.009765625 245 522.009765625 245 493.509765625 246 c 128,-1,83
 465.009765625 247 465.009765625 247 435.009765625 249 c 0,84,85
 374.009765625 252 374.009765625 252 299.009765625 262 c 0,86,87
 247.009765625 269 247.009765625 269 197.509765625 292 c 128,-1,88
 148.009765625 315 148.009765625 315 97.009765625 350 c 0,89,90
 -0.990234375 417 -0.990234375 417 0.009765625 475 c 0,91,92
 0.009765625 515 0.009765625 515 70.009765625 529 c 0,32,33
EndSplineSet
EndChar

StartChar: apostrofos
Encoding: 57377 57377 28
Width: 711
GlyphClass: 2
Flags: W
HStem: 397 19<36.6316 63.2109>
AnchorPoint: "omalonConnecting" 992 89 basechar 0
AnchorPoint: "gorgonTop" 348 580 basechar 0
AnchorPoint: "apli" 448 18 basechar 0
AnchorPoint: "klasmaTop" 356 567 basechar 0
AnchorPoint: "yfesis" 596 557 basechar 0
AnchorPoint: "diesis" 181 100 basechar 0
AnchorPoint: "gorgonBottom" 296 -18 basechar 0
AnchorPoint: "antikenoma" 409 101 basechar 0
AnchorPoint: "fthoraTop" 334 642 basechar 0
AnchorPoint: "fthoraBottom" 288 99 basechar 0
AnchorPoint: "noteTop" 118 643 basechar 0
AnchorPoint: "heteronConnecting" 827 -19 basechar 0
AnchorPoint: "measureNumber" 120 783 basechar 0
AnchorPoint: "isonIndicator" 314 944 basechar 0
AnchorPoint: "endofonon" 450 -126 basechar 0
AnchorPoint: "koronis" 318 891 basechar 0
AnchorPoint: "yfenAbove" 418 891 basechar 0
AnchorPoint: "yfenBelow" 457 -40 basechar 0
LayerCount: 2
Fore
SplineSet
58 416 m 1,0,1
 109 421 109 421 223 421 c 0,2,3
 259 421 259 421 299 417 c 128,-1,4
 339 413 339 413 383 403 c 0,5,6
 409 397 409 397 434 390.5 c 128,-1,7
 459 384 459 384 485 377 c 0,8,9
 583 352 583 352 647 305 c 0,10,11
 710 258 710 258 711 205 c 0,12,13
 711 174 711 174 696 154 c 0,14,15
 690 146 690 146 661 147 c 0,16,17
 620 147 620 147 542 162 c 0,18,19
 529 164 529 164 510.5 167 c 128,-1,20
 492 170 492 170 469 176 c 1,21,22
 494 187 494 187 511 213 c 0,23,24
 528 237 528 237 522 250 c 0,25,26
 510 278 510 278 464.5 304 c 128,-1,27
 419 330 419 330 339 345 c 0,28,29
 255 362 255 362 169.5 373 c 128,-1,30
 84 384 84 384 0 397 c 1,31,-1
 58 416 l 1,0,1
EndSplineSet
EndChar

StartChar: apostrofosSyndesmos
Encoding: 57378 57378 29
Width: 1428
GlyphClass: 2
Flags: W
HStem: 163 18<752.222 775.868> 438 19<36.6316 66.4062>
VStem: 1240 188<-33.6631 30.0979>
AnchorPoint: "gorgonTop" 1058 193 basechar 0
AnchorPoint: "apli" 1064 -424 basechar 0
AnchorPoint: "diesis" 453 127 basechar 0
AnchorPoint: "fthoraTop" 707 642 basechar 0
AnchorPoint: "fthoraBottom" 493 93 basechar 0
AnchorPoint: "noteTop" 314 699 basechar 0
AnchorPoint: "measureNumber" 292 803 basechar 0
AnchorPoint: "isonIndicator" 750 913 basechar 0
AnchorPoint: "koronis" 750 881 basechar 0
AnchorPoint: "yfenAbove" 1050 891 basechar 0
AnchorPoint: "yfenBelow" 1049 -400 basechar 0
LayerCount: 2
Fore
SplineSet
58 457 m 1,0,1
 110 461 110 461 223 461 c 0,2,3
 259 461 259 461 299 457.5 c 128,-1,4
 339 454 339 454 383 444 c 0,5,6
 409 438 409 438 434.5 432 c 128,-1,7
 460 426 460 426 485 418 c 0,8,9
 584 393 584 393 647 345 c 0,10,11
 710 298 710 298 711 246 c 0,12,13
 711 215 711 215 696 196 c 0,14,15
 690 189 690 189 661 188 c 0,16,17
 620 188 620 188 542 203 c 0,18,19
 530 205 530 205 511 208 c 128,-1,20
 492 211 492 211 469 218 c 1,21,22
 494 229 494 229 511 254 c 0,23,24
 528 278 528 278 522 291 c 0,25,26
 510 319 510 319 464.5 344.5 c 128,-1,27
 419 370 419 370 339 386 c 0,28,29
 255 403 255 403 170 414.5 c 128,-1,30
 85 426 85 426 0 438 c 1,31,-1
 58 457 l 1,0,1
774 181 m 1,32,33
 826 186 826 186 942 186 c 0,34,35
 978 186 978 186 1017 182.5 c 128,-1,36
 1056 179 1056 179 1100 169 c 0,37,38
 1126 163 1126 163 1151 156.5 c 128,-1,39
 1176 150 1176 150 1202 142 c 0,40,41
 1300 117 1300 117 1364 71 c 0,42,43
 1428 24 1428 24 1428 -30 c 0,44,45
 1428 -61 1428 -61 1412 -79 c 0,46,47
 1406 -87 1406 -87 1378 -87 c 0,48,49
 1338 -87 1338 -87 1260 -72 c 0,50,51
 1248 -70 1248 -70 1229 -67 c 128,-1,52
 1210 -64 1210 -64 1188 -57 c 1,53,54
 1212 -44 1212 -44 1228 -22 c 0,55,56
 1244 2 1244 2 1240 16 c 0,57,58
 1228 44 1228 44 1182 69.5 c 128,-1,59
 1136 95 1136 95 1056 111 c 0,60,61
 972 128 972 128 887 139 c 128,-1,62
 802 150 802 150 718 163 c 1,63,-1
 774 181 l 1,32,33
EndSplineSet
EndChar

StartChar: yporroi
Encoding: 57379 57379 30
Width: 339
GlyphClass: 2
Flags: W
HStem: 176 58<108.198 234.571> 390 41<264.824 337.231> 399 41<258.573 319.288>
VStem: 111.571 147<342.094 398.95> 164.571 160<238.672 305.396>
AnchorPoint: "gorgonTop" 344.571 527 basechar 0
AnchorPoint: "apli" 105.571 42 basechar 0
AnchorPoint: "yfesis" 252.571 609 basechar 0
AnchorPoint: "diesis" 211.571 60 basechar 0
AnchorPoint: "antikenoma" 141.571 100 basechar 0
AnchorPoint: "heteron" 260.571 -86 basechar 0
AnchorPoint: "fthoraTop" 252.571 609 basechar 0
AnchorPoint: "fthoraBottom" 92.5713 101 basechar 0
AnchorPoint: "noteTop" 100.571 675 basechar 0
AnchorPoint: "heteronConnecting" 527.571 -19 basechar 0
AnchorPoint: "measureNumber" 16.5713 483 basechar 0
AnchorPoint: "isonIndicator" 156.571 913 basechar 0
AnchorPoint: "endofonon" 136.571 -146 basechar 0
AnchorPoint: "koronis" 154.571 881 basechar 0
AnchorPoint: "yfenAbove" 161.571 887 basechar 0
AnchorPoint: "yfenBelow" 103.571 -40 basechar 0
AnchorPoint: "yfesisSecondary" -74.4287 -223 basechar 0
AnchorPoint: "barline" 230.571 590 basechar 0
AnchorPoint: "diesisSecondary" 531.571 887 basechar 0
LayerCount: 2
Fore
SplineSet
306.571289062 203 m 0,0,1
 295.571289062 189 295.571289062 189 272.571289062 182 c 0,2,3
 249.571289062 176 249.571289062 176 219.571289062 176 c 0,4,5
 197.571289062 176 197.571289062 176 178.071289062 178.5 c 128,-1,6
 158.571289062 181 158.571289062 181 136.571289062 183 c 0,7,8
 114.571289062 186 114.571289062 186 101.571289062 191 c 128,-1,9
 88.5712890625 196 88.5712890625 196 80.5712890625 199 c 2,10,-1
 34.5712890625 218 l 2,11,12
 3.5712890625 234 3.5712890625 234 0.5712890625 238 c 0,13,14
 -1.4287109375 241 -1.4287109375 241 3.5712890625 245 c 0,15,16
 4.5712890625 246 4.5712890625 246 16.5712890625 246 c 0,17,18
 24.5712890625 246 24.5712890625 246 33.0712890625 246 c 128,-1,19
 41.5712890625 246 41.5712890625 246 53.5712890625 243 c 0,20,21
 119.571289062 234 119.571289062 234 131.571289062 234 c 0,22,23
 150.571289062 234 150.571289062 234 158.571289062 242 c 0,24,25
 164.571289062 248 164.571289062 248 164.571289062 259 c 0,26,27
 164.571289062 276 164.571289062 276 137.571289062 321 c 0,28,29
 111.571289062 366 111.571289062 366 111.571289062 390 c 0,30,31
 111.571289062 411 111.571289062 411 127.571289062 426 c 0,32,33
 133.571289062 432 133.571289062 432 161.571289062 437 c 0,34,35
 174.571289062 439 174.571289062 439 189.071289062 439.5 c 128,-1,36
 203.571289062 440 203.571289062 440 219.571289062 440 c 0,37,38
 236.571289062 440 236.571289062 440 254.571289062 440 c 128,-1,39
 272.571289062 440 272.571289062 440 291.571289062 437 c 0,40,41
 327.571289062 432 327.571289062 432 328.571289062 431 c 0,42,43
 337.571289062 414 337.571289062 414 338.571289062 404 c 0,44,45
 338.571289062 390 338.571289062 390 319.571289062 390 c 0,46,47
 310.571289062 390 310.571289062 390 291.571289062 394 c 0,48,49
 272.571289062 399 272.571289062 399 264.571289062 399 c 0,50,51
 258.571289062 399 258.571289062 399 258.571289062 394 c 0,52,53
 258.571289062 375 258.571289062 375 291.571289062 324 c 256,54,55
 324.571289062 273 324.571289062 273 324.571289062 245 c 0,56,57
 323.571289062 224 323.571289062 224 306.571289062 203 c 0,0,1
EndSplineSet
Substitution2: "subs-trigorgon-1" yporroi.trigorgon
Substitution2: "subs-digorgon-1" yporroi.digorgon
Substitution2: "subs-gorgon-1" yporroi.gorgon
EndChar

StartChar: elafron
Encoding: 57380 57380 31
Width: 1125
GlyphClass: 2
Flags: W
HStem: 410 72<258.078 483.093>
VStem: 0 195<293.247 359.234>
AnchorPoint: "gorgonTop" 567 580 basechar 0
AnchorPoint: "apli" 528 -1 basechar 0
AnchorPoint: "klasmaTop" 500 620 basechar 0
AnchorPoint: "yfesis" 920 536 basechar 0
AnchorPoint: "diesis" 367 20 basechar 0
AnchorPoint: "gorgonBottom" 427 -18 basechar 0
AnchorPoint: "antikenoma" 506 70 basechar 0
AnchorPoint: "fthoraTop" 458 660 basechar 0
AnchorPoint: "fthoraBottom" 549 70 basechar 0
AnchorPoint: "noteTop" 182 703 basechar 0
AnchorPoint: "omalonConnecting" 1181 89 basechar 0
AnchorPoint: "heteronConnecting" 1360 -19 basechar 0
AnchorPoint: "measureNumber" 112 613 basechar 0
AnchorPoint: "isonIndicator" 468 944 basechar 0
AnchorPoint: "endofonon" 572 -37 basechar 0
AnchorPoint: "koronis" 500 746 basechar 0
AnchorPoint: "yfenAbove" 590 901 basechar 0
AnchorPoint: "yfenBelow" 599 -40 basechar 0
LayerCount: 2
Fore
SplineSet
0 360 m 256,0,1
 0 388 0 388 13.5 408 c 128,-1,2
 27 428 27 428 49 441 c 128,-1,3
 71 454 71 454 99 463 c 128,-1,4
 127 472 127 472 155.5 476 c 128,-1,5
 184 480 184 480 210.5 481 c 128,-1,6
 237 482 237 482 256 482 c 0,7,8
 316 482 316 482 373.5 476 c 128,-1,9
 431 470 431 470 487.5 460 c 128,-1,10
 544 450 544 450 600.5 437 c 128,-1,11
 657 424 657 424 714 408 c 0,12,13
 831 374 831 374 980 276 c 0,14,15
 1126 178 1126 178 1125 138 c 0,16,17
 1124 120 1124 120 1089 120 c 0,18,19
 1042 120 1042 120 992 126 c 128,-1,20
 942 132 942 132 896 142 c 1,21,22
 907 246 907 246 732 330 c 0,23,24
 564 410 564 410 392 410 c 0,25,26
 375 410 375 410 354.5 409 c 128,-1,27
 334 408 334 408 312.5 404 c 128,-1,28
 291 400 291 400 270.5 393 c 128,-1,29
 250 386 250 386 233.5 374 c 128,-1,30
 217 362 217 362 206.5 346 c 128,-1,31
 196 330 196 330 195 306 c 0,32,33
 194 276 194 276 241 240 c 0,34,35
 301 194 301 194 305 192 c 1,36,37
 166 194 166 194 95 222 c 0,38,39
 48 242 48 242 17 292 c 1,40,41
 0 332 0 332 0 360 c 256,0,1
EndSplineSet
EndChar

StartChar: runningElafron
Encoding: 57381 57381 32
Width: 1772
GlyphClass: 2
Flags: W
HStem: 400 70<960.511 1171.5> 417 15<28.8 42.4294>
AnchorPoint: "gorgonTop" 1147 580 basechar 0
AnchorPoint: "apli" 1132 13 basechar 0
AnchorPoint: "klasmaTop" 1060 620 basechar 0
AnchorPoint: "yfesis" 1490 536 basechar 0
AnchorPoint: "diesis" 937 20 basechar 0
AnchorPoint: "antikenoma" 1191 101 basechar 0
AnchorPoint: "fthoraTop" 1098 660 basechar 0
AnchorPoint: "fthoraBottom" 1139 70 basechar 0
AnchorPoint: "noteTop" 742 703 basechar 0
AnchorPoint: "omalonConnecting" 1751 89 basechar 0
AnchorPoint: "heteronConnecting" 1929 -19 basechar 0
AnchorPoint: "measureNumber" 172 653 basechar 0
AnchorPoint: "isonIndicator" 1018 944 basechar 0
AnchorPoint: "endofonon" 1112 -37 basechar 0
AnchorPoint: "koronis" 1030 746 basechar 0
AnchorPoint: "yfenAbove" 1060 891 basechar 0
AnchorPoint: "yfenBelow" 1109 -40 basechar 0
AnchorPoint: "fthoraTopSecondary" 290 665 basechar 0
AnchorPoint: "yfesisSecondary" 388 570 basechar 0
AnchorPoint: "barline" 583 590 basechar 0
AnchorPoint: "diesisSecondary" 713 895 basechar 0
AnchorPoint: "stavros" 547 487 basechar 0
LayerCount: 2
Fore
SplineSet
54 432 m 1,0,1
 102 436 102 436 208 437 c 0,2,3
 280 437 280 437 358 422 c 0,4,5
 386 417 386 417 409 410.5 c 128,-1,6
 432 404 432 404 454 395 c 0,7,8
 502 384 502 384 541 367 c 128,-1,9
 580 350 580 350 606 329 c 0,10,11
 666 284 666 284 666 232 c 0,12,13
 666 206 666 206 652 185 c 0,14,15
 648 178 648 178 620 177 c 0,16,17
 584 177 584 177 508 192 c 0,18,19
 496 194 496 194 479 197.5 c 128,-1,20
 462 201 462 201 440 206 c 1,21,22
 466 222 466 222 480 240 c 0,23,24
 488 251 488 251 491 259.5 c 128,-1,25
 494 268 494 268 492 276 c 0,26,27
 480 302 480 302 437 326.5 c 128,-1,28
 394 351 394 351 318 367 c 0,29,30
 238 384 238 384 159 393.5 c 128,-1,31
 80 403 80 403 0 417 c 1,32,-1
 54 432 l 1,0,1
1558 137 m 1,33,34
 1572 235 1572 235 1406 317 c 0,35,36
 1326 357 1326 357 1248 377.5 c 128,-1,37
 1170 398 1170 398 1088 400 c 0,38,39
 1008 403 1008 403 958 378 c 1,40,41
 906 357 906 357 900 304 c 0,42,43
 898 273 898 273 942 239 c 0,44,45
 998 196 998 196 1004 195 c 1,46,47
 938 195 938 195 890 204 c 128,-1,48
 842 213 842 213 808 226 c 0,49,50
 764 244 764 244 734 292 c 0,51,52
 728 309 728 309 724 326 c 128,-1,53
 720 343 720 343 720 361 c 0,54,55
 720 419 720 419 786 445 c 0,56,57
 852 472 852 472 964 470 c 0,58,59
 1010 470 1010 470 1062 464.5 c 128,-1,60
 1114 459 1114 459 1168 449 c 0,61,62
 1224 437 1224 437 1280 422 c 128,-1,63
 1336 407 1336 407 1392 390 c 0,64,65
 1450 369 1450 369 1511 337.5 c 128,-1,66
 1572 306 1572 306 1638 260 c 0,67,68
 1772 167 1772 167 1772 126 c 0,69,70
 1772 110 1772 110 1738 111 c 0,71,72
 1716 111 1716 111 1687 113.5 c 128,-1,73
 1658 116 1658 116 1622 123 c 0,74,75
 1610 125 1610 125 1595 129 c 128,-1,76
 1580 133 1580 133 1558 137 c 1,33,34
EndSplineSet
EndChar

StartChar: elafronApostrofos
Encoding: 57382 57382 33
Width: 1125
GlyphClass: 2
Flags: W
HStem: 240 15<308.002 332.517> 416 72<259.892 488.354>
VStem: 0 195<299.216 365.139>
AnchorPoint: "gorgonTop" 545 580 basechar 0
AnchorPoint: "apli" 518 -93 basechar 0
AnchorPoint: "klasmaTop" 478 620 basechar 0
AnchorPoint: "yfesis" 898 536 basechar 0
AnchorPoint: "diesis" 345 20 basechar 0
AnchorPoint: "gorgonBottom" 405 -93 basechar 0
AnchorPoint: "antikenoma" 499 -29 basechar 0
AnchorPoint: "fthoraTop" 436 660 basechar 0
AnchorPoint: "fthoraBottom" 527 -30 basechar 0
AnchorPoint: "noteTop" 150 703 basechar 0
AnchorPoint: "omalonConnecting" 1159 89 basechar 0
AnchorPoint: "heteronConnecting" 1338 -19 basechar 0
AnchorPoint: "measureNumber" 90 643 basechar 0
AnchorPoint: "isonIndicator" 446 944 basechar 0
AnchorPoint: "endofonon" 550 -37 basechar 0
AnchorPoint: "koronis" 478 746 basechar 0
AnchorPoint: "yfenAbove" 548 891 basechar 0
AnchorPoint: "yfenBelow" 577 -210 basechar 0
LayerCount: 2
Fore
SplineSet
0 366 m 0,0,1
 0 394 0 394 13.5 414 c 128,-1,2
 27 434 27 434 49 447.5 c 128,-1,3
 71 461 71 461 98.5 469 c 128,-1,4
 126 477 126 477 155 481.5 c 128,-1,5
 184 486 184 486 210.5 487 c 128,-1,6
 237 488 237 488 256 488 c 0,7,8
 317 488 317 488 374.5 482.5 c 128,-1,9
 432 477 432 477 488 467 c 128,-1,10
 544 457 544 457 600 443.5 c 128,-1,11
 656 430 656 430 714 413 c 0,12,13
 832 379 832 379 980 282 c 0,14,15
 1126 186 1126 186 1125 144 c 0,16,17
 1125 125 1125 125 1089 126 c 0,18,19
 1042 126 1042 126 992 132.5 c 128,-1,20
 942 139 942 139 896 149 c 1,21,22
 907 253 907 253 731 337 c 0,23,24
 564 417 564 417 392 416 c 0,25,26
 375 416 375 416 354.5 414.5 c 128,-1,27
 334 413 334 413 312.5 409.5 c 128,-1,28
 291 406 291 406 270.5 398.5 c 128,-1,29
 250 391 250 391 233.5 379.5 c 128,-1,30
 217 368 217 368 206.5 352 c 128,-1,31
 196 336 196 336 195 313 c 0,32,33
 194 282 194 282 241 246 c 0,34,35
 299 201 299 201 304 199 c 1,36,37
 165 200 165 200 95 229 c 0,38,39
 48 249 48 249 17 298 c 1,40,41
 0 337 0 337 0 366 c 0,0,1
284 240 m 1,42,43
 297 243 297 243 308 247.5 c 128,-1,44
 319 252 319 252 331 255 c 0,45,46
 367 257 367 257 402.5 258 c 128,-1,47
 438 259 438 259 474 259 c 0,48,49
 501 259 501 259 532 255 c 128,-1,50
 563 251 563 251 599 244 c 0,51,52
 621 240 621 240 641.5 233.5 c 128,-1,53
 662 227 662 227 683 222 c 0,54,55
 698 219 698 219 717.5 212.5 c 128,-1,56
 737 206 737 206 758 197 c 128,-1,57
 779 188 779 188 799.5 176.5 c 128,-1,58
 820 165 820 165 836 151 c 128,-1,59
 852 137 852 137 861.5 120 c 128,-1,60
 871 103 871 103 870 83 c 0,61,62
 870 61 870 61 856 43 c 0,63,64
 851 37 851 37 828 36 c 0,65,66
 811 36 811 36 787 39 c 128,-1,67
 763 42 763 42 730 49 c 0,68,69
 719 51 719 51 704 54 c 128,-1,70
 689 57 689 57 670 61 c 1,71,72
 690 71 690 71 705 90 c 0,73,74
 720 108 720 108 714 121 c 0,75,76
 704 144 704 144 666 164.5 c 128,-1,77
 628 185 628 185 563 198 c 0,78,79
 492 211 492 211 423.5 220 c 128,-1,80
 355 229 355 229 284 240 c 1,42,43
EndSplineSet
EndChar

StartChar: chamili
Encoding: 57383 57383 34
Width: 1106
GlyphClass: 2
Flags: W
HStem: 308 55<692 850.25> 314 71<442.968 527>
AnchorPoint: "gorgonTop" 790 680 basechar 0
AnchorPoint: "apli" 611 76 basechar 0
AnchorPoint: "klasmaTop" 718 513 basechar 0
AnchorPoint: "yfesis" 924 747 basechar 0
AnchorPoint: "diesis" 364 201 basechar 0
AnchorPoint: "gorgonBottom" 364 125 basechar 0
AnchorPoint: "antikenoma" 613 169 basechar 0
AnchorPoint: "fthoraTop" 744 765 basechar 0
AnchorPoint: "fthoraBottom" 580 240 basechar 0
AnchorPoint: "noteTop" 213 923 basechar 0
AnchorPoint: "omalonConnecting" 1082 89 basechar 0
AnchorPoint: "heteronConnecting" 1255 -19 basechar 0
AnchorPoint: "measureNumber" 143 943 basechar 0
AnchorPoint: "isonIndicator" 499 1044 basechar 0
AnchorPoint: "endofonon" 603 -37 basechar 0
AnchorPoint: "koronis" 741 916 basechar 0
AnchorPoint: "yfenAbove" 601 921 basechar 0
AnchorPoint: "yfenBelow" 630 -40 basechar 0
LayerCount: 2
Fore
SplineSet
717 444 m 1,0,1
 711 432 711 432 705 413 c 128,-1,2
 699 394 699 394 692 369 c 1,3,-1
 829 363 l 2,4,5
 1060 354 1060 354 1106 308 c 1,6,7
 964 308 964 308 857.5 308 c 128,-1,8
 751 308 751 308 672 309 c 1,9,10
 655 271 655 271 626 242 c 0,11,12
 615 228 615 228 583 219 c 0,13,14
 566 214 566 214 551 212.5 c 128,-1,15
 536 211 536 211 522 211 c 0,16,17
 500 211 500 211 491 214 c 0,18,19
 478 218 478 218 486 228 c 0,20,21
 511 264 511 264 527 314 c 1,22,-1
 514 314 l 1,23,24
 314 323 314 323 216 372 c 0,25,26
 132 411 132 411 30 536 c 0,27,28
 22 550 22 550 17 577 c 0,29,30
 4 651 4 651 0 660 c 1,31,32
 31 664 31 664 69 669 c 256,33,34
 107 674 107 674 122 674 c 0,35,36
 165 672 165 672 194 655 c 0,37,38
 202 650 202 650 201 630 c 2,39,-1
 199 584 l 2,40,41
 199 570 199 570 203 564 c 0,42,43
 295 433 295 433 506 391 c 0,44,45
 514 388 514 388 524 387 c 128,-1,46
 534 386 534 386 547 385 c 1,47,48
 552 401 552 401 557 413 c 128,-1,49
 562 425 562 425 567 436 c 0,50,51
 576 453 576 453 605 453 c 2,52,-1
 665 447 l 2,53,54
 678 445 678 445 691 444.5 c 128,-1,55
 704 444 704 444 717 444 c 1,0,1
EndSplineSet
EndChar

StartChar: chamiliApostrofos
Encoding: 57384 57384 35
Width: 1106
GlyphClass: 2
Flags: W
HStem: 102 19<48.6316 78.4062> 293 55<692 850.25> 299 71<442.968 526>
AnchorPoint: "gorgonTop" 777 680 basechar 0
AnchorPoint: "apli" 534 -211 basechar 0
AnchorPoint: "klasmaTop" 705 513 basechar 0
AnchorPoint: "yfesis" 911 747 basechar 0
AnchorPoint: "diesis" 286 16 basechar 0
AnchorPoint: "antikenoma" 537 -129 basechar 0
AnchorPoint: "fthoraTop" 731 765 basechar 0
AnchorPoint: "fthoraBottom" 567 -130 basechar 0
AnchorPoint: "noteTop" 200 933 basechar 0
AnchorPoint: "omalonConnecting" 1065 -40 basechar 0
AnchorPoint: "heteronConnecting" 1242 -180 basechar 0
AnchorPoint: "measureNumber" 130 943 basechar 0
AnchorPoint: "isonIndicator" 486 1044 basechar 0
AnchorPoint: "endofonon" 590 -257 basechar 0
AnchorPoint: "koronis" 678 910 basechar 0
AnchorPoint: "yfenAbove" 588 921 basechar 0
AnchorPoint: "yfenBelow" 617 -300 basechar 0
LayerCount: 2
Fore
SplineSet
70 121 m 1,0,1
 122 126 122 126 235 126 c 0,2,3
 271 126 271 126 311 122 c 128,-1,4
 351 118 351 118 395 108 c 0,5,6
 421 102 421 102 446.5 96 c 128,-1,7
 472 90 472 90 497 82 c 0,8,9
 595 58 595 58 659 10 c 0,10,11
 722 -36 722 -36 723 -90 c 0,12,13
 723 -121 723 -121 708 -140 c 0,14,15
 701 -148 701 -148 673 -148 c 0,16,17
 632 -148 632 -148 554 -132 c 0,18,19
 542 -130 542 -130 523 -127 c 128,-1,20
 504 -124 504 -124 481 -118 c 1,21,22
 506 -106 506 -106 523 -82 c 256,23,24
 540 -58 540 -58 534 -44 c 0,25,26
 522 -15 522 -15 476.5 10 c 128,-1,27
 431 35 431 35 351 51 c 0,28,29
 267 68 267 68 182 79 c 128,-1,30
 97 90 97 90 12 102 c 1,31,-1
 70 121 l 1,0,1
717 429 m 1,32,33
 711 417 711 417 704.5 398 c 128,-1,34
 698 379 698 379 692 354 c 1,35,-1
 829 348 l 2,36,37
 1060 339 1060 339 1106 293 c 1,38,39
 964 293 964 293 857.5 293 c 128,-1,40
 751 293 751 293 671 294 c 1,41,42
 654 256 654 256 626 228 c 0,43,44
 615 214 615 214 583 204 c 0,45,46
 566 199 566 199 551 198 c 128,-1,47
 536 197 536 197 521 196 c 0,48,49
 499 196 499 196 490 199 c 0,50,51
 477 204 477 204 485 213 c 0,52,53
 510 249 510 249 526 299 c 1,54,-1
 514 299 l 1,55,56
 314 308 314 308 215 357 c 0,57,58
 131 396 131 396 29 521 c 0,59,60
 21 535 21 535 17 561 c 0,61,62
 4 635 4 635 0 644 c 1,63,64
 31 648 31 648 68 654 c 0,65,66
 106 659 106 659 122 659 c 0,67,68
 165 658 165 658 193 640 c 0,69,70
 200 636 200 636 201 615 c 2,71,-1
 198 569 l 2,72,73
 198 555 198 555 203 549 c 0,74,75
 295 418 295 418 506 376 c 0,76,77
 514 373 514 373 524 372 c 128,-1,78
 534 371 534 371 546 370 c 1,79,80
 551 386 551 386 556 398 c 128,-1,81
 561 410 561 410 567 421 c 0,82,83
 575 438 575 438 604 438 c 2,84,-1
 665 432 l 2,85,86
 678 431 678 431 691 430 c 128,-1,87
 704 429 704 429 717 429 c 1,32,33
EndSplineSet
EndChar

StartChar: chamiliElafron
Encoding: 57385 57385 36
Width: 1126
GlyphClass: 2
Flags: W
HStem: 386 76<251.756 468.303> 496 242<535 625> 593 54<712 953.875>
AnchorPoint: "gorgonTop" 756 1010 basechar 0
AnchorPoint: "apli" 512 -10 basechar 0
AnchorPoint: "klasmaTop" 744 820 basechar 0
AnchorPoint: "yfesis" 942 1051 basechar 0
AnchorPoint: "diesis" 395 16 basechar 0
AnchorPoint: "antikenoma" 506 91 basechar 0
AnchorPoint: "fthoraTop" 710 1065 basechar 0
AnchorPoint: "fthoraBottom" 546 90 basechar 0
AnchorPoint: "noteTop" 179 1223 basechar 0
AnchorPoint: "omalonConnecting" 1177 89 basechar 0
AnchorPoint: "heteronConnecting" 1357 -19 basechar 0
AnchorPoint: "measureNumber" 109 1233 basechar 0
AnchorPoint: "isonIndicator" 465 1374 basechar 0
AnchorPoint: "endofonon" 569 -37 basechar 0
AnchorPoint: "koronis" 707 1226 basechar 0
AnchorPoint: "yfenAbove" 567 1301 basechar 0
AnchorPoint: "yfenBelow" 596 -40 basechar 0
LayerCount: 2
Fore
SplineSet
0 344 m 0,0,1
 0 372 0 372 13.5 391.5 c 128,-1,2
 27 411 27 411 49.5 424.5 c 128,-1,3
 72 438 72 438 100 445 c 128,-1,4
 128 452 128 452 157 456 c 128,-1,5
 186 460 186 460 213 461 c 128,-1,6
 240 462 240 462 259 462 c 0,7,8
 377 459 377 459 490.5 436 c 128,-1,9
 604 413 604 413 716 377 c 0,10,11
 836 338 836 338 979 241 c 0,12,13
 1122 143 1122 143 1122 100 c 0,14,15
 1122 83 1122 83 1086 83 c 0,16,17
 1039 83 1039 83 988.5 91 c 128,-1,18
 938 99 938 99 892 112 c 1,19,20
 906 213 906 213 731 301 c 0,21,22
 646 342 646 342 559.5 364 c 128,-1,23
 473 386 473 386 379 386 c 0,24,25
 353 386 353 386 322 383 c 128,-1,26
 291 380 291 380 264 369.5 c 128,-1,27
 237 359 237 359 217.5 339.5 c 128,-1,28
 198 320 198 320 195 286 c 0,29,30
 193 253 193 253 239 218 c 0,31,32
 300 171 300 171 303 171 c 1,33,34
 233 173 233 173 181.5 181.5 c 128,-1,35
 130 190 130 190 94 205 c 0,36,37
 49 225 49 225 17 274 c 1,38,39
 0 314 0 314 0 344 c 0,0,1
20 944 m 1,40,41
 36 946 36 946 53 948.5 c 128,-1,42
 70 951 70 951 89 954 c 0,43,44
 102 956 102 956 115 957 c 128,-1,45
 128 958 128 958 142 958 c 0,46,47
 185 957 185 957 214 940 c 0,48,49
 222 935 222 935 222 915 c 2,50,-1
 219 869 l 2,51,52
 219 856 219 856 224 849 c 0,53,54
 317 717 317 717 526 676 c 0,55,56
 534 673 534 673 544.5 672 c 128,-1,57
 555 671 555 671 567 669 c 1,58,59
 571 685 571 685 576.5 697 c 128,-1,60
 582 709 582 709 587 721 c 0,61,62
 595 738 595 738 625 738 c 2,63,-1
 686 732 l 2,64,65
 698 731 698 731 711.5 730 c 128,-1,66
 725 729 725 729 737 729 c 1,67,68
 731 716 731 716 725 697 c 128,-1,69
 719 678 719 678 712 654 c 1,70,-1
 850 647 l 2,71,72
 1081 638 1081 638 1126 593 c 1,73,-1
 976 593 l 2,74,75
 888 593 888 593 819 593 c 128,-1,76
 750 593 750 593 692 594 c 1,77,78
 674 557 674 557 647 527 c 0,79,80
 640 517 640 517 625.5 511 c 128,-1,81
 611 505 611 505 595 501.5 c 128,-1,82
 579 498 579 498 563 497 c 128,-1,83
 547 496 547 496 535 496 c 0,84,85
 519 496 519 496 511 499 c 0,86,87
 498 504 498 504 506 513 c 0,88,89
 519 531 519 531 529 552.5 c 128,-1,90
 539 574 539 574 547 599 c 1,91,-1
 534 599 l 1,92,93
 433 604 433 604 359.5 618 c 128,-1,94
 286 632 286 632 236 657 c 0,95,96
 152 696 152 696 50 821 c 0,97,98
 42 835 42 835 38 862 c 0,99,100
 32 899 32 899 27 919 c 128,-1,101
 22 939 22 939 20 944 c 1,40,41
EndSplineSet
EndChar

StartChar: chamiliElafronApostrofos
Encoding: 57386 57386 37
Width: 1128
GlyphClass: 2
Flags: W
HStem: 219 15<307.51 333.007> 396 71<262.727 493.594> 592 55<714 873.248>
VStem: 0 196<277.217 343.619>
AnchorPoint: "gorgonTop" 777 1010 basechar 0
AnchorPoint: "apli" 533 -110 basechar 0
AnchorPoint: "klasmaTop" 765 820 basechar 0
AnchorPoint: "yfesis" 963 1051 basechar 0
AnchorPoint: "diesis" 416 16 basechar 0
AnchorPoint: "antikenoma" 535 -18 basechar 0
AnchorPoint: "fthoraTop" 731 1085 basechar 0
AnchorPoint: "fthoraBottom" 567 -20 basechar 0
AnchorPoint: "noteTop" 200 1223 basechar 0
AnchorPoint: "omalonConnecting" 1198 89 basechar 0
AnchorPoint: "heteronConnecting" 1378 -19 basechar 0
AnchorPoint: "measureNumber" 130 1233 basechar 0
AnchorPoint: "isonIndicator" 486 1374 basechar 0
AnchorPoint: "endofonon" 590 -107 basechar 0
AnchorPoint: "koronis" 728 1216 basechar 0
AnchorPoint: "yfenAbove" 588 1251 basechar 0
AnchorPoint: "yfenBelow" 617 -230 basechar 0
LayerCount: 2
Fore
SplineSet
740 728 m 1,0,1
 734 716 734 716 727.5 697 c 128,-1,2
 721 678 721 678 714 653 c 1,3,-1
 852 647 l 2,4,5
 1083 638 1083 638 1128 592 c 1,6,7
 986 592 986 592 880 592 c 128,-1,8
 774 592 774 592 694 594 c 1,9,10
 677 556 677 556 649 526 c 0,11,12
 638 512 638 512 605 503 c 0,13,14
 588 498 588 498 573 497 c 128,-1,15
 558 496 558 496 544 495 c 0,16,17
 522 495 522 495 513 499 c 0,18,19
 500 504 500 504 508 513 c 0,20,21
 533 549 533 549 549 599 c 1,22,-1
 536 599 l 1,23,24
 336 608 336 608 238 656 c 0,25,26
 154 695 154 695 52 820 c 0,27,28
 44 834 44 834 40 861 c 0,29,30
 27 935 27 935 22 944 c 1,31,32
 53 948 53 948 91 953 c 256,33,34
 129 958 129 958 144 958 c 0,35,36
 187 957 187 957 216 939 c 0,37,38
 223 934 223 934 224 914 c 2,39,-1
 221 869 l 2,40,41
 221 855 221 855 226 849 c 0,42,43
 318 718 318 718 528 675 c 0,44,45
 536 672 536 672 546.5 671 c 128,-1,46
 557 670 557 670 569 669 c 1,47,48
 573 685 573 685 578.5 697.5 c 128,-1,49
 584 710 584 710 589 720 c 0,50,51
 597 737 597 737 627 737 c 2,52,-1
 688 732 l 2,53,54
 701 730 701 730 714 729 c 128,-1,55
 727 728 727 728 740 728 c 1,0,1
896 128 m 1,56,57
 906 232 906 232 732 315 c 0,58,59
 564 396 564 396 393 396 c 0,60,61
 303 396 303 396 253 370 c 0,62,63
 198 342 198 342 196 292 c 0,64,65
 195 261 195 261 241 225 c 0,66,67
 303 178 303 178 305 178 c 1,68,69
 166 178 166 178 96 208 c 0,70,71
 50 227 50 227 18 276 c 1,72,73
 1 315 1 315 0 345 c 0,74,75
 0 406 0 406 69 438 c 0,76,77
 134 468 134 468 257 467 c 0,78,79
 312 467 312 467 370.5 461.5 c 128,-1,80
 429 456 429 456 477 448 c 0,81,82
 536 439 536 439 595 424 c 128,-1,83
 654 409 654 409 714 392 c 0,84,85
 831 359 831 359 980 261 c 0,86,87
 1126 165 1126 165 1125 124 c 0,88,89
 1125 105 1125 105 1089 105 c 0,90,91
 1066 105 1066 105 1034.5 107 c 128,-1,92
 1003 109 1003 109 966 116 c 0,93,94
 953 118 953 118 935 121 c 128,-1,95
 917 124 917 124 896 128 c 1,56,57
285 219 m 1,96,97
 298 222 298 222 308.5 227 c 128,-1,98
 319 232 319 232 332 234 c 0,99,100
 354 235 354 235 388 236 c 128,-1,101
 422 237 422 237 469 237 c 0,102,103
 525 237 525 237 599 224 c 0,104,105
 620 220 620 220 641.5 213.5 c 128,-1,106
 663 207 663 207 683 202 c 0,107,108
 764 181 764 181 818 144 c 0,109,110
 871 107 871 107 871 63 c 0,111,112
 871 41 871 41 857 22 c 0,113,114
 852 16 852 16 829 16 c 0,115,116
 812 16 812 16 787.5 18.5 c 128,-1,117
 763 21 763 21 730 28 c 0,118,119
 719 30 719 30 704 33 c 128,-1,120
 689 36 689 36 671 41 c 1,121,122
 691 50 691 50 705 69 c 0,123,124
 720 88 720 88 714 100 c 0,125,126
 704 123 704 123 666 144 c 128,-1,127
 628 165 628 165 563 177 c 0,128,129
 493 190 493 190 424 199 c 128,-1,130
 355 208 355 208 285 219 c 1,96,97
EndSplineSet
EndChar

StartChar: doubleChamili
Encoding: 57387 57387 38
Width: 1151
GlyphClass: 2
Flags: W
HStem: 296 55<691 850.25> 637 54<737 978.875> 643 70<494.01 571>
AnchorPoint: "gorgonTop" 780 1027 basechar 0
AnchorPoint: "apli" 556 70 basechar 0
AnchorPoint: "klasmaTop" 668 933 basechar 0
AnchorPoint: "yfesis" 926 1097 basechar 0
AnchorPoint: "diesis" 425 161 basechar 0
AnchorPoint: "antikenoma" 555 175 basechar 0
AnchorPoint: "fthoraTop" 734 1105 basechar 0
AnchorPoint: "fthoraBottom" 570 240 basechar 0
AnchorPoint: "noteTop" 203 1223 basechar 0
AnchorPoint: "omalonConnecting" 1069 89 basechar 0
AnchorPoint: "heteronConnecting" 1245 -19 basechar 0
AnchorPoint: "measureNumber" 133 1223 basechar 0
AnchorPoint: "isonIndicator" 489 1391 basechar 0
AnchorPoint: "endofonon" 593 -37 basechar 0
AnchorPoint: "koronis" 731 1226 basechar 0
AnchorPoint: "yfenAbove" 591 1241 basechar 0
AnchorPoint: "yfenBelow" 620 -40 basechar 0
LayerCount: 2
Fore
SplineSet
716 432 m 1,0,1
 710 419 710 419 704 400.5 c 128,-1,2
 698 382 698 382 691 357 c 1,3,-1
 829 351 l 2,4,5
 1060 342 1060 342 1106 296 c 1,6,7
 964 296 964 296 857.5 296 c 128,-1,8
 751 296 751 296 671 298 c 1,9,10
 653 260 653 260 626 230 c 0,11,12
 615 216 615 216 582 207 c 0,13,14
 565 202 565 202 550 201 c 128,-1,15
 535 200 535 200 521 199 c 0,16,17
 499 198 499 198 490 202 c 0,18,19
 477 207 477 207 485 216 c 0,20,21
 510 252 510 252 526 302 c 1,22,-1
 513 302 l 1,23,24
 313 311 313 311 215 360 c 0,25,26
 131 399 131 399 29 524 c 0,27,28
 21 538 21 538 17 565 c 0,29,30
 4 639 4 639 0 647 c 1,31,32
 31 652 31 652 68 657 c 0,33,34
 106 662 106 662 121 662 c 0,35,36
 165 661 165 661 193 643 c 0,37,38
 201 638 201 638 201 618 c 2,39,-1
 198 573 l 2,40,41
 198 559 198 559 203 552 c 0,42,43
 295 421 295 421 505 379 c 0,44,45
 513 376 513 376 523.5 375 c 128,-1,46
 534 374 534 374 546 373 c 1,47,48
 550 389 550 389 555.5 401 c 128,-1,49
 561 413 561 413 566 424 c 0,50,51
 574 441 574 441 604 441 c 2,52,-1
 665 435 l 2,53,54
 677 434 677 434 690.5 433 c 128,-1,55
 704 432 704 432 716 432 c 1,0,1
762 772 m 1,56,57
 756 760 756 760 749.5 741.5 c 128,-1,58
 743 723 743 723 737 698 c 1,59,-1
 875 691 l 2,60,61
 1106 682 1106 682 1151 637 c 1,62,63
 1009 637 1009 637 902.5 637 c 128,-1,64
 796 637 796 637 716 638 c 1,65,66
 699 600 699 600 671 571 c 0,67,68
 660 557 660 557 628 548 c 0,69,70
 611 543 611 543 596 541.5 c 128,-1,71
 581 540 581 540 566 540 c 0,72,73
 544 540 544 540 535 543 c 0,74,75
 522 548 522 548 531 557 c 0,76,77
 556 593 556 593 571 643 c 1,78,-1
 559 643 l 1,79,80
 359 652 359 652 260 701 c 0,81,82
 176 740 176 740 74 865 c 0,83,84
 66 880 66 880 62 905 c 0,85,86
 49 979 49 979 44 988 c 1,87,88
 75 992 75 992 113 998 c 0,89,90
 151 1003 151 1003 167 1002 c 0,91,92
 210 1001 210 1001 238 983 c 0,93,94
 245 979 245 979 246 958 c 2,95,-1
 243 913 l 2,96,97
 243 899 243 899 248 893 c 0,98,99
 340 762 340 762 551 720 c 0,100,101
 559 717 559 717 569 716 c 128,-1,102
 579 715 579 715 591 713 c 1,103,104
 596 729 596 729 601.5 741.5 c 128,-1,105
 607 754 607 754 612 765 c 0,106,107
 621 783 621 783 649 782 c 2,108,-1
 711 776 l 2,109,110
 723 775 723 775 736.5 773.5 c 128,-1,111
 750 772 750 772 762 772 c 1,56,57
EndSplineSet
EndChar

StartChar: doubleChamiliApostrofos
Encoding: 57388 57388 39
Width: 1152
GlyphClass: 2
Flags: W
HStem: 105 18<47.8333 70.9272> 295 55<692 851.25> 302 70<442.968 527> 636 55<738 889.257> 642 70<495.251 572>
AnchorPoint: "gorgonTop" 781 1047 basechar 0
AnchorPoint: "apli" 537 -230 basechar 0
AnchorPoint: "klasmaTop" 669 933 basechar 0
AnchorPoint: "yfesis" 927 1097 basechar 0
AnchorPoint: "diesis" 420 16 basechar 0
AnchorPoint: "antikenoma" 543 -120 basechar 0
AnchorPoint: "fthoraTop" 735 1105 basechar 0
AnchorPoint: "fthoraBottom" 571 -120 basechar 0
AnchorPoint: "noteTop" 204 1223 basechar 0
AnchorPoint: "omalonConnecting" 1049 -113 basechar 0
AnchorPoint: "heteronConnecting" 1246 -180 basechar 0
AnchorPoint: "measureNumber" 134 1223 basechar 0
AnchorPoint: "isonIndicator" 490 1411 basechar 0
AnchorPoint: "endofonon" 594 -297 basechar 0
AnchorPoint: "koronis" 732 1236 basechar 0
AnchorPoint: "yfenAbove" 592 1231 basechar 0
AnchorPoint: "yfenBelow" 621 -310 basechar 0
LayerCount: 2
Fore
SplineSet
70 123 m 1,0,1
 122 128 122 128 236 128 c 0,2,3
 272 128 272 128 312 124 c 128,-1,4
 352 120 352 120 396 111 c 0,5,6
 422 105 422 105 447 98.5 c 128,-1,7
 472 92 472 92 497 84 c 0,8,9
 596 60 596 60 660 13 c 0,10,11
 723 -33 723 -33 724 -88 c 0,12,13
 724 -119 724 -119 708 -137 c 0,14,15
 701 -145 701 -145 673 -145 c 0,16,17
 632 -145 632 -145 555 -130 c 0,18,19
 543 -128 543 -128 524 -125 c 128,-1,20
 505 -122 505 -122 482 -116 c 1,21,22
 507 -104 507 -104 524 -80 c 256,23,24
 541 -56 541 -56 535 -42 c 0,25,26
 523 -13 523 -13 477 12 c 128,-1,27
 431 37 431 37 352 53 c 0,28,29
 268 70 268 70 182.5 81 c 128,-1,30
 97 92 97 92 13 105 c 1,31,-1
 70 123 l 1,0,1
717 431 m 1,32,33
 711 419 711 419 705 400 c 128,-1,34
 699 381 699 381 692 356 c 1,35,-1
 830 350 l 2,36,37
 1061 341 1061 341 1107 295 c 1,38,39
 965 295 965 295 858.5 295 c 128,-1,40
 752 295 752 295 672 297 c 1,41,42
 655 259 655 259 627 230 c 0,43,44
 616 216 616 216 583 206 c 0,45,46
 566 201 566 201 551 200 c 128,-1,47
 536 199 536 199 522 199 c 0,48,49
 500 199 500 199 491 202 c 0,50,51
 478 207 478 207 486 216 c 0,52,53
 511 252 511 252 527 302 c 1,54,-1
 514 302 l 1,55,56
 314 311 314 311 216 359 c 0,57,58
 132 398 132 398 30 523 c 0,59,60
 22 537 22 537 17 564 c 0,61,62
 4 638 4 638 0 647 c 1,63,64
 31 651 31 651 69 656 c 256,65,66
 107 661 107 661 122 661 c 0,67,68
 165 660 165 660 194 642 c 0,69,70
 201 638 201 638 202 617 c 2,71,-1
 199 572 l 2,72,73
 199 558 199 558 203 552 c 0,74,75
 295 421 295 421 506 378 c 0,76,77
 514 375 514 375 524.5 374 c 128,-1,78
 535 373 535 373 547 372 c 1,79,80
 552 388 552 388 557 400 c 128,-1,81
 562 412 562 412 567 423 c 0,82,83
 576 441 576 441 605 441 c 2,84,-1
 666 434 l 2,85,86
 679 433 679 433 691.5 432 c 128,-1,87
 704 431 704 431 717 431 c 1,32,33
763 772 m 1,88,89
 757 759 757 759 750.5 740.5 c 128,-1,90
 744 722 744 722 738 697 c 1,91,-1
 875 691 l 2,92,93
 1106 681 1106 681 1152 636 c 1,94,95
 1009 636 1009 636 903 636 c 128,-1,96
 797 636 797 636 717 638 c 1,97,98
 700 600 700 600 672 570 c 0,99,100
 661 555 661 555 629 547 c 0,101,102
 611 542 611 542 596.5 540.5 c 128,-1,103
 582 539 582 539 567 539 c 0,104,105
 545 539 545 539 536 542 c 0,106,107
 523 547 523 547 531 556 c 0,108,109
 556 592 556 592 572 642 c 1,110,-1
 560 642 l 1,111,112
 360 652 360 652 261 700 c 0,113,114
 177 739 177 739 75 864 c 0,115,116
 67 878 67 878 63 905 c 0,117,118
 50 978 50 978 45 988 c 1,119,120
 76 993 76 993 114 997 c 0,121,122
 152 1002 152 1002 168 1001 c 0,123,124
 211 1000 211 1000 239 983 c 0,125,126
 247 978 247 978 247 958 c 2,127,-1
 244 912 l 2,128,129
 244 898 244 898 249 892 c 0,130,131
 342 761 342 761 552 719 c 0,132,133
 560 716 560 716 570 715 c 128,-1,134
 580 714 580 714 592 712 c 1,135,136
 597 728 597 728 602 740.5 c 128,-1,137
 607 753 607 753 613 764 c 0,138,139
 621 781 621 781 650 781 c 2,140,-1
 711 775 l 2,141,142
 724 774 724 774 737 773 c 128,-1,143
 750 772 750 772 763 772 c 1,88,89
EndSplineSet
EndChar

StartChar: doubleChamiliElafron
Encoding: 57389 57389 40
Width: 1172
GlyphClass: 2
Flags: W
HStem: 83 75<254.139 468.303> 192 242<535 625> 289 54<712 953.875> 630 54<758 998.938> 636 70<515.251 592>
AnchorPoint: "gorgonTop" 756 1047 basechar 0
AnchorPoint: "apli" 512 -200 basechar 0
AnchorPoint: "klasmaTop" 644 933 basechar 0
AnchorPoint: "yfesis" 902 1097 basechar 0
AnchorPoint: "diesis" 399 -191 basechar 0
AnchorPoint: "antikenoma" 581 -123 basechar 0
AnchorPoint: "fthoraTop" 710 1105 basechar 0
AnchorPoint: "fthoraBottom" 546 -120 basechar 0
AnchorPoint: "noteTop" 179 1223 basechar 0
AnchorPoint: "omalonConnecting" 1090 -140 basechar 0
AnchorPoint: "heteronConnecting" 1221 -240 basechar 0
AnchorPoint: "measureNumber" 109 1223 basechar 0
AnchorPoint: "isonIndicator" 465 1411 basechar 0
AnchorPoint: "endofonon" 569 -267 basechar 0
AnchorPoint: "koronis" 707 1226 basechar 0
AnchorPoint: "yfenAbove" 567 1231 basechar 0
AnchorPoint: "yfenBelow" 596 -310 basechar 0
LayerCount: 2
Fore
SplineSet
0 41 m 0,0,1
 0 69 0 69 13.5 88.5 c 128,-1,2
 27 108 27 108 49.5 121 c 128,-1,3
 72 134 72 134 100 141.5 c 128,-1,4
 128 149 128 149 157 152.5 c 128,-1,5
 186 156 186 156 213 157 c 128,-1,6
 240 158 240 158 259 158 c 0,7,8
 377 155 377 155 490.5 132 c 128,-1,9
 604 109 604 109 716 73 c 0,10,11
 837 35 837 35 979 -63 c 0,12,13
 1122 -161 1122 -161 1122 -203 c 0,14,15
 1122 -220 1122 -220 1086 -220 c 0,16,17
 1039 -220 1039 -220 988.5 -212.5 c 128,-1,18
 938 -205 938 -205 892 -192 c 1,19,20
 906 -91 906 -91 731 -3 c 0,21,22
 646 38 646 38 559.5 60.5 c 128,-1,23
 473 83 473 83 379 83 c 0,24,25
 353 83 353 83 322 79.5 c 128,-1,26
 291 76 291 76 264 65.5 c 128,-1,27
 237 55 237 55 217.5 35.5 c 128,-1,28
 198 16 198 16 195 -17 c 0,29,30
 193 -50 193 -50 239 -86 c 0,31,32
 300 -133 300 -133 303 -133 c 1,33,34
 233 -131 233 -131 181.5 -122.5 c 128,-1,35
 130 -114 130 -114 94 -98 c 0,36,37
 49 -78 49 -78 17 -30 c 1,38,39
 0 11 0 11 0 41 c 0,0,1
20 640 m 1,40,41
 36 642 36 642 53 645 c 128,-1,42
 70 648 70 648 89 650 c 0,43,44
 102 652 102 652 115 653.5 c 128,-1,45
 128 655 128 655 142 655 c 0,46,47
 186 654 186 654 214 636 c 0,48,49
 222 631 222 631 222 611 c 2,50,-1
 219 566 l 2,51,52
 219 553 219 553 224 545 c 0,53,54
 317 413 317 413 526 372 c 0,55,56
 534 369 534 369 544.5 368 c 128,-1,57
 555 367 555 367 567 365 c 1,58,59
 571 381 571 381 576.5 393.5 c 128,-1,60
 582 406 582 406 587 417 c 0,61,62
 595 434 595 434 625 434 c 2,63,-1
 686 428 l 2,64,65
 698 427 698 427 711.5 426 c 128,-1,66
 725 425 725 425 737 425 c 1,67,68
 731 412 731 412 725 393.5 c 128,-1,69
 719 375 719 375 712 350 c 1,70,-1
 850 343 l 2,71,72
 1081 334 1081 334 1126 289 c 1,73,-1
 976 289 l 2,74,75
 888 289 888 289 819 289 c 128,-1,76
 750 289 750 289 692 291 c 1,77,78
 674 254 674 254 647 223 c 0,79,80
 640 213 640 213 625.5 207 c 128,-1,81
 611 201 611 201 595 198 c 128,-1,82
 579 195 579 195 563 193.5 c 128,-1,83
 547 192 547 192 535 192 c 0,84,85
 519 192 519 192 511 195 c 0,86,87
 498 200 498 200 506 209 c 0,88,89
 519 227 519 227 529 248.5 c 128,-1,90
 539 270 539 270 547 295 c 1,91,-1
 534 295 l 1,92,93
 433 300 433 300 359.5 314 c 128,-1,94
 286 328 286 328 236 353 c 0,95,96
 152 392 152 392 50 517 c 0,97,98
 42 531 42 531 38 558 c 0,99,100
 32 595 32 595 27 615 c 128,-1,101
 22 635 22 635 20 640 c 1,40,41
65 981 m 1,102,103
 81 983 81 983 98.5 985.5 c 128,-1,104
 116 988 116 988 134 990 c 0,105,106
 151 992 151 992 163.5 993.5 c 128,-1,107
 176 995 176 995 184 995 c 0,108,109
 204 995 204 995 223 991 c 128,-1,110
 242 987 242 987 259 976 c 0,111,112
 266 971 266 971 267 951 c 2,113,-1
 264 906 l 2,114,115
 264 893 264 893 269 886 c 0,116,117
 362 755 362 755 572 713 c 0,118,119
 580 710 580 710 590 709 c 128,-1,120
 600 708 600 708 612 706 c 1,121,122
 617 722 617 722 622 734 c 128,-1,123
 627 746 627 746 633 758 c 0,124,125
 642 775 642 775 670 775 c 2,126,-1
 731 769 l 2,127,128
 743 768 743 768 756.5 766.5 c 128,-1,129
 770 765 770 765 783 765 c 1,130,131
 777 753 777 753 770.5 734.5 c 128,-1,132
 764 716 764 716 758 691 c 1,133,-1
 895 684 l 2,134,135
 1126 675 1126 675 1172 630 c 1,136,-1
 999 630 l 2,137,138
 919 630 919 630 855 630 c 128,-1,139
 791 630 791 630 737 631 c 1,140,141
 720 593 720 593 692 564 c 0,142,143
 684 554 684 554 670 548 c 128,-1,144
 656 542 656 542 640 538.5 c 128,-1,145
 624 535 624 535 608 534 c 128,-1,146
 592 533 592 533 580 533 c 0,147,148
 563 533 563 533 556 536 c 0,149,150
 543 541 543 541 552 550 c 0,151,152
 577 585 577 585 592 636 c 1,153,-1
 580 636 l 1,154,155
 381 645 381 645 281 694 c 0,156,157
 197 733 197 733 95 858 c 0,158,159
 87 871 87 871 83 898 c 0,160,161
 70 972 70 972 65 981 c 1,102,103
EndSplineSet
EndChar

StartChar: doubleChamiliElafronApostrofos
Encoding: 57390 57390 41
Width: 1173
GlyphClass: 2
Flags: W
HStem: -83 16<307.502 336.359> 94 71<261.727 492.594> 290 55<713 872.248> 297 72.5<458.298 547.815> 631 54<759 999.938>
VStem: 0 195<-23.7837 41.6191>
AnchorPoint: "gorgonTop" 777 1047 basechar 0
AnchorPoint: "apli" 533 -320 basechar 0
AnchorPoint: "klasmaTop" 665 933 basechar 0
AnchorPoint: "yfesis" 923 1097 basechar 0
AnchorPoint: "diesis" 420 -191 basechar 0
AnchorPoint: "antikenoma" 530 -232 basechar 0
AnchorPoint: "fthoraTop" 731 1105 basechar 0
AnchorPoint: "fthoraBottom" 567 -230 basechar 0
AnchorPoint: "noteTop" 200 1223 basechar 0
AnchorPoint: "omalonConnecting" 1118 -180 basechar 0
AnchorPoint: "heteronConnecting" 1242 -240 basechar 0
AnchorPoint: "measureNumber" 130 1223 basechar 0
AnchorPoint: "isonIndicator" 486 1411 basechar 0
AnchorPoint: "endofonon" 590 -347 basechar 0
AnchorPoint: "koronis" 728 1236 basechar 0
AnchorPoint: "yfenAbove" 588 1231 basechar 0
AnchorPoint: "yfenBelow" 617 -310 basechar 0
LayerCount: 2
Fore
SplineSet
739 426 m 1,0,1
 733 414 733 414 726.5 395 c 128,-1,2
 720 376 720 376 713 351 c 1,3,-1
 851 345 l 2,4,5
 1082 336 1082 336 1127 290 c 1,6,7
 985 290 985 290 879 290 c 128,-1,8
 773 290 773 290 693 292 c 1,9,10
 676 254 676 254 648 225 c 0,11,12
 637 211 637 211 604 201 c 0,13,14
 587 196 587 196 572 195 c 128,-1,15
 557 194 557 194 543 193 c 0,16,17
 521 193 521 193 512 197 c 0,18,19
 499 202 499 202 507 211 c 0,20,21
 532 247 532 247 548 297 c 1,22,-1
 535 297 l 1,23,24
 335 306 335 306 237 354 c 0,25,26
 153 393 153 393 51 518 c 0,27,28
 43 532 43 532 39 559 c 0,29,30
 26 633 26 633 21 642 c 1,31,32
 52 646 52 646 90 651 c 256,33,34
 128 656 128 656 143 656 c 0,35,36
 186 655 186 655 215 637 c 0,37,38
 222 632 222 632 223 612 c 2,39,-1
 220 567 l 2,40,41
 220 553 220 553 225 547 c 0,42,43
 317 416 317 416 527 373 c 0,44,45
 535 370 535 370 545.5 369.5 c 128,-1,46
 556 369 556 369 568 367 c 1,47,48
 572 383 572 383 577.5 395.5 c 128,-1,49
 583 408 583 408 588 418 c 0,50,51
 596 435 596 435 626 435 c 2,52,-1
 687 430 l 2,53,54
 700 428 700 428 713 427 c 128,-1,55
 726 426 726 426 739 426 c 1,0,1
784 767 m 1,56,57
 778 754 778 754 771.5 735.5 c 128,-1,58
 765 717 765 717 759 692 c 1,59,-1
 896 685 l 2,60,61
 1127 676 1127 676 1173 631 c 1,62,63
 1031 631 1031 631 924.5 631 c 128,-1,64
 818 631 818 631 739 633 c 1,65,66
 721 595 721 595 693 565 c 0,67,68
 682 551 682 551 649 542 c 0,69,70
 632 537 632 537 617.5 536 c 128,-1,71
 603 535 603 535 588 534 c 0,72,73
 566 534 566 534 557 537 c 0,74,75
 544 542 544 542 553 551 c 0,76,77
 578 587 578 587 593 637 c 1,78,-1
 581 637 l 1,79,80
 381 646 381 646 282 695 c 0,81,82
 198 734 198 734 96 859 c 0,83,84
 88 873 88 873 84 900 c 0,85,86
 71 973 71 973 66 982 c 1,87,88
 97 987 97 987 135 992 c 256,89,90
 173 997 173 997 188 997 c 0,91,92
 232 996 232 996 260 978 c 0,93,94
 268 973 268 973 268 953 c 2,95,-1
 265 908 l 2,96,97
 265 894 265 894 270 887 c 0,98,99
 362 756 362 756 573 714 c 0,100,101
 581 711 581 711 591 710 c 128,-1,102
 601 709 601 709 614 707 c 1,103,104
 618 723 618 723 623 735 c 128,-1,105
 628 747 628 747 634 759 c 0,106,107
 642 776 642 776 671 776 c 2,108,-1
 732 770 l 2,109,110
 744 769 744 769 758 768 c 128,-1,111
 772 767 772 767 784 767 c 1,56,57
895 -174 m 1,112,113
 905 -70 905 -70 731 14 c 0,114,115
 563 95 563 95 392 94 c 0,116,117
 302 94 302 94 252 68 c 0,118,119
 197 40 197 40 195 -10 c 0,120,121
 194 -41 194 -41 240 -77 c 0,122,123
 302 -124 302 -124 304 -124 c 1,124,125
 165 -124 165 -124 95 -94 c 0,126,127
 49 -75 49 -75 17 -25 c 1,128,129
 0 14 0 14 0 43 c 0,130,131
 0 104 0 104 68 136 c 0,132,133
 133 166 133 166 256 165 c 0,134,135
 311 165 311 165 369.5 159.5 c 128,-1,136
 428 154 428 154 476 146 c 0,137,138
 535 137 535 137 594 122 c 128,-1,139
 653 107 653 107 713 90 c 0,140,141
 830 57 830 57 979 -41 c 0,142,143
 1125 -137 1125 -137 1125 -178 c 0,144,145
 1125 -197 1125 -197 1088 -197 c 0,146,147
 1065 -197 1065 -197 1033.5 -195 c 128,-1,148
 1002 -193 1002 -193 965 -186 c 0,149,150
 952 -184 952 -184 934 -181 c 128,-1,151
 916 -178 916 -178 895 -174 c 1,112,113
284 -83 m 1,152,153
 297 -80 297 -80 307.5 -75 c 128,-1,154
 318 -70 318 -70 331 -67 c 0,155,156
 353 -66 353 -66 387 -65.5 c 128,-1,157
 421 -65 421 -65 468 -65 c 0,158,159
 524 -65 524 -65 598 -78 c 0,160,161
 619 -82 619 -82 640.5 -88.5 c 128,-1,162
 662 -95 662 -95 682 -100 c 0,163,164
 763 -121 763 -121 817 -158 c 0,165,166
 870 -195 870 -195 870 -239 c 0,167,168
 870 -261 870 -261 856 -280 c 0,169,170
 851 -286 851 -286 828 -286 c 0,171,172
 811 -286 811 -286 786.5 -283.5 c 128,-1,173
 762 -281 762 -281 729 -274 c 0,174,175
 718 -272 718 -272 703 -269 c 128,-1,176
 688 -266 688 -266 670 -261 c 1,177,178
 690 -252 690 -252 704 -233 c 0,179,180
 719 -214 719 -214 713 -202 c 0,181,182
 703 -179 703 -179 665 -158 c 128,-1,183
 627 -137 627 -137 562 -125 c 0,184,185
 492 -112 492 -112 423 -103 c 128,-1,186
 354 -94 354 -94 284 -83 c 1,152,153
EndSplineSet
EndChar

StartChar: tripleChamili
Encoding: 57391 57391 42
Width: 1152
GlyphClass: 2
Flags: W
HStem: 193 54<702 942.938> 199 72.5<446.67 535.893> 555 55<692 851.248> 561 71<442.968 527> 896 54<738 978.938> 902 72.5<483.269 571.893>
AnchorPoint: "gorgonTop" 758 1197 basechar 0
AnchorPoint: "apli" 554 10 basechar 0
AnchorPoint: "klasmaTop" 666 1107 basechar 0
AnchorPoint: "yfesis" 872 1227 basechar 0
AnchorPoint: "diesis" 443 167 basechar 0
AnchorPoint: "antikenoma" 550 131 basechar 0
AnchorPoint: "fthoraTop" 752 1235 basechar 0
AnchorPoint: "fthoraBottom" 588 120 basechar 0
AnchorPoint: "noteTop" 221 1363 basechar 0
AnchorPoint: "omalonConnecting" 980 89 basechar 0
AnchorPoint: "heteronConnecting" 1263 -19 basechar 0
AnchorPoint: "measureNumber" 151 1363 basechar 0
AnchorPoint: "isonIndicator" 507 1561 basechar 0
AnchorPoint: "endofonon" 611 -37 basechar 0
AnchorPoint: "koronis" 649 1330 basechar 0
AnchorPoint: "yfenAbove" 609 1321 basechar 0
AnchorPoint: "yfenBelow" 638 -40 basechar 0
LayerCount: 2
Fore
SplineSet
717 691 m 1,0,1
 711 678 711 678 705 659.5 c 128,-1,2
 699 641 699 641 692 616 c 1,3,-1
 830 610 l 2,4,5
 1061 601 1061 601 1106 555 c 1,6,7
 964 555 964 555 857.5 555 c 128,-1,8
 751 555 751 555 672 556 c 1,9,10
 655 519 655 519 626 490 c 0,11,12
 615 476 615 476 583 466 c 0,13,14
 566 461 566 461 551 460 c 128,-1,15
 536 459 536 459 522 458 c 0,16,17
 500 458 500 458 491 461 c 0,18,19
 478 466 478 466 486 475 c 0,20,21
 511 511 511 511 527 561 c 1,22,-1
 514 561 l 1,23,24
 314 570 314 570 216 619 c 0,25,26
 132 658 132 658 30 783 c 0,27,28
 22 797 22 797 17 824 c 0,29,30
 4 897 4 897 0 906 c 1,31,32
 31 910 31 910 69 916 c 0,33,34
 107 921 107 921 122 921 c 0,35,36
 165 921 165 921 194 902 c 0,37,38
 202 897 202 897 202 877 c 2,39,-1
 199 832 l 2,40,41
 199 818 199 818 203 811 c 0,42,43
 295 680 295 680 506 638 c 0,44,45
 514 635 514 635 524.5 634 c 128,-1,46
 535 633 535 633 547 632 c 1,47,48
 552 648 552 648 557 660 c 128,-1,49
 562 672 562 672 567 683 c 0,50,51
 575 700 575 700 605 700 c 2,52,-1
 666 694 l 2,53,54
 679 693 679 693 691.5 692 c 128,-1,55
 704 691 704 691 717 691 c 1,0,1
763 1031 m 1,56,57
 757 1019 757 1019 750.5 1000.5 c 128,-1,58
 744 982 744 982 738 957 c 1,59,-1
 875 950 l 2,60,61
 1106 941 1106 941 1152 896 c 1,62,63
 1009 896 1009 896 903 896 c 128,-1,64
 797 896 797 896 717 897 c 1,65,66
 700 859 700 859 672 830 c 0,67,68
 661 816 661 816 628 806 c 0,69,70
 610 801 610 801 596 800 c 128,-1,71
 582 799 582 799 567 799 c 0,72,73
 545 799 545 799 536 802 c 0,74,75
 523 808 523 808 531 816 c 0,76,77
 556 852 556 852 572 902 c 1,78,-1
 560 902 l 1,79,80
 360 911 360 911 261 960 c 0,81,82
 177 999 177 999 75 1124 c 0,83,84
 67 1138 67 1138 62 1164 c 0,85,86
 49 1238 49 1238 45 1247 c 1,87,88
 76 1251 76 1251 114 1257 c 0,89,90
 152 1262 152 1262 167 1261 c 0,91,92
 210 1260 210 1260 239 1242 c 0,93,94
 246 1238 246 1238 247 1218 c 2,95,-1
 244 1172 l 2,96,97
 244 1158 244 1158 249 1152 c 0,98,99
 342 1021 342 1021 552 978 c 0,100,101
 560 975 560 975 570 974.5 c 128,-1,102
 580 974 580 974 592 972 c 1,103,104
 597 988 597 988 602 1000 c 128,-1,105
 607 1012 607 1012 613 1024 c 0,106,107
 621 1041 621 1041 650 1041 c 2,108,-1
 711 1035 l 2,109,110
 724 1033 724 1033 737 1032 c 128,-1,111
 750 1031 750 1031 763 1031 c 1,56,57
727 328 m 1,112,113
 721 316 721 316 714.5 297.5 c 128,-1,114
 708 279 708 279 702 254 c 1,115,-1
 839 247 l 2,116,117
 1070 238 1070 238 1116 193 c 1,118,119
 974 193 974 193 867.5 193 c 128,-1,120
 761 193 761 193 681 194 c 1,121,122
 664 156 664 156 636 127 c 0,123,124
 625 113 625 113 592 103 c 0,125,126
 575 98 575 98 560 97 c 128,-1,127
 545 96 545 96 531 95 c 0,128,129
 509 95 509 95 500 99 c 0,130,131
 487 105 487 105 496 113 c 0,132,133
 521 149 521 149 536 199 c 1,134,-1
 523 199 l 1,135,136
 323 208 323 208 225 257 c 0,137,138
 141 296 141 296 39 421 c 0,139,140
 31 435 31 435 27 461 c 0,141,142
 14 535 14 535 9 544 c 1,143,144
 40 548 40 548 78 553 c 256,145,146
 116 558 116 558 131 558 c 0,147,148
 174 557 174 557 203 539 c 0,149,150
 210 535 210 535 211 514 c 2,151,-1
 208 469 l 2,152,153
 208 455 208 455 212 449 c 0,154,155
 304 318 304 318 516 275 c 0,156,157
 524 272 524 272 534 271.5 c 128,-1,158
 544 271 544 271 556 269 c 1,159,160
 561 285 561 285 566 297 c 128,-1,161
 571 309 571 309 577 321 c 0,162,163
 585 338 585 338 614 338 c 2,164,-1
 675 332 l 2,165,166
 687 330 687 330 701 329 c 128,-1,167
 715 328 715 328 727 328 c 1,112,113
EndSplineSet
EndChar

StartChar: petastiIson
Encoding: 57408 57408 43
Width: 1245
GlyphClass: 2
Flags: W
HStem: 220 46<681.859 1005.06> 470 41<354.003 431.646> 592 71<301.434 581.25> 598 108<662.694 1041.79> 765 115<172.004 236.188> 778 102<110.672 249.614>
VStem: 0 172<743 842> 1070 175<318.479 399>
AnchorPoint: "apli" 726 -10 basechar 0
AnchorPoint: "klasmaBottom" 761 83 basechar 0
AnchorPoint: "yfesis" 1140 915 basechar 0
AnchorPoint: "diesis" 425 147 basechar 0
AnchorPoint: "psifiston" 815 140 basechar 0
AnchorPoint: "antikenoma" 674 62 basechar 0
AnchorPoint: "fthoraTop" 695 846 basechar 0
AnchorPoint: "fthoraBottom" 313 162 basechar 0
AnchorPoint: "noteTop" 259 1040 basechar 0
AnchorPoint: "heteronConnecting" 1277 -19 basechar 0
AnchorPoint: "measureNumber" 133 1073 basechar 0
AnchorPoint: "isonIndicator" 675 1000 basechar 0
AnchorPoint: "endofonon" 733 -127 basechar 0
AnchorPoint: "koronis" 691 1046 basechar 0
AnchorPoint: "yfenAbove" 753 1049 basechar 0
AnchorPoint: "yfenBelow" 690 -40 basechar 0
LayerCount: 2
Fore
SplineSet
1229 459 m 1,0,1
 1245 423 1245 423 1245 388 c 0,2,3
 1245 304 1245 304 1148 262 c 0,4,5
 1049 219 1049 219 890 220 c 0,6,7
 751 220 751 220 576 256 c 0,8,9
 441 284 441 284 285 356 c 0,10,11
 118 434 118 434 118 479 c 0,12,13
 118 497 118 497 142 504 c 0,14,15
 170 512 170 512 229 512 c 0,16,17
 262 512 262 512 294 511 c 128,-1,18
 326 510 326 510 357 506 c 0,19,20
 416 499 416 499 440 487 c 1,21,22
 440 487 440 487 446 476 c 1,23,-1
 438 467 l 1,24,25
 432 468 432 468 425 469 c 128,-1,26
 418 470 418 470 409 470 c 0,27,28
 397 470 397 470 386.5 469 c 128,-1,29
 376 468 376 468 365 467 c 0,30,31
 354 468 354 468 354 459 c 0,32,33
 354 443 354 443 384 413 c 0,34,35
 401 396 401 396 421 382 c 128,-1,36
 441 368 441 368 467 356 c 0,37,38
 510 335 510 335 557.5 320 c 128,-1,39
 605 305 605 305 660 292 c 0,40,41
 766 267 766 267 868 266 c 0,42,43
 965 266 965 266 1015 292 c 0,44,45
 1070 319 1070 319 1070 373 c 1,46,-1
 1066 399 l 2,47,48
 1058 441 1058 441 973 486 c 0,49,50
 970 490 970 490 968.5 493 c 128,-1,51
 967 496 967 496 963 501 c 1,52,53
 976 504 976 504 990 505.5 c 128,-1,54
 1004 507 1004 507 1021 509 c 256,55,56
 1038 511 1038 511 1050 512 c 128,-1,57
 1062 513 1062 513 1074 513 c 0,58,59
 1113 513 1113 513 1144 505.5 c 128,-1,60
 1175 498 1175 498 1198 486 c 0,61,62
 1206 482 1206 482 1213.5 474.5 c 128,-1,63
 1221 467 1221 467 1229 459 c 1,0,1
78 876 m 0,64,65
 86 879 86 879 97 879.5 c 128,-1,66
 108 880 108 880 124 880 c 0,67,68
 172 880 172 880 222.5 866.5 c 128,-1,69
 273 853 273 853 326 824 c 1,70,-1
 395 765 l 1,71,72
 385 765 385 765 366.5 767 c 128,-1,73
 348 769 348 769 319 772 c 0,74,75
 291 775 291 775 270 776.5 c 128,-1,76
 249 778 249 778 237 778 c 0,77,78
 211 778 211 778 189 770 c 0,79,80
 172 763 172 763 172 747 c 0,81,82
 172 739 172 739 178 728 c 0,83,84
 185 714 185 714 189 704 c 128,-1,85
 193 694 193 694 199 692 c 0,86,87
 214 686 214 686 227.5 682.5 c 128,-1,88
 241 679 241 679 256 677 c 2,89,-1
 302 666 l 2,90,91
 310 664 310 664 325.5 663 c 128,-1,92
 341 662 341 662 365 662 c 0,93,94
 440 670 440 670 511 677.5 c 128,-1,95
 582 685 582 685 650 692 c 0,96,97
 785 706 785 706 937 706 c 0,98,99
 1038 706 1038 706 1185 611 c 1,100,-1
 1218 569 l 1,101,-1
 1198 574 l 1,102,-1
 1139 584 l 1,103,-1
 1050 594 l 2,104,105
 968 604 968 604 895 603 c 1,106,-1
 852 600 l 2,107,108
 830 599 830 599 797 598 c 128,-1,109
 764 597 764 597 721 594 c 0,110,111
 704 593 704 593 676.5 592.5 c 128,-1,112
 649 592 649 592 610 592 c 0,113,114
 580 592 580 592 548.5 593 c 128,-1,115
 517 594 517 594 483 595 c 0,116,117
 416 598 416 598 332 609 c 0,118,119
 274 616 274 616 219.5 639 c 128,-1,120
 165 662 165 662 108 697 c 0,121,122
 0 764 0 764 0 822 c 0,123,124
 0 862 0 862 78 876 c 0,64,65
EndSplineSet
EndChar

StartChar: petasti
Encoding: 57409 57409 44
Width: 1126
GlyphClass: 2
Flags: W
HStem: 165 47<556.984 888.815> 414.5 42<236.003 313.909>
AnchorPoint: "apli" 697 -80 basechar 0
AnchorPoint: "klasmaBottom" 732 83 basechar 0
AnchorPoint: "yfesis" 1045 691 basechar 0
AnchorPoint: "diesis" 396 147 basechar 0
AnchorPoint: "psifiston" 727 140 basechar 0
AnchorPoint: "antikenoma" 645 62 basechar 0
AnchorPoint: "fthoraTop" 588 600 basechar 0
AnchorPoint: "fthoraBottom" 284 162 basechar 0
AnchorPoint: "noteTop" 146 636 basechar 0
AnchorPoint: "heteronConnecting" 1248 -19 basechar 0
AnchorPoint: "measureNumber" 104 743 basechar 0
AnchorPoint: "isonIndicator" 596 913 basechar 0
AnchorPoint: "endofonon" 704 -127 basechar 0
AnchorPoint: "koronis" 662 1046 basechar 0
AnchorPoint: "yfenAbove" 724 1049 basechar 0
AnchorPoint: "yfenBelow" 701 -40 basechar 0
LayerCount: 2
Fore
SplineSet
1111 404 m 1,0,1
 1127 368 1127 368 1126 334 c 0,2,3
 1126 250 1126 250 1030 208 c 0,4,5
 931 166 931 166 772 165 c 0,6,7
 633 165 633 165 458 201 c 0,8,9
 324 228 324 228 167 301 c 0,10,11
 0 379 0 379 0 424 c 0,12,13
 0 443 0 443 23 450 c 0,14,15
 51 458 51 458 111 458 c 0,16,17
 144 458 144 458 176 456.5 c 128,-1,18
 208 455 208 455 239 451 c 0,19,20
 299 444 299 444 322 432 c 1,21,22
 328 421 328 421 328 422 c 1,23,-1
 320 412 l 1,24,25
 314 413 314 413 307 414 c 128,-1,26
 300 415 300 415 291 415 c 0,27,28
 278 415 278 415 268 414.5 c 128,-1,29
 258 414 258 414 247 412 c 0,30,31
 236 413 236 413 236 404 c 0,32,33
 236 388 236 388 266 359 c 0,34,35
 283 342 283 342 303 327.5 c 128,-1,36
 323 313 323 313 348 301 c 0,37,38
 392 280 392 280 439.5 265 c 128,-1,39
 487 250 487 250 542 237 c 0,40,41
 648 212 648 212 750 212 c 0,42,43
 847 212 847 212 897 237 c 0,44,45
 952 264 952 264 952 319 c 1,46,-1
 948 345 l 2,47,48
 940 387 940 387 854 431 c 0,49,50
 851 436 851 436 849.5 439 c 128,-1,51
 848 442 848 442 845 446 c 1,52,53
 858 449 858 449 872 450.5 c 128,-1,54
 886 452 886 452 903 454 c 0,55,56
 921 456 921 456 932.5 457.5 c 128,-1,57
 944 459 944 459 956 459 c 0,58,59
 995 459 995 459 1025.5 451.5 c 128,-1,60
 1056 444 1056 444 1080 431 c 0,61,62
 1088 427 1088 427 1095.5 419.5 c 128,-1,63
 1103 412 1103 412 1111 404 c 1,0,1
EndSplineSet
EndChar

